0
SECTION
2
HEADER
9
$ACADVER
1
AC1002
9
$INSUNITS
70
4
0
ENDSEC
0
SECTION
2
TABLES
0
TABLE
2
LTYPE
70
1
0
LTYPE
2
DASH
70
0
3
---
72
65
73
2
40
0.6
49
0.3
49
-0.3
0
ENDTAB
0
ENDSEC
0
SECTION
2
ENTITIES
0
LINE
8
Shots
62
1
10
47.39
20
-44.492
11
80.514
21
-47.826
0
CIRCLE
8
Shots
62
1
10
80.514
20
-47.826
40
0.1
0
LINE
8
Shots
62
1
10
39.39
20
-37.204
11
47.39
21
-44.492
0
CIRCLE
8
Shots
62
1
10
47.39
20
-44.492
40
0.1
0
LINE
8
XSect
62
1
6
DASH
10
47.39
20
-44.492
11
42.622
21
-45.32
0
LINE
8
XSect
62
1
6
DASH
10
47.39
20
-44.492
11
47.534
21
-44.446
0
LINE
8
XSect
62
1
10
47.39
20
-44.492
11
48.458
21
-42.122
0
LINE
8
XSect
62
1
10
47.39
20
-44.492
11
47.874
21
-46.662
0
LINE
8
Shots
62
1
10
35.354
20
-37.238
11
39.39
21
-37.204
0
CIRCLE
8
Shots
62
1
10
39.39
20
-37.204
40
0.1
0
LINE
8
XSect
62
1
10
39.39
20
-37.204
11
40.236
21
-37.088
0
LINE
8
XSect
62
1
10
39.39
20
-37.204
11
36.21
21
-38.17
0
LINE
8
XSect
62
1
10
39.39
20
-37.204
11
39.27
21
-36.194
0
LINE
8
XSect
62
1
10
39.39
20
-37.204
11
39.3
21
-39.018
0
LINE
8
Shots
62
1
10
21.926
20
-15.81
11
35.354
21
-37.238
0
CIRCLE
8
Shots
62
1
10
35.354
20
-37.238
40
0.1
0
LINE
8
XSect
62
1
6
DASH
10
35.354
20
-37.238
11
36.064
21
-36.546
0
LINE
8
XSect
62
1
6
DASH
10
35.354
20
-37.238
11
35.65
21
-36.994
0
LINE
8
XSect
62
1
10
35.354
20
-37.238
11
36.2
21
-35.224
0
LINE
8
XSect
62
1
10
35.354
20
-37.238
11
35.032
21
-37.882
0
LINE
8
Shots
62
1
10
19.152
20
-15.31
11
21.926
21
-15.81
0
CIRCLE
8
Shots
62
1
10
21.926
20
-15.81
40
0.1
0
LINE
8
XSect
62
1
6
DASH
10
21.926
20
-15.81
11
23.87
21
-16.278
0
LINE
8
XSect
62
1
10
21.926
20
-15.81
11
19.728
21
-16.068
0
LINE
8
XSect
62
1
10
21.926
20
-15.81
11
22.286
21
-15.552
0
LINE
8
XSect
62
1
10
21.926
20
-15.81
11
20.856
21
-16.536
0
LINE
8
Shots
62
1
10
13.912
20
-3.994
11
19.152
21
-15.31
0
CIRCLE
8
Shots
62
1
10
19.152
20
-15.31
40
0.1
0
LINE
8
XSect
62
1
6
DASH
10
19.152
20
-15.31
11
21.276
21
-14.318
0
LINE
8
XSect
62
1
6
DASH
10
19.152
20
-15.31
11
19.254
21
-15.276
0
LINE
8
XSect
62
1
10
19.152
20
-15.31
11
19.39
21
-14.244
0
LINE
8
XSect
62
1
10
19.152
20
-15.31
11
18.238
21
-16.018
0
LINE
8
Shots
62
1
10
4.692
20
4.572
11
13.912
21
-3.994
0
CIRCLE
8
Shots
62
1
10
13.912
20
-3.994
40
0.1
0
LINE
8
XSect
62
1
6
DASH
10
13.912
20
-3.994
11
14.066
21
-3.876
0
LINE
8
XSect
62
1
6
DASH
10
13.912
20
-3.994
11
14.01
21
-3.984
0
LINE
8
XSect
62
1
10
13.912
20
-3.994
11
14.068
21
-3.08
0
LINE
8
XSect
62
1
10
13.912
20
-3.994
11
13.812
21
-5.032
0
LINE
8
Shots
62
1
10
2.432
20
7.138
11
4.692
21
4.572
0
CIRCLE
8
Shots
62
1
10
4.692
20
4.572
40
0.1
0
LINE
8
XSect
62
1
6
DASH
10
4.692
20
4.572
11
5.158
21
4.648
0
LINE
8
XSect
62
1
10
4.692
20
4.572
11
1.692
21
4.508
0
LINE
8
XSect
62
1
10
4.692
20
4.572
11
4.374
21
6.776
0
LINE
8
XSect
62
1
6
DASH
10
4.692
20
4.572
11
4.648
21
4.246
0
LINE
8
Shots
62
1
10
0
20
0
11
2.432
21
7.138
0
CIRCLE
8
Shots
62
1
10
2.432
20
7.138
40
0.1
0
LINE
8
XSect
62
1
10
2.432
20
7.138
11
3.878
21
7.328
0
LINE
8
XSect
62
1
6
DASH
10
2.432
20
7.138
11
2.338
21
7.058
0
LINE
8
XSect
62
1
10
2.432
20
7.138
11
1.408
21
7.456
0
LINE
8
XSect
62
1
6
DASH
10
2.432
20
7.138
11
2.466
21
6.956
0
ENDSEC
0
EOF
