<?xml version="1.0" encoding="utf-8" standalone="no"?>
<!-- Generated by Therion 5.4.4+19919fc (2020-10-19) -->
<!DOCTYPE svg PUBLIC "-//W3C//DTD SVG 1.1//EN" "http://www.w3.org/Graphics/SVG/1.1/DTD/svg11.dtd">
<svg width="145.087cm" height="121.944cm" viewBox="-31.764 -31.189 4112.693 3456.693" xmlns="http://www.w3.org/2000/svg" xmlns:xlink="http://www.w3.org/1999/xlink">
<defs>
<g id="F_aaaaaaa_wind_cave.svg">
</g>
<g id="G_aaaaaaa_wind_cave.svg">
</g>
<g id="B_aaaaaaa_wind_cave.svg">
</g>
<g id="I_aaaaaaa_wind_cave.svg">
</g>
<g id="E_aaaaaaa_wind_cave.svg">
<path fill="#ffffff" stroke="none" d="M3757.580 1.530L3558.870 11.310L3570.250 242.620L3768.960 232.840Z" />
<path fill="#ffffff" stroke="none" d="M3757.580 1.530L3558.870 11.310L3570.250 242.620L3768.960 232.840Z" />
<path fill="#ffffff" stroke="none" d="M3999.600 253.850L4020.710 21.970L3790.080 0.970L3768.960 232.840Z" />
<path fill="#ffffff" stroke="none" d="M3764.530 464.390L4046.150 469.780L4050.580 238.230L3768.960 232.840Z" />
<path fill="#ffffff" stroke="none" d="M4055.010 6.680L3773.390 1.290L3768.960 232.840L4050.580 238.230Z" />
<path fill="#ffffff" stroke="none" d="M3764.530 464.390L4046.150 469.780L4050.580 238.230L3768.960 232.840Z" />
<path fill="#ffffff" stroke="none" d="M4055.010 6.680L3773.390 1.290L3768.960 232.840L4050.580 238.230Z" />
<path fill="none" stroke="#000000" stroke-width="0.600" d="M70.030 3344.010L62.526 3349.998" />
<path fill="none" stroke="#000000" stroke-width="0.600" d="M3.420 3397.160L10.924 3391.172" />
<path fill="none" stroke="#000000" stroke-width="0.600" d="M3.420 3397.160L10.924 3391.172" />
<path fill="none" stroke="#000000" stroke-width="0.600" d="M70.030 3344.010L62.526 3349.998" />
<path fill="none" stroke="#000000" stroke-width="0.600" d="M3.420 3397.160L4.895 3387.674" />
<path fill="none" stroke="#000000" stroke-width="0.600" d="M39.420 3165.570L37.945 3175.056" />
<path fill="none" stroke="#000000" stroke-width="0.600" d="M39.420 3165.570L37.945 3175.056" />
<path fill="none" stroke="#000000" stroke-width="0.600" d="M3.420 3397.160L4.895 3387.674" />
<path fill="none" stroke="#000000" stroke-width="0.600" d="M39.420 3165.570L49.010 3165.129" />
<path fill="none" stroke="#000000" stroke-width="0.600" d="M347.970 3151.390L338.380 3151.831" />
<path fill="none" stroke="#000000" stroke-width="0.600" d="M347.970 3151.390L338.380 3151.831" />
<path fill="none" stroke="#000000" stroke-width="0.600" d="M39.420 3165.570L49.010 3165.129" />
<path fill="none" stroke="#000000" stroke-width="0.600" d="M347.970 3151.390L357.176 3148.667" />
<path fill="none" stroke="#000000" stroke-width="0.600" d="M697.760 3047.930L688.554 3050.653" />
<path fill="none" stroke="#000000" stroke-width="0.600" d="M697.760 3047.930L688.554 3050.653" />
<path fill="none" stroke="#000000" stroke-width="0.600" d="M347.970 3151.390L357.176 3148.667" />
<path fill="none" stroke="#000000" stroke-width="0.600" d="M697.760 3047.930L707.170 3046.030" />
<path fill="none" stroke="#000000" stroke-width="0.600" d="M1317.700 2922.780L1308.290 2924.680" />
<path fill="none" stroke="#000000" stroke-width="0.600" d="M1317.700 2922.780L1319.519 2932.206" />
<path fill="none" stroke="#000000" stroke-width="0.600" d="M1374.820 3218.720L1373.001 3209.294" />
<path fill="none" stroke="#000000" stroke-width="0.600" d="M1317.700 2922.780L1308.290 2924.680" />
<path fill="none" stroke="#000000" stroke-width="0.600" d="M697.760 3047.930L707.170 3046.030" />
<path fill="none" stroke="#000000" stroke-width="0.600" d="M1317.700 2922.780L1325.021 2916.570" />
<path fill="none" stroke="#000000" stroke-width="0.600" d="M1631.640 2656.460L1624.319 2662.670" />
<path fill="none" stroke="#000000" stroke-width="0.600" d="M1631.640 2656.460L1624.319 2662.670" />
<path fill="none" stroke="#000000" stroke-width="0.600" d="M1317.700 2922.780L1325.021 2916.570" />
<path fill="none" stroke="#000000" stroke-width="0.600" d="M1631.640 2656.460L1638.531 2649.776" />
<path fill="none" stroke="#000000" stroke-width="0.600" d="M1707.040 2583.330L1700.149 2590.014" />
<path fill="none" stroke="#000000" stroke-width="0.600" d="M1707.040 2583.330L1700.149 2590.014" />
<path fill="none" stroke="#000000" stroke-width="0.600" d="M1631.640 2656.460L1638.531 2649.776" />
<path fill="none" stroke="#000000" stroke-width="0.600" d="M1707.040 2583.330L1707.461 2573.739" />
<path fill="none" stroke="#000000" stroke-width="0.600" d="M1716.820 2360.390L1716.399 2369.981" />
<path fill="none" stroke="#000000" stroke-width="0.600" d="M1716.820 2360.390L1716.399 2369.981" />
<path fill="none" stroke="#000000" stroke-width="0.600" d="M1707.040 2583.330L1707.461 2573.739" />
<path fill="none" stroke="#000000" stroke-width="0.600" d="M1716.820 2360.390L1725.078 2355.495" />
<path fill="none" stroke="#000000" stroke-width="0.600" d="M1930.130 2233.960L1921.872 2238.855" />
<path fill="none" stroke="#000000" stroke-width="0.600" d="M1930.130 2233.960L1921.872 2238.855" />
<path fill="none" stroke="#000000" stroke-width="0.600" d="M1716.820 2360.390L1725.078 2355.495" />
<path fill="none" stroke="#000000" stroke-width="0.600" d="M1930.130 2233.960L1928.140 2224.569" />
<path fill="none" stroke="#000000" stroke-width="0.600" d="M1893.130 2059.350L1895.120 2068.741" />
<path fill="none" stroke="#000000" stroke-width="0.600" d="M1893.130 2059.350L1895.120 2068.741" />
<path fill="none" stroke="#000000" stroke-width="0.600" d="M1930.130 2233.960L1928.140 2224.569" />
<path fill="none" stroke="#000000" stroke-width="0.600" d="M1893.130 2059.350L1900.766 2053.532" />
<path fill="none" stroke="#000000" stroke-width="0.600" d="M2236.550 1797.710L2228.914 1803.528" />
<path fill="none" stroke="#000000" stroke-width="0.600" d="M2236.550 1797.710L2228.914 1803.528" />
<path fill="none" stroke="#000000" stroke-width="0.600" d="M1893.130 2059.350L1900.766 2053.532" />
<path fill="none" stroke="#000000" stroke-width="0.600" d="M2236.550 1797.710L2238.090 1788.234" />
<path fill="none" stroke="#000000" stroke-width="0.600" d="M2280.200 1529.130L2278.660 1538.606" />
<path fill="none" stroke="#000000" stroke-width="0.600" d="M2280.200 1529.130L2278.660 1538.606" />
<path fill="none" stroke="#000000" stroke-width="0.600" d="M2236.550 1797.710L2238.090 1788.234" />
<path fill="none" stroke="#000000" stroke-width="0.600" d="M2280.200 1529.130L2281.438 1519.610" />
<path fill="none" stroke="#000000" stroke-width="0.600" d="M2316.350 1251.050L2315.113 1260.570" />
<path fill="none" stroke="#000000" stroke-width="0.600" d="M2316.350 1251.050L2315.113 1260.570" />
<path fill="none" stroke="#000000" stroke-width="0.600" d="M2280.200 1529.130L2281.438 1519.610" />
<path fill="none" stroke="#000000" stroke-width="0.600" d="M2316.350 1251.050L2311.141 1242.986" />
<path fill="none" stroke="#000000" stroke-width="0.600" d="M2192.760 1059.710L2197.969 1067.774" />
<path fill="none" stroke="#000000" stroke-width="0.600" d="M2192.760 1059.710L2197.969 1067.774" />
<path fill="none" stroke="#000000" stroke-width="0.600" d="M2316.350 1251.050L2311.141 1242.986" />
<path fill="none" stroke="#000000" stroke-width="0.600" d="M2192.760 1059.710L2201.269 1055.264" />
<path fill="none" stroke="#000000" stroke-width="0.600" d="M2653.100 819.190L2644.591 823.636" />
<path fill="none" stroke="#000000" stroke-width="0.600" d="M2653.100 819.190L2644.591 823.636" />
<path fill="none" stroke="#000000" stroke-width="0.600" d="M2192.760 1059.710L2201.269 1055.264" />
<path fill="none" stroke="#000000" stroke-width="0.600" d="M2653.100 819.190L2662.466 817.085" />
<path fill="none" stroke="#000000" stroke-width="0.600" d="M2927.350 757.540L2917.984 759.645" />
<path fill="none" stroke="#000000" stroke-width="0.600" d="M2927.350 757.540L2917.984 759.645" />
<path fill="none" stroke="#000000" stroke-width="0.600" d="M2653.100 819.190L2662.466 817.085" />
<path fill="none" stroke="#000000" stroke-width="0.600" d="M2927.350 757.540L2928.924 748.070" />
<path fill="none" stroke="#000000" stroke-width="0.600" d="M2954.850 592.130L2953.276 601.600" />
<path fill="none" stroke="#000000" stroke-width="0.600" d="M2954.850 592.130L2953.276 601.600" />
<path fill="none" stroke="#000000" stroke-width="0.600" d="M2927.350 757.540L2928.924 748.070" />
<path fill="none" stroke="#000000" stroke-width="0.600" d="M2954.850 592.130L2961.580 585.284" />
<path fill="none" stroke="#000000" stroke-width="0.600" d="M3300.250 240.780L3293.520 247.626" />
<path fill="none" stroke="#000000" stroke-width="0.600" d="M3300.250 240.780L3293.520 247.626" />
<path fill="none" stroke="#000000" stroke-width="0.600" d="M2954.850 592.130L2961.580 585.284" />
<path fill="none" stroke="#000000" stroke-width="0.600" d="M3300.250 240.780L3309.850 240.845" />
<path fill="none" stroke="#000000" stroke-width="0.600" d="M3570.250 242.620L3560.650 242.555" />
<path fill="none" stroke="#000000" stroke-width="0.600" d="M3570.250 242.620L3560.650 242.555" />
<path fill="none" stroke="#000000" stroke-width="0.600" d="M3300.250 240.780L3309.850 240.845" />
<path fill="none" stroke="#000000" stroke-width="0.600" d="M3570.250 242.620L3579.838 242.148" />
<path fill="none" stroke="#000000" stroke-width="0.600" d="M3768.960 232.840L3759.372 233.312" />
<path fill="none" stroke="#000000" stroke-width="0.600" d="M3768.960 232.840L3759.372 233.312" />
<path fill="none" stroke="#000000" stroke-width="0.600" d="M3570.250 242.620L3579.838 242.148" />
<path fill="none" stroke="#000000" stroke-width="0.600" d="M3768.960 232.840L3778.558 233.024" />
<path fill="none" stroke="#000000" stroke-width="0.600" d="M4050.580 238.230L4040.982 238.046" />
<path fill="none" stroke="#000000" stroke-width="0.600" d="M3768.960 232.840L3778.558 233.024" />
<path fill="none" stroke="#000000" stroke-width="0.600" d="M4050.580 238.230L4040.982 238.046" />
<path fill="none" stroke="#000000" stroke-width="0.600" d="M4050.580 238.230L4040.982 238.046" />
<path fill="none" stroke="#000000" stroke-width="0.600" d="M3768.960 232.840L3778.558 233.024" />
<path fill="none" stroke="#000000" stroke-width="0.600" d="M4050.580 238.230L4040.982 238.046" />
<path fill="none" stroke="#000000" stroke-width="0.600" d="M3768.960 232.840L3778.558 233.024" />
<path fill="none" stroke="#000000" stroke-width="0.600" d="M1623.560 3288.870L1614.320 3286.264" />
<path fill="none" stroke="#000000" stroke-width="0.600" d="M1374.820 3218.720L1384.060 3221.326" />
<path fill="none" stroke="#000000" stroke-width="0.600" d="M1374.820 3218.720L1384.060 3221.326" />
<path fill="none" stroke="#000000" stroke-width="0.600" d="M1623.560 3288.870L1614.320 3286.264" />
<path fill="none" stroke="#000000" stroke-width="0.600" d="M1374.820 3218.720L1373.001 3209.294" />
<path fill="none" stroke="#000000" stroke-width="0.600" d="M1317.700 2922.780L1319.519 2932.206" />
<path fill="none" stroke="#000000" stroke-width="0.600" d="M1317.700 2922.780L1319.519 2932.206" />
<path fill="none" stroke="#000000" stroke-width="0.600" d="M1374.820 3218.720L1373.001 3209.294" />
<path fill="none" stroke="#000000" stroke-width="0.600" d="M1317.700 2922.780L1308.290 2924.680" />
<path fill="none" stroke="#000000" stroke-width="0.600" d="M697.760 3047.930L707.170 3046.030" />
<path fill="none" stroke="#000000" stroke-width="0.600" d="M1317.700 2922.780L1325.021 2916.570" />
<path fill="none" stroke="#000000" stroke-width="0.600" d="M1631.640 2656.460L1624.319 2662.670" />
<path fill="none" stroke="#000000" stroke-width="0.600" d="M1623.560 3288.870L1614.320 3286.264" />
<path fill="none" stroke="#000000" stroke-width="0.600" d="M1374.820 3218.720L1384.060 3221.326" />
<path fill="none" stroke="#000000" stroke-width="0.600" d="M1374.820 3218.720L1384.060 3221.326" />
<path fill="none" stroke="#000000" stroke-width="0.600" d="M1623.560 3288.870L1614.320 3286.264" />
<path fill="none" stroke="#000000" stroke-width="0.600" d="M1374.820 3218.720L1373.001 3209.294" />
<path fill="none" stroke="#000000" stroke-width="0.600" d="M1317.700 2922.780L1319.519 2932.206" />
<path fill="none" stroke="#000000" stroke-width="0.420" d="M1372.420 3218.720L1377.220 3218.720" />
<path fill="none" stroke="#000000" stroke-width="0.420" d="M1374.820 3216.320L1374.820 3221.120" />
<path fill="#ffffff" stroke="none" d="M1375.780 3218.720C1375.780 3218.975 1375.679 3219.219 1375.499 3219.399C1375.319 3219.579 1375.075 3219.680 1374.820 3219.680C1374.565 3219.680 1374.321 3219.579 1374.141 3219.399C1373.961 3219.219 1373.860 3218.975 1373.860 3218.720C1373.860 3218.465 1373.961 3218.221 1374.141 3218.041C1374.321 3217.861 1374.565 3217.760 1374.820 3217.760C1375.075 3217.760 1375.319 3217.861 1375.499 3218.041C1375.679 3218.221 1375.780 3218.465 1375.780 3218.720Z" />
<path fill="none" stroke="#000000" stroke-width="0.600" d="M1374.820 3218.720h0.001" />
<path fill="none" stroke="#000000" stroke-width="0.420" d="M1621.160 3288.870L1625.960 3288.870" />
<path fill="none" stroke="#000000" stroke-width="0.420" d="M1623.560 3286.470L1623.560 3291.270" />
<path fill="#ffffff" stroke="none" d="M1624.520 3288.870C1624.520 3289.125 1624.419 3289.369 1624.239 3289.549C1624.059 3289.729 1623.815 3289.830 1623.560 3289.830C1623.305 3289.830 1623.061 3289.729 1622.881 3289.549C1622.701 3289.369 1622.600 3289.125 1622.600 3288.870C1622.600 3288.615 1622.701 3288.371 1622.881 3288.191C1623.061 3288.011 1623.305 3287.910 1623.560 3287.910C1623.815 3287.910 1624.059 3288.011 1624.239 3288.191C1624.419 3288.371 1624.520 3288.615 1624.520 3288.870Z" />
<path fill="none" stroke="#000000" stroke-width="0.600" d="M1623.560 3288.870h0.001" />
<path fill="none" stroke="#000000" stroke-width="0.420" d="M1315.300 2922.780L1320.100 2922.780" />
<path fill="none" stroke="#000000" stroke-width="0.420" d="M1317.700 2920.380L1317.700 2925.180" />
<path fill="#ffffff" stroke="none" d="M1318.660 2922.780C1318.660 2923.035 1318.559 2923.279 1318.379 2923.459C1318.199 2923.639 1317.955 2923.740 1317.700 2923.740C1317.445 2923.740 1317.201 2923.639 1317.021 2923.459C1316.841 2923.279 1316.740 2923.035 1316.740 2922.780C1316.740 2922.525 1316.841 2922.281 1317.021 2922.101C1317.201 2921.921 1317.445 2921.820 1317.700 2921.820C1317.955 2921.820 1318.199 2921.921 1318.379 2922.101C1318.559 2922.281 1318.660 2922.525 1318.660 2922.780Z" />
<path fill="none" stroke="#000000" stroke-width="0.600" d="M1317.700 2922.780h0.001" />
<path fill="none" stroke="#000000" stroke-width="0.420" d="M1372.420 3218.720L1377.220 3218.720" />
<path fill="none" stroke="#000000" stroke-width="0.420" d="M1374.820 3216.320L1374.820 3221.120" />
<path fill="#ffffff" stroke="none" d="M1375.780 3218.720C1375.780 3218.975 1375.679 3219.219 1375.499 3219.399C1375.319 3219.579 1375.075 3219.680 1374.820 3219.680C1374.565 3219.680 1374.321 3219.579 1374.141 3219.399C1373.961 3219.219 1373.860 3218.975 1373.860 3218.720C1373.860 3218.465 1373.961 3218.221 1374.141 3218.041C1374.321 3217.861 1374.565 3217.760 1374.820 3217.760C1375.075 3217.760 1375.319 3217.861 1375.499 3218.041C1375.679 3218.221 1375.780 3218.465 1375.780 3218.720Z" />
<path fill="none" stroke="#000000" stroke-width="0.600" d="M1374.820 3218.720h0.001" />
<path fill="none" stroke="#000000" stroke-width="0.420" d="M1621.160 3288.870L1625.960 3288.870" />
<path fill="none" stroke="#000000" stroke-width="0.420" d="M1623.560 3286.470L1623.560 3291.270" />
<path fill="#ffffff" stroke="none" d="M1624.520 3288.870C1624.520 3289.125 1624.419 3289.369 1624.239 3289.549C1624.059 3289.729 1623.815 3289.830 1623.560 3289.830C1623.305 3289.830 1623.061 3289.729 1622.881 3289.549C1622.701 3289.369 1622.600 3289.125 1622.600 3288.870C1622.600 3288.615 1622.701 3288.371 1622.881 3288.191C1623.061 3288.011 1623.305 3287.910 1623.560 3287.910C1623.815 3287.910 1624.059 3288.011 1624.239 3288.191C1624.419 3288.371 1624.520 3288.615 1624.520 3288.870Z" />
<path fill="none" stroke="#000000" stroke-width="0.600" d="M1623.560 3288.870h0.001" />
<path fill="none" stroke="#000000" stroke-width="0.420" d="M4048.180 238.230L4052.980 238.230" />
<path fill="none" stroke="#000000" stroke-width="0.420" d="M4050.580 235.830L4050.580 240.630" />
<path fill="#ffffff" stroke="none" d="M4051.540 238.230C4051.540 238.485 4051.439 238.729 4051.259 238.909C4051.079 239.089 4050.835 239.190 4050.580 239.190C4050.325 239.190 4050.081 239.089 4049.901 238.909C4049.721 238.729 4049.620 238.485 4049.620 238.230C4049.620 237.975 4049.721 237.731 4049.901 237.551C4050.081 237.371 4050.325 237.270 4050.580 237.270C4050.835 237.270 4051.079 237.371 4051.259 237.551C4051.439 237.731 4051.540 237.975 4051.540 238.230Z" />
<path fill="none" stroke="#000000" stroke-width="0.600" d="M4050.580 238.230h0.001" />
<path fill="none" stroke="#000000" stroke-width="0.420" d="M3766.560 232.840L3771.360 232.840" />
<path fill="none" stroke="#000000" stroke-width="0.420" d="M3768.960 230.440L3768.960 235.240" />
<path fill="#ffffff" stroke="none" d="M3769.920 232.840C3769.920 233.095 3769.819 233.339 3769.639 233.519C3769.459 233.699 3769.215 233.800 3768.960 233.800C3768.705 233.800 3768.461 233.699 3768.281 233.519C3768.101 233.339 3768.000 233.095 3768.000 232.840C3768.000 232.585 3768.101 232.341 3768.281 232.161C3768.461 231.981 3768.705 231.880 3768.960 231.880C3769.215 231.880 3769.459 231.981 3769.639 232.161C3769.819 232.341 3769.920 232.585 3769.920 232.840Z" />
<path fill="none" stroke="#000000" stroke-width="0.600" d="M3768.960 232.840h0.001" />
<path fill="none" stroke="#000000" stroke-width="0.420" d="M3567.850 242.620L3572.650 242.620" />
<path fill="none" stroke="#000000" stroke-width="0.420" d="M3570.250 240.220L3570.250 245.020" />
<path fill="#ffffff" stroke="none" d="M3571.210 242.620C3571.210 242.875 3571.109 243.119 3570.929 243.299C3570.749 243.479 3570.505 243.580 3570.250 243.580C3569.995 243.580 3569.751 243.479 3569.571 243.299C3569.391 243.119 3569.290 242.875 3569.290 242.620C3569.290 242.365 3569.391 242.121 3569.571 241.941C3569.751 241.761 3569.995 241.660 3570.250 241.660C3570.505 241.660 3570.749 241.761 3570.929 241.941C3571.109 242.121 3571.210 242.365 3571.210 242.620Z" />
<path fill="none" stroke="#000000" stroke-width="0.600" d="M3570.250 242.620h0.001" />
<path fill="none" stroke="#000000" stroke-width="0.420" d="M3297.850 240.780L3302.650 240.780" />
<path fill="none" stroke="#000000" stroke-width="0.420" d="M3300.250 238.380L3300.250 243.180" />
<path fill="#ffffff" stroke="none" d="M3301.210 240.780C3301.210 241.035 3301.109 241.279 3300.929 241.459C3300.749 241.639 3300.505 241.740 3300.250 241.740C3299.995 241.740 3299.751 241.639 3299.571 241.459C3299.391 241.279 3299.290 241.035 3299.290 240.780C3299.290 240.525 3299.391 240.281 3299.571 240.101C3299.751 239.921 3299.995 239.820 3300.250 239.820C3300.505 239.820 3300.749 239.921 3300.929 240.101C3301.109 240.281 3301.210 240.525 3301.210 240.780Z" />
<path fill="none" stroke="#000000" stroke-width="0.600" d="M3300.250 240.780h0.001" />
<path fill="none" stroke="#000000" stroke-width="0.420" d="M2952.450 592.130L2957.250 592.130" />
<path fill="none" stroke="#000000" stroke-width="0.420" d="M2954.850 589.730L2954.850 594.530" />
<path fill="#ffffff" stroke="none" d="M2955.810 592.130C2955.810 592.385 2955.709 592.629 2955.529 592.809C2955.349 592.989 2955.105 593.090 2954.850 593.090C2954.595 593.090 2954.351 592.989 2954.171 592.809C2953.991 592.629 2953.890 592.385 2953.890 592.130C2953.890 591.875 2953.991 591.631 2954.171 591.451C2954.351 591.271 2954.595 591.170 2954.850 591.170C2955.105 591.170 2955.349 591.271 2955.529 591.451C2955.709 591.631 2955.810 591.875 2955.810 592.130Z" />
<path fill="none" stroke="#000000" stroke-width="0.600" d="M2954.850 592.130h0.001" />
<path fill="none" stroke="#000000" stroke-width="0.420" d="M2924.950 757.540L2929.750 757.540" />
<path fill="none" stroke="#000000" stroke-width="0.420" d="M2927.350 755.140L2927.350 759.940" />
<path fill="#ffffff" stroke="none" d="M2928.310 757.540C2928.310 757.795 2928.209 758.039 2928.029 758.219C2927.849 758.399 2927.605 758.500 2927.350 758.500C2927.095 758.500 2926.851 758.399 2926.671 758.219C2926.491 758.039 2926.390 757.795 2926.390 757.540C2926.390 757.285 2926.491 757.041 2926.671 756.861C2926.851 756.681 2927.095 756.580 2927.350 756.580C2927.605 756.580 2927.849 756.681 2928.029 756.861C2928.209 757.041 2928.310 757.285 2928.310 757.540Z" />
<path fill="none" stroke="#000000" stroke-width="0.600" d="M2927.350 757.540h0.001" />
<path fill="none" stroke="#000000" stroke-width="0.420" d="M2650.700 819.190L2655.500 819.190" />
<path fill="none" stroke="#000000" stroke-width="0.420" d="M2653.100 816.790L2653.100 821.590" />
<path fill="#ffffff" stroke="none" d="M2654.060 819.190C2654.060 819.445 2653.959 819.689 2653.779 819.869C2653.599 820.049 2653.355 820.150 2653.100 820.150C2652.845 820.150 2652.601 820.049 2652.421 819.869C2652.241 819.689 2652.140 819.445 2652.140 819.190C2652.140 818.935 2652.241 818.691 2652.421 818.511C2652.601 818.331 2652.845 818.230 2653.100 818.230C2653.355 818.230 2653.599 818.331 2653.779 818.511C2653.959 818.691 2654.060 818.935 2654.060 819.190Z" />
<path fill="none" stroke="#000000" stroke-width="0.600" d="M2653.100 819.190h0.001" />
<path fill="none" stroke="#000000" stroke-width="0.420" d="M2190.360 1059.710L2195.160 1059.710" />
<path fill="none" stroke="#000000" stroke-width="0.420" d="M2192.760 1057.310L2192.760 1062.110" />
<path fill="#ffffff" stroke="none" d="M2193.720 1059.710C2193.720 1059.965 2193.619 1060.209 2193.439 1060.389C2193.259 1060.569 2193.015 1060.670 2192.760 1060.670C2192.505 1060.670 2192.261 1060.569 2192.081 1060.389C2191.901 1060.209 2191.800 1059.965 2191.800 1059.710C2191.800 1059.455 2191.901 1059.211 2192.081 1059.031C2192.261 1058.851 2192.505 1058.750 2192.760 1058.750C2193.015 1058.750 2193.259 1058.851 2193.439 1059.031C2193.619 1059.211 2193.720 1059.455 2193.720 1059.710Z" />
<path fill="none" stroke="#000000" stroke-width="0.600" d="M2192.760 1059.710h0.001" />
<path fill="none" stroke="#000000" stroke-width="0.420" d="M2313.950 1251.050L2318.750 1251.050" />
<path fill="none" stroke="#000000" stroke-width="0.420" d="M2316.350 1248.650L2316.350 1253.450" />
<path fill="#ffffff" stroke="none" d="M2317.310 1251.050C2317.310 1251.305 2317.209 1251.549 2317.029 1251.729C2316.849 1251.909 2316.605 1252.010 2316.350 1252.010C2316.095 1252.010 2315.851 1251.909 2315.671 1251.729C2315.491 1251.549 2315.390 1251.305 2315.390 1251.050C2315.390 1250.795 2315.491 1250.551 2315.671 1250.371C2315.851 1250.191 2316.095 1250.090 2316.350 1250.090C2316.605 1250.090 2316.849 1250.191 2317.029 1250.371C2317.209 1250.551 2317.310 1250.795 2317.310 1251.050Z" />
<path fill="none" stroke="#000000" stroke-width="0.600" d="M2316.350 1251.050h0.001" />
<path fill="none" stroke="#000000" stroke-width="0.420" d="M2277.800 1529.130L2282.600 1529.130" />
<path fill="none" stroke="#000000" stroke-width="0.420" d="M2280.200 1526.730L2280.200 1531.530" />
<path fill="#ffffff" stroke="none" d="M2281.160 1529.130C2281.160 1529.385 2281.059 1529.629 2280.879 1529.809C2280.699 1529.989 2280.455 1530.090 2280.200 1530.090C2279.945 1530.090 2279.701 1529.989 2279.521 1529.809C2279.341 1529.629 2279.240 1529.385 2279.240 1529.130C2279.240 1528.875 2279.341 1528.631 2279.521 1528.451C2279.701 1528.271 2279.945 1528.170 2280.200 1528.170C2280.455 1528.170 2280.699 1528.271 2280.879 1528.451C2281.059 1528.631 2281.160 1528.875 2281.160 1529.130Z" />
<path fill="none" stroke="#000000" stroke-width="0.600" d="M2280.200 1529.130h0.001" />
<path fill="none" stroke="#000000" stroke-width="0.420" d="M2234.150 1797.710L2238.950 1797.710" />
<path fill="none" stroke="#000000" stroke-width="0.420" d="M2236.550 1795.310L2236.550 1800.110" />
<path fill="#ffffff" stroke="none" d="M2237.510 1797.710C2237.510 1797.965 2237.409 1798.209 2237.229 1798.389C2237.049 1798.569 2236.805 1798.670 2236.550 1798.670C2236.295 1798.670 2236.051 1798.569 2235.871 1798.389C2235.691 1798.209 2235.590 1797.965 2235.590 1797.710C2235.590 1797.455 2235.691 1797.211 2235.871 1797.031C2236.051 1796.851 2236.295 1796.750 2236.550 1796.750C2236.805 1796.750 2237.049 1796.851 2237.229 1797.031C2237.409 1797.211 2237.510 1797.455 2237.510 1797.710Z" />
<path fill="none" stroke="#000000" stroke-width="0.600" d="M2236.550 1797.710h0.001" />
<path fill="none" stroke="#000000" stroke-width="0.420" d="M1890.730 2059.350L1895.530 2059.350" />
<path fill="none" stroke="#000000" stroke-width="0.420" d="M1893.130 2056.950L1893.130 2061.750" />
<path fill="#ffffff" stroke="none" d="M1894.090 2059.350C1894.090 2059.605 1893.989 2059.849 1893.809 2060.029C1893.629 2060.209 1893.385 2060.310 1893.130 2060.310C1892.875 2060.310 1892.631 2060.209 1892.451 2060.029C1892.271 2059.849 1892.170 2059.605 1892.170 2059.350C1892.170 2059.095 1892.271 2058.851 1892.451 2058.671C1892.631 2058.491 1892.875 2058.390 1893.130 2058.390C1893.385 2058.390 1893.629 2058.491 1893.809 2058.671C1893.989 2058.851 1894.090 2059.095 1894.090 2059.350Z" />
<path fill="none" stroke="#000000" stroke-width="0.600" d="M1893.130 2059.350h0.001" />
<path fill="none" stroke="#000000" stroke-width="0.420" d="M1927.730 2233.960L1932.530 2233.960" />
<path fill="none" stroke="#000000" stroke-width="0.420" d="M1930.130 2231.560L1930.130 2236.360" />
<path fill="#ffffff" stroke="none" d="M1931.090 2233.960C1931.090 2234.215 1930.989 2234.459 1930.809 2234.639C1930.629 2234.819 1930.385 2234.920 1930.130 2234.920C1929.875 2234.920 1929.631 2234.819 1929.451 2234.639C1929.271 2234.459 1929.170 2234.215 1929.170 2233.960C1929.170 2233.705 1929.271 2233.461 1929.451 2233.281C1929.631 2233.101 1929.875 2233.000 1930.130 2233.000C1930.385 2233.000 1930.629 2233.101 1930.809 2233.281C1930.989 2233.461 1931.090 2233.705 1931.090 2233.960Z" />
<path fill="none" stroke="#000000" stroke-width="0.600" d="M1930.130 2233.960h0.001" />
<path fill="none" stroke="#000000" stroke-width="0.420" d="M1714.420 2360.390L1719.220 2360.390" />
<path fill="none" stroke="#000000" stroke-width="0.420" d="M1716.820 2357.990L1716.820 2362.790" />
<path fill="#ffffff" stroke="none" d="M1717.780 2360.390C1717.780 2360.645 1717.679 2360.889 1717.499 2361.069C1717.319 2361.249 1717.075 2361.350 1716.820 2361.350C1716.565 2361.350 1716.321 2361.249 1716.141 2361.069C1715.961 2360.889 1715.860 2360.645 1715.860 2360.390C1715.860 2360.135 1715.961 2359.891 1716.141 2359.711C1716.321 2359.531 1716.565 2359.430 1716.820 2359.430C1717.075 2359.430 1717.319 2359.531 1717.499 2359.711C1717.679 2359.891 1717.780 2360.135 1717.780 2360.390Z" />
<path fill="none" stroke="#000000" stroke-width="0.600" d="M1716.820 2360.390h0.001" />
<path fill="none" stroke="#000000" stroke-width="0.420" d="M1704.640 2583.330L1709.440 2583.330" />
<path fill="none" stroke="#000000" stroke-width="0.420" d="M1707.040 2580.930L1707.040 2585.730" />
<path fill="#ffffff" stroke="none" d="M1708.000 2583.330C1708.000 2583.585 1707.899 2583.829 1707.719 2584.009C1707.539 2584.189 1707.295 2584.290 1707.040 2584.290C1706.785 2584.290 1706.541 2584.189 1706.361 2584.009C1706.181 2583.829 1706.080 2583.585 1706.080 2583.330C1706.080 2583.075 1706.181 2582.831 1706.361 2582.651C1706.541 2582.471 1706.785 2582.370 1707.040 2582.370C1707.295 2582.370 1707.539 2582.471 1707.719 2582.651C1707.899 2582.831 1708.000 2583.075 1708.000 2583.330Z" />
<path fill="none" stroke="#000000" stroke-width="0.600" d="M1707.040 2583.330h0.001" />
<path fill="none" stroke="#000000" stroke-width="0.420" d="M1629.240 2656.460L1634.040 2656.460" />
<path fill="none" stroke="#000000" stroke-width="0.420" d="M1631.640 2654.060L1631.640 2658.860" />
<path fill="#ffffff" stroke="none" d="M1632.600 2656.460C1632.600 2656.715 1632.499 2656.959 1632.319 2657.139C1632.139 2657.319 1631.895 2657.420 1631.640 2657.420C1631.385 2657.420 1631.141 2657.319 1630.961 2657.139C1630.781 2656.959 1630.680 2656.715 1630.680 2656.460C1630.680 2656.205 1630.781 2655.961 1630.961 2655.781C1631.141 2655.601 1631.385 2655.500 1631.640 2655.500C1631.895 2655.500 1632.139 2655.601 1632.319 2655.781C1632.499 2655.961 1632.600 2656.205 1632.600 2656.460Z" />
<path fill="none" stroke="#000000" stroke-width="0.600" d="M1631.640 2656.460h0.001" />
<path fill="none" stroke="#000000" stroke-width="0.420" d="M1315.300 2922.780L1320.100 2922.780" />
<path fill="none" stroke="#000000" stroke-width="0.420" d="M1317.700 2920.380L1317.700 2925.180" />
<path fill="#ffffff" stroke="none" d="M1318.660 2922.780C1318.660 2923.035 1318.559 2923.279 1318.379 2923.459C1318.199 2923.639 1317.955 2923.740 1317.700 2923.740C1317.445 2923.740 1317.201 2923.639 1317.021 2923.459C1316.841 2923.279 1316.740 2923.035 1316.740 2922.780C1316.740 2922.525 1316.841 2922.281 1317.021 2922.101C1317.201 2921.921 1317.445 2921.820 1317.700 2921.820C1317.955 2921.820 1318.199 2921.921 1318.379 2922.101C1318.559 2922.281 1318.660 2922.525 1318.660 2922.780Z" />
<path fill="none" stroke="#000000" stroke-width="0.600" d="M1317.700 2922.780h0.001" />
<path fill="none" stroke="#000000" stroke-width="0.420" d="M695.360 3047.930L700.160 3047.930" />
<path fill="none" stroke="#000000" stroke-width="0.420" d="M697.760 3045.530L697.760 3050.330" />
<path fill="#ffffff" stroke="none" d="M698.720 3047.930C698.720 3048.185 698.619 3048.429 698.439 3048.609C698.259 3048.789 698.015 3048.890 697.760 3048.890C697.505 3048.890 697.261 3048.789 697.081 3048.609C696.901 3048.429 696.800 3048.185 696.800 3047.930C696.800 3047.675 696.901 3047.431 697.081 3047.251C697.261 3047.071 697.505 3046.970 697.760 3046.970C698.015 3046.970 698.259 3047.071 698.439 3047.251C698.619 3047.431 698.720 3047.675 698.720 3047.930Z" />
<path fill="none" stroke="#000000" stroke-width="0.600" d="M697.760 3047.930h0.001" />
<path fill="none" stroke="#000000" stroke-width="0.420" d="M345.570 3151.390L350.370 3151.390" />
<path fill="none" stroke="#000000" stroke-width="0.420" d="M347.970 3148.990L347.970 3153.790" />
<path fill="#ffffff" stroke="none" d="M348.930 3151.390C348.930 3151.645 348.829 3151.889 348.649 3152.069C348.469 3152.249 348.225 3152.350 347.970 3152.350C347.715 3152.350 347.471 3152.249 347.291 3152.069C347.111 3151.889 347.010 3151.645 347.010 3151.390C347.010 3151.135 347.111 3150.891 347.291 3150.711C347.471 3150.531 347.715 3150.430 347.970 3150.430C348.225 3150.430 348.469 3150.531 348.649 3150.711C348.829 3150.891 348.930 3151.135 348.930 3151.390Z" />
<path fill="none" stroke="#000000" stroke-width="0.600" d="M347.970 3151.390h0.001" />
<path fill="none" stroke="#000000" stroke-width="0.420" d="M37.020 3165.570L41.820 3165.570" />
<path fill="none" stroke="#000000" stroke-width="0.420" d="M39.420 3163.170L39.420 3167.970" />
<path fill="#ffffff" stroke="none" d="M40.380 3165.570C40.380 3165.825 40.279 3166.069 40.099 3166.249C39.919 3166.429 39.675 3166.530 39.420 3166.530C39.165 3166.530 38.921 3166.429 38.741 3166.249C38.561 3166.069 38.460 3165.825 38.460 3165.570C38.460 3165.315 38.561 3165.071 38.741 3164.891C38.921 3164.711 39.165 3164.610 39.420 3164.610C39.675 3164.610 39.919 3164.711 40.099 3164.891C40.279 3165.071 40.380 3165.315 40.380 3165.570Z" />
<path fill="none" stroke="#000000" stroke-width="0.600" d="M39.420 3165.570h0.001" />
<path fill="none" stroke="#000000" stroke-width="0.420" d="M1.020 3397.160L5.820 3397.160" />
<path fill="none" stroke="#000000" stroke-width="0.420" d="M3.420 3394.760L3.420 3399.560" />
<path fill="#ffffff" stroke="none" d="M4.380 3397.160C4.380 3397.415 4.279 3397.659 4.099 3397.839C3.919 3398.019 3.675 3398.120 3.420 3398.120C3.165 3398.120 2.921 3398.019 2.741 3397.839C2.561 3397.659 2.460 3397.415 2.460 3397.160C2.460 3396.905 2.561 3396.661 2.741 3396.481C2.921 3396.301 3.165 3396.200 3.420 3396.200C3.675 3396.200 3.919 3396.301 4.099 3396.481C4.279 3396.661 4.380 3396.905 4.380 3397.160Z" />
<path fill="none" stroke="#000000" stroke-width="0.600" d="M3.420 3397.160h0.001" />
<path fill="none" stroke="#000000" stroke-width="0.420" d="M67.630 3344.010L72.430 3344.010" />
<path fill="none" stroke="#000000" stroke-width="0.420" d="M70.030 3341.610L70.030 3346.410" />
<path fill="#ffffff" stroke="none" d="M70.990 3344.010C70.990 3344.265 70.889 3344.509 70.709 3344.689C70.529 3344.869 70.285 3344.970 70.030 3344.970C69.775 3344.970 69.531 3344.869 69.351 3344.689C69.171 3344.509 69.070 3344.265 69.070 3344.010C69.070 3343.755 69.171 3343.511 69.351 3343.331C69.531 3343.151 69.775 3343.050 70.030 3343.050C70.285 3343.050 70.529 3343.151 70.709 3343.331C70.889 3343.511 70.990 3343.755 70.990 3344.010Z" />
<path fill="none" stroke="#000000" stroke-width="0.600" d="M70.030 3344.010h0.001" />
</g>
<g id="X_aaaaaaa_wind_cave.svg">
</g>
<clipPath id="clip_viewBox">
<path d="M-31.764 -3425.504L4080.929 -3425.504L4080.929 31.189L-31.764 31.189z" />
</clipPath>
</defs>
<g transform="scale(1,-1)" fill="#000000" stroke="#000000" stroke-linecap="round" stroke-linejoin="round" stroke-miterlimit="10" fill-rule="evenodd" clip-rule="evenodd" clip-path="url(#clip_viewBox)">
<use x="-3.417" y="-3397.157" xlink:href="#E_aaaaaaa_wind_cave.svg" />
</g>
</svg>
