0
SECTION
2
HEADER
9
$ACADVER
1
AC1002
9
$INSUNITS
70
4
0
ENDSEC
0
SECTION
2
TABLES
0
TABLE
2
LTYPE
70
1
0
LTYPE
2
DASH
70
0
3
---
72
65
73
2
40
0.6
49
0.3
49
-0.3
0
ENDTAB
0
ENDSEC
0
SECTION
2
ENTITIES
0
POLYLINE
66
1
8
Sketch
62
0
0
VERTEX
8
Sketch
10
700.55
20
-44.23
0
VERTEX
8
Sketch
10
701
20
-44.83
0
VERTEX
8
Sketch
10
701
20
-45.13
0
VERTEX
8
Sketch
10
701.15
20
-45.43
0
SEQEND
0
POLYLINE
66
1
8
Sketch
62
0
0
VERTEX
8
Sketch
10
702.35
20
-37.48
0
VERTEX
8
Sketch
10
703.4
20
-38.68
0
VERTEX
8
Sketch
10
703.55
20
-39.13
0
SEQEND
0
POLYLINE
66
1
8
Sketch
62
0
0
VERTEX
8
Sketch
10
697.85
20
-33.13
0
VERTEX
8
Sketch
10
698.15
20
-33.43
0
VERTEX
8
Sketch
10
699.05
20
-35.38
0
SEQEND
0
POLYLINE
66
1
8
Sketch
62
0
0
VERTEX
8
Sketch
10
697.7
20
-40.93
0
VERTEX
8
Sketch
10
698.9
20
-41.98
0
VERTEX
8
Sketch
10
699.05
20
-42.43
0
VERTEX
8
Sketch
10
699.35
20
-42.73
0
SEQEND
0
POLYLINE
66
1
8
Sketch
62
0
0
VERTEX
8
Sketch
10
678.5
20
-23.68
0
VERTEX
8
Sketch
10
678.65
20
-23.98
0
VERTEX
8
Sketch
10
679.55
20
-24.58
0
VERTEX
8
Sketch
10
680
20
-24.73
0
VERTEX
8
Sketch
10
681.05
20
-26.08
0
VERTEX
8
Sketch
10
682.25
20
-26.83
0
VERTEX
8
Sketch
10
682.7
20
-27.43
0
VERTEX
8
Sketch
10
686.75
20
-30.58
0
VERTEX
8
Sketch
10
688.55
20
-31.78
0
VERTEX
8
Sketch
10
688.85
20
-31.78
0
VERTEX
8
Sketch
10
689
20
-32.08
0
VERTEX
8
Sketch
10
689.6
20
-32.53
0
VERTEX
8
Sketch
10
689.9
20
-32.53
0
VERTEX
8
Sketch
10
692.3
20
-33.73
0
VERTEX
8
Sketch
10
692.9
20
-34.33
0
VERTEX
8
Sketch
10
693.2
20
-34.33
0
VERTEX
8
Sketch
10
693.35
20
-34.63
0
VERTEX
8
Sketch
10
695.15
20
-35.83
0
VERTEX
8
Sketch
10
696.5
20
-37.33
0
SEQEND
0
POLYLINE
66
1
8
Sketch
62
0
0
VERTEX
8
Sketch
10
679.7
20
-20.83
0
VERTEX
8
Sketch
10
681.8
20
-22.48
0
VERTEX
8
Sketch
10
684.05
20
-23.98
0
VERTEX
8
Sketch
10
684.35
20
-23.98
0
VERTEX
8
Sketch
10
685.25
20
-24.73
0
VERTEX
8
Sketch
10
686
20
-25.03
0
VERTEX
8
Sketch
10
687.35
20
-26.08
0
VERTEX
8
Sketch
10
689
20
-26.98
0
VERTEX
8
Sketch
10
689.3
20
-26.98
0
VERTEX
8
Sketch
10
691.1
20
-28.33
0
VERTEX
8
Sketch
10
691.55
20
-28.48
0
VERTEX
8
Sketch
10
692.45
20
-29.23
0
VERTEX
8
Sketch
10
693.95
20
-30.28
0
VERTEX
8
Sketch
10
694.85
20
-31.03
0
VERTEX
8
Sketch
10
695.75
20
-31.48
0
SEQEND
0
POLYLINE
66
1
8
Sketch
62
0
0
VERTEX
8
Sketch
10
678.99
20
-20.89
0
VERTEX
8
Sketch
10
679.15
20
-20.93
0
VERTEX
8
Sketch
10
679.27
20
-20.93
0
VERTEX
8
Sketch
10
679.51
20
-21.05
0
VERTEX
8
Sketch
10
679.67
20
-21.09
0
VERTEX
8
Sketch
10
679.75
20
-21.13
0
SEQEND
0
POLYLINE
66
1
8
Sketch
62
0
0
VERTEX
8
Sketch
10
673.51
20
-23.21
0
VERTEX
8
Sketch
10
673.51
20
-23.29
0
VERTEX
8
Sketch
10
673.71
20
-23.25
0
VERTEX
8
Sketch
10
674.91
20
-23.45
0
VERTEX
8
Sketch
10
675.27
20
-23.45
0
VERTEX
8
Sketch
10
675.87
20
-23.53
0
VERTEX
8
Sketch
10
676.23
20
-23.61
0
VERTEX
8
Sketch
10
676.67
20
-23.65
0
VERTEX
8
Sketch
10
676.79
20
-23.69
0
VERTEX
8
Sketch
10
676.87
20
-23.65
0
VERTEX
8
Sketch
10
677.27
20
-23.73
0
VERTEX
8
Sketch
10
677.55
20
-23.69
0
VERTEX
8
Sketch
10
677.91
20
-23.77
0
VERTEX
8
Sketch
10
678.03
20
-23.73
0
VERTEX
8
Sketch
10
678.19
20
-23.81
0
VERTEX
8
Sketch
10
678.35
20
-23.77
0
VERTEX
8
Sketch
10
678.59
20
-23.85
0
VERTEX
8
Sketch
10
678.87
20
-23.85
0
VERTEX
8
Sketch
10
678.95
20
-23.89
0
VERTEX
8
Sketch
10
679.03
20
-23.85
0
VERTEX
8
Sketch
10
679.19
20
-23.89
0
VERTEX
8
Sketch
10
679.35
20
-23.85
0
VERTEX
8
Sketch
10
679.43
20
-23.89
0
VERTEX
8
Sketch
10
679.51
20
-23.85
0
SEQEND
0
POLYLINE
66
1
8
Sketch
62
0
0
VERTEX
8
Sketch
10
674.11
20
-20.29
0
VERTEX
8
Sketch
10
674.19
20
-20.37
0
VERTEX
8
Sketch
10
674.35
20
-20.37
0
VERTEX
8
Sketch
10
674.99
20
-20.65
0
VERTEX
8
Sketch
10
675.11
20
-20.65
0
VERTEX
8
Sketch
10
675.51
20
-20.77
0
VERTEX
8
Sketch
10
675.71
20
-20.89
0
VERTEX
8
Sketch
10
676.03
20
-20.89
0
VERTEX
8
Sketch
10
676.11
20
-20.93
0
VERTEX
8
Sketch
10
676.39
20
-20.85
0
VERTEX
8
Sketch
10
676.75
20
-20.89
0
VERTEX
8
Sketch
10
677.27
20
-20.89
0
VERTEX
8
Sketch
10
677.55
20
-20.81
0
VERTEX
8
Sketch
10
677.71
20
-20.85
0
VERTEX
8
Sketch
10
677.91
20
-20.85
0
VERTEX
8
Sketch
10
678.07
20
-20.81
0
VERTEX
8
Sketch
10
678.43
20
-20.85
0
VERTEX
8
Sketch
10
678.59
20
-20.89
0
VERTEX
8
Sketch
10
678.67
20
-20.85
0
VERTEX
8
Sketch
10
678.83
20
-20.89
0
VERTEX
8
Sketch
10
679.03
20
-20.89
0
VERTEX
8
Sketch
10
679.27
20
-21.01
0
VERTEX
8
Sketch
10
679.35
20
-21.01
0
SEQEND
0
POLYLINE
66
1
8
Sketch
62
0
0
VERTEX
8
Sketch
10
668.32
20
-19.67
0
VERTEX
8
Sketch
10
668.41
20
-19.67
0
VERTEX
8
Sketch
10
668.53
20
-19.7
0
VERTEX
8
Sketch
10
668.68
20
-19.73
0
VERTEX
8
Sketch
10
668.77
20
-19.76
0
VERTEX
8
Sketch
10
668.95
20
-19.76
0
VERTEX
8
Sketch
10
669.13
20
-19.82
0
VERTEX
8
Sketch
10
669.25
20
-19.82
0
VERTEX
8
Sketch
10
669.31
20
-19.85
0
VERTEX
8
Sketch
10
669.7
20
-19.88
0
VERTEX
8
Sketch
10
669.82
20
-19.91
0
VERTEX
8
Sketch
10
669.91
20
-19.91
0
VERTEX
8
Sketch
10
670.06
20
-19.97
0
VERTEX
8
Sketch
10
670.57
20
-19.97
0
VERTEX
8
Sketch
10
670.69
20
-19.94
0
VERTEX
8
Sketch
10
670.78
20
-19.97
0
VERTEX
8
Sketch
10
670.99
20
-19.97
0
VERTEX
8
Sketch
10
671.05
20
-20
0
VERTEX
8
Sketch
10
671.29
20
-20
0
VERTEX
8
Sketch
10
671.5
20
-20.06
0
VERTEX
8
Sketch
10
671.8
20
-20.09
0
VERTEX
8
Sketch
10
671.89
20
-20.12
0
VERTEX
8
Sketch
10
672.1
20
-20.12
0
VERTEX
8
Sketch
10
672.19
20
-20.15
0
VERTEX
8
Sketch
10
672.37
20
-20.15
0
VERTEX
8
Sketch
10
672.49
20
-20.18
0
VERTEX
8
Sketch
10
672.67
20
-20.15
0
VERTEX
8
Sketch
10
672.85
20
-20.15
0
VERTEX
8
Sketch
10
673
20
-20.18
0
VERTEX
8
Sketch
10
673.42
20
-20.24
0
VERTEX
8
Sketch
10
673.48
20
-20.27
0
VERTEX
8
Sketch
10
673.6
20
-20.24
0
VERTEX
8
Sketch
10
673.75
20
-20.24
0
VERTEX
8
Sketch
10
673.87
20
-20.27
0
VERTEX
8
Sketch
10
673.93
20
-20.27
0
VERTEX
8
Sketch
10
673.99
20
-20.3
0
SEQEND
0
POLYLINE
66
1
8
Sketch
62
0
0
VERTEX
8
Sketch
10
668.44
20
-22.91
0
VERTEX
8
Sketch
10
668.62
20
-22.97
0
VERTEX
8
Sketch
10
668.92
20
-22.94
0
VERTEX
8
Sketch
10
668.98
20
-22.94
0
VERTEX
8
Sketch
10
669.04
20
-22.91
0
VERTEX
8
Sketch
10
669.16
20
-22.94
0
VERTEX
8
Sketch
10
669.22
20
-22.91
0
VERTEX
8
Sketch
10
669.73
20
-22.91
0
VERTEX
8
Sketch
10
670.06
20
-22.94
0
VERTEX
8
Sketch
10
670.9
20
-22.94
0
VERTEX
8
Sketch
10
671.26
20
-22.97
0
VERTEX
8
Sketch
10
671.35
20
-22.97
0
VERTEX
8
Sketch
10
671.41
20
-23
0
VERTEX
8
Sketch
10
671.65
20
-23
0
VERTEX
8
Sketch
10
672.13
20
-23.09
0
VERTEX
8
Sketch
10
672.28
20
-23.09
0
VERTEX
8
Sketch
10
672.64
20
-23.18
0
VERTEX
8
Sketch
10
672.73
20
-23.18
0
VERTEX
8
Sketch
10
672.88
20
-23.21
0
VERTEX
8
Sketch
10
673.15
20
-23.21
0
VERTEX
8
Sketch
10
673.45
20
-23.3
0
VERTEX
8
Sketch
10
673.57
20
-23.3
0
VERTEX
8
Sketch
10
673.63
20
-23.33
0
SEQEND
0
POLYLINE
66
1
8
Sketch
62
0
0
VERTEX
8
Sketch
10
667.66
20
-22.64
0
VERTEX
8
Sketch
10
667.72
20
-22.67
0
VERTEX
8
Sketch
10
668.05
20
-22.67
0
SEQEND
0
POLYLINE
66
1
8
Sketch
62
0
0
VERTEX
8
Sketch
10
667.69
20
-22.43
0
VERTEX
8
Sketch
10
667.9
20
-22.43
0
VERTEX
8
Sketch
10
668.02
20
-22.46
0
SEQEND
0
POINT
8
Sketch
62
0
10
668.11
20
-22.61
0
POINT
8
Sketch
62
0
10
667.69
20
-22.61
0
POLYLINE
66
1
8
Sketch
62
0
0
VERTEX
8
Sketch
10
666.7
20
-22.46
0
VERTEX
8
Sketch
10
666.79
20
-22.46
0
VERTEX
8
Sketch
10
667
20
-22.55
0
VERTEX
8
Sketch
10
667.06
20
-22.55
0
SEQEND
0
POLYLINE
66
1
8
Sketch
62
0
0
VERTEX
8
Sketch
10
666.55
20
-22.67
0
VERTEX
8
Sketch
10
666.79
20
-22.76
0
VERTEX
8
Sketch
10
666.97
20
-22.82
0
SEQEND
0
POLYLINE
66
1
8
Sketch
62
0
0
VERTEX
8
Sketch
10
662.17
20
-19.88
0
VERTEX
8
Sketch
10
662.44
20
-19.82
0
VERTEX
8
Sketch
10
662.77
20
-19.67
0
VERTEX
8
Sketch
10
662.83
20
-19.67
0
VERTEX
8
Sketch
10
662.98
20
-19.58
0
VERTEX
8
Sketch
10
663.13
20
-19.58
0
VERTEX
8
Sketch
10
663.67
20
-19.43
0
VERTEX
8
Sketch
10
663.85
20
-19.43
0
VERTEX
8
Sketch
10
663.91
20
-19.4
0
VERTEX
8
Sketch
10
664.06
20
-19.4
0
VERTEX
8
Sketch
10
664.12
20
-19.37
0
VERTEX
8
Sketch
10
664.24
20
-19.4
0
VERTEX
8
Sketch
10
664.3
20
-19.4
0
VERTEX
8
Sketch
10
664.42
20
-19.43
0
VERTEX
8
Sketch
10
664.57
20
-19.43
0
VERTEX
8
Sketch
10
664.69
20
-19.49
0
VERTEX
8
Sketch
10
664.9
20
-19.49
0
VERTEX
8
Sketch
10
664.96
20
-19.52
0
VERTEX
8
Sketch
10
665.2
20
-19.52
0
VERTEX
8
Sketch
10
665.26
20
-19.55
0
VERTEX
8
Sketch
10
665.32
20
-19.52
0
VERTEX
8
Sketch
10
665.44
20
-19.55
0
VERTEX
8
Sketch
10
665.5
20
-19.55
0
VERTEX
8
Sketch
10
665.65
20
-19.61
0
VERTEX
8
Sketch
10
665.83
20
-19.61
0
VERTEX
8
Sketch
10
665.92
20
-19.64
0
VERTEX
8
Sketch
10
666.1
20
-19.61
0
VERTEX
8
Sketch
10
666.25
20
-19.64
0
VERTEX
8
Sketch
10
666.37
20
-19.61
0
VERTEX
8
Sketch
10
666.64
20
-19.67
0
VERTEX
8
Sketch
10
666.79
20
-19.64
0
VERTEX
8
Sketch
10
666.85
20
-19.67
0
VERTEX
8
Sketch
10
667.21
20
-19.64
0
VERTEX
8
Sketch
10
667.36
20
-19.61
0
VERTEX
8
Sketch
10
667.54
20
-19.61
0
VERTEX
8
Sketch
10
667.6
20
-19.64
0
VERTEX
8
Sketch
10
667.69
20
-19.64
0
VERTEX
8
Sketch
10
667.84
20
-19.61
0
VERTEX
8
Sketch
10
668.14
20
-19.61
0
VERTEX
8
Sketch
10
668.26
20
-19.64
0
VERTEX
8
Sketch
10
668.32
20
-19.64
0
VERTEX
8
Sketch
10
668.38
20
-19.61
0
VERTEX
8
Sketch
10
668.44
20
-19.64
0
VERTEX
8
Sketch
10
668.65
20
-19.64
0
VERTEX
8
Sketch
10
668.83
20
-19.7
0
SEQEND
0
POINT
8
Sketch
62
0
10
666.07
20
-18.83
0
POLYLINE
66
1
8
Sketch
62
0
0
VERTEX
8
Sketch
10
667.24
20
-22.91
0
VERTEX
8
Sketch
10
667.39
20
-22.91
0
VERTEX
8
Sketch
10
667.66
20
-22.97
0
VERTEX
8
Sketch
10
667.78
20
-22.94
0
VERTEX
8
Sketch
10
667.93
20
-22.97
0
VERTEX
8
Sketch
10
668.2
20
-22.97
0
VERTEX
8
Sketch
10
668.35
20
-22.94
0
VERTEX
8
Sketch
10
668.47
20
-22.97
0
VERTEX
8
Sketch
10
668.59
20
-22.97
0
SEQEND
0
POLYLINE
66
1
8
Sketch
62
0
0
VERTEX
8
Sketch
10
655.7
20
-23.6
0
VERTEX
8
Sketch
10
656.4
20
-23.4
0
VERTEX
8
Sketch
10
657.2
20
-22.8
0
VERTEX
8
Sketch
10
658.1
20
-22.5
0
VERTEX
8
Sketch
10
658.7
20
-21.9
0
VERTEX
8
Sketch
10
659.7
20
-21.3
0
VERTEX
8
Sketch
10
660.4
20
-20.8
0
VERTEX
8
Sketch
10
660.8
20
-20.7
0
VERTEX
8
Sketch
10
661.4
20
-20.3
0
VERTEX
8
Sketch
10
661.7
20
-20.3
0
VERTEX
8
Sketch
10
662.3
20
-19.9
0
VERTEX
8
Sketch
10
662.5
20
-19.9
0
VERTEX
8
Sketch
10
663.1
20
-19.4
0
VERTEX
8
Sketch
10
664.3
20
-19.2
0
VERTEX
8
Sketch
10
664.8
20
-19.2
0
VERTEX
8
Sketch
10
665.2
20
-19
0
VERTEX
8
Sketch
10
665.6
20
-19.1
0
VERTEX
8
Sketch
10
666
20
-19
0
VERTEX
8
Sketch
10
666.2
20
-19.1
0
SEQEND
0
POLYLINE
66
1
8
Sketch
62
0
0
VERTEX
8
Sketch
10
662.1
20
-25.7
0
VERTEX
8
Sketch
10
663.1
20
-24.8
0
VERTEX
8
Sketch
10
663.2
20
-24.5
0
VERTEX
8
Sketch
10
663.7
20
-24.3
0
VERTEX
8
Sketch
10
664.1
20
-23.9
0
VERTEX
8
Sketch
10
664.3
20
-23.9
0
VERTEX
8
Sketch
10
664.9
20
-23.4
0
VERTEX
8
Sketch
10
666.2
20
-23.1
0
VERTEX
8
Sketch
10
666.7
20
-23
0
VERTEX
8
Sketch
10
667.4
20
-22.9
0
SEQEND
0
POINT
8
Sketch
62
0
10
629.6
20
-7.8
0
POLYLINE
66
1
8
Sketch
62
0
0
VERTEX
8
Sketch
10
637.6
20
-40.5
0
VERTEX
8
Sketch
10
641.1
20
-51.3
0
SEQEND
0
POLYLINE
66
1
8
Sketch
62
0
0
VERTEX
8
Sketch
10
657.5
20
-31.9
0
VERTEX
8
Sketch
10
657.4
20
-31.7
0
VERTEX
8
Sketch
10
657.7
20
-31.2
0
VERTEX
8
Sketch
10
658.7
20
-29.8
0
VERTEX
8
Sketch
10
659.1
20
-29.6
0
VERTEX
8
Sketch
10
660.5
20
-27.3
0
VERTEX
8
Sketch
10
660.9
20
-26.9
0
VERTEX
8
Sketch
10
661.1
20
-26.4
0
VERTEX
8
Sketch
10
661.3
20
-26.4
0
SEQEND
0
POLYLINE
66
1
8
Sketch
62
0
0
VERTEX
8
Sketch
10
644.6
20
-35.9
0
VERTEX
8
Sketch
10
648.5
20
-31.9
0
VERTEX
8
Sketch
10
649.8
20
-30.5
0
VERTEX
8
Sketch
10
650.6
20
-29.5
0
VERTEX
8
Sketch
10
651.9
20
-28.2
0
VERTEX
8
Sketch
10
653.7
20
-25.9
0
VERTEX
8
Sketch
10
655
20
-24.2
0
VERTEX
8
Sketch
10
655.7
20
-23.5
0
SEQEND
0
POLYLINE
66
1
8
Sketch
62
0
0
VERTEX
8
Sketch
10
654.3
20
-33.7
0
VERTEX
8
Sketch
10
654.7
20
-33.7
0
VERTEX
8
Sketch
10
655.4
20
-33.3
0
VERTEX
8
Sketch
10
656.4
20
-33.1
0
VERTEX
8
Sketch
10
656.9
20
-33
0
VERTEX
8
Sketch
10
657.5
20
-32.6
0
VERTEX
8
Sketch
10
658
20
-32.6
0
VERTEX
8
Sketch
10
658.2
20
-32.5
0
SEQEND
0
POLYLINE
66
1
8
Sketch
62
0
0
VERTEX
8
Sketch
10
657.2
20
-34.4
0
VERTEX
8
Sketch
10
656.9
20
-33.7
0
VERTEX
8
Sketch
10
657.6
20
-32.2
0
VERTEX
8
Sketch
10
658.4
20
-31.6
0
SEQEND
0
POLYLINE
66
1
8
Sketch
62
0
0
VERTEX
8
Sketch
10
657.1
20
-34.5
0
VERTEX
8
Sketch
10
657.1
20
-34.8
0
SEQEND
0
POLYLINE
66
1
8
Sketch
62
0
0
VERTEX
8
Sketch
10
657.7
20
-37.6
0
VERTEX
8
Sketch
10
657.7
20
-38.2
0
SEQEND
0
POLYLINE
66
1
8
Sketch
62
0
0
VERTEX
8
Sketch
10
657.7
20
-36.3
0
VERTEX
8
Sketch
10
657.7
20
-36.5
0
SEQEND
0
POINT
8
Sketch
62
0
10
655.5
20
-40.7
0
POINT
8
Sketch
62
0
10
655.4
20
-39
0
POLYLINE
66
1
8
Sketch
62
0
0
VERTEX
8
Sketch
10
655.2
20
-36.1
0
VERTEX
8
Sketch
10
655.1
20
-36.5
0
VERTEX
8
Sketch
10
655.2
20
-36.9
0
SEQEND
0
POLYLINE
66
1
8
Sketch
62
0
0
VERTEX
8
Sketch
10
647
20
-43.6
0
VERTEX
8
Sketch
10
647.8
20
-41.4
0
VERTEX
8
Sketch
10
648.5
20
-40.3
0
VERTEX
8
Sketch
10
648.8
20
-39.9
0
VERTEX
8
Sketch
10
650.3
20
-37.3
0
VERTEX
8
Sketch
10
650.8
20
-36.7
0
VERTEX
8
Sketch
10
652
20
-35
0
VERTEX
8
Sketch
10
652.1
20
-34.7
0
VERTEX
8
Sketch
10
653
20
-33.8
0
VERTEX
8
Sketch
10
653.2
20
-33.8
0
VERTEX
8
Sketch
10
653.3
20
-33.6
0
VERTEX
8
Sketch
10
653.7
20
-33.6
0
VERTEX
8
Sketch
10
654.1
20
-33.5
0
VERTEX
8
Sketch
10
654.5
20
-33.7
0
VERTEX
8
Sketch
10
654.9
20
-34.3
0
VERTEX
8
Sketch
10
655
20
-34.9
0
SEQEND
0
POLYLINE
66
1
8
Sketch
62
0
0
VERTEX
8
Sketch
10
646.7
20
-43.8
0
VERTEX
8
Sketch
10
647.5
20
-43.1
0
SEQEND
0
POLYLINE
66
1
8
Sketch
62
0
0
VERTEX
8
Sketch
10
642.2
20
-43
0
VERTEX
8
Sketch
10
643.1
20
-43.2
0
VERTEX
8
Sketch
10
643.9
20
-43.6
0
VERTEX
8
Sketch
10
644.4
20
-43.5
0
VERTEX
8
Sketch
10
644.8
20
-43.7
0
VERTEX
8
Sketch
10
645.1
20
-43.7
0
VERTEX
8
Sketch
10
645.5
20
-43.8
0
VERTEX
8
Sketch
10
646.6
20
-43.8
0
VERTEX
8
Sketch
10
647
20
-43.7
0
VERTEX
8
Sketch
10
647.2
20
-43.7
0
SEQEND
0
POLYLINE
66
1
8
Sketch
62
0
0
VERTEX
8
Sketch
10
633.3
20
-31.2
0
VERTEX
8
Sketch
10
636.1
20
-33.3
0
VERTEX
8
Sketch
10
637.4
20
-34.6
0
VERTEX
8
Sketch
10
638.8
20
-35.7
0
VERTEX
8
Sketch
10
639.4
20
-36.2
0
VERTEX
8
Sketch
10
640
20
-36.4
0
VERTEX
8
Sketch
10
640.4
20
-36.5
0
VERTEX
8
Sketch
10
640.8
20
-36.6
0
VERTEX
8
Sketch
10
641.7
20
-36.7
0
VERTEX
8
Sketch
10
642.1
20
-36.6
0
VERTEX
8
Sketch
10
642.9
20
-36.4
0
VERTEX
8
Sketch
10
644.1
20
-36.1
0
VERTEX
8
Sketch
10
644.9
20
-35.8
0
SEQEND
0
POLYLINE
66
1
8
Sketch
62
0
0
VERTEX
8
Sketch
10
609.3
20
-22.6
0
VERTEX
8
Sketch
10
609.7
20
-23
0
VERTEX
8
Sketch
10
610.4
20
-23.4
0
VERTEX
8
Sketch
10
613.4
20
-25.2
0
VERTEX
8
Sketch
10
614
20
-25.4
0
VERTEX
8
Sketch
10
614.2
20
-25.6
0
VERTEX
8
Sketch
10
615.3
20
-26.1
0
VERTEX
8
Sketch
10
617.9
20
-27.5
0
VERTEX
8
Sketch
10
619.5
20
-28.5
0
VERTEX
8
Sketch
10
620
20
-28.9
0
VERTEX
8
Sketch
10
620.7
20
-29.3
0
VERTEX
8
Sketch
10
621.5
20
-30
0
VERTEX
8
Sketch
10
623.9
20
-31.3
0
VERTEX
8
Sketch
10
624.9
20
-31.8
0
VERTEX
8
Sketch
10
626.4
20
-33.1
0
VERTEX
8
Sketch
10
627.1
20
-33.5
0
VERTEX
8
Sketch
10
630.1
20
-36.4
0
VERTEX
8
Sketch
10
630.5
20
-36.5
0
VERTEX
8
Sketch
10
632
20
-37.2
0
VERTEX
8
Sketch
10
633.3
20
-38.1
0
VERTEX
8
Sketch
10
634
20
-38.5
0
VERTEX
8
Sketch
10
635.1
20
-39.4
0
VERTEX
8
Sketch
10
635.8
20
-39.7
0
VERTEX
8
Sketch
10
637.5
20
-41.1
0
VERTEX
8
Sketch
10
638.4
20
-41.8
0
VERTEX
8
Sketch
10
638.8
20
-41.9
0
VERTEX
8
Sketch
10
640.3
20
-42.4
0
VERTEX
8
Sketch
10
640.8
20
-42.5
0
VERTEX
8
Sketch
10
641.6
20
-42.8
0
VERTEX
8
Sketch
10
642
20
-42.7
0
VERTEX
8
Sketch
10
642.6
20
-42.8
0
VERTEX
8
Sketch
10
642.8
20
-42.7
0
SEQEND
0
POLYLINE
66
1
8
Sketch
62
0
0
VERTEX
8
Sketch
10
611.8
20
-14.6
0
VERTEX
8
Sketch
10
613.3
20
-15.6
0
VERTEX
8
Sketch
10
615.4
20
-17
0
VERTEX
8
Sketch
10
616.4
20
-17.5
0
VERTEX
8
Sketch
10
617.8
20
-18.6
0
VERTEX
8
Sketch
10
618.8
20
-19.2
0
VERTEX
8
Sketch
10
619
20
-19.2
0
VERTEX
8
Sketch
10
621
20
-20.3
0
VERTEX
8
Sketch
10
621.8
20
-20.8
0
VERTEX
8
Sketch
10
622.3
20
-21.1
0
VERTEX
8
Sketch
10
623.6
20
-22.2
0
VERTEX
8
Sketch
10
625.2
20
-23.7
0
VERTEX
8
Sketch
10
625.5
20
-24.2
0
VERTEX
8
Sketch
10
627.6
20
-26.4
0
VERTEX
8
Sketch
10
629.2
20
-28
0
VERTEX
8
Sketch
10
630.2
20
-28.7
0
VERTEX
8
Sketch
10
632.3
20
-30.7
0
VERTEX
8
Sketch
10
633.6
20
-31.7
0
SEQEND
0
POLYLINE
66
1
8
Sketch
62
0
0
VERTEX
8
Sketch
10
606
20
-16.2
0
VERTEX
8
Sketch
10
606.9
20
-16.2
0
VERTEX
8
Sketch
10
607.3
20
-16.1
0
VERTEX
8
Sketch
10
608.2
20
-15.9
0
VERTEX
8
Sketch
10
609.4
20
-15.4
0
VERTEX
8
Sketch
10
609.7
20
-15.4
0
VERTEX
8
Sketch
10
611.2
20
-14.8
0
VERTEX
8
Sketch
10
611.4
20
-14.8
0
VERTEX
8
Sketch
10
611.7
20
-14.5
0
SEQEND
0
POLYLINE
66
1
8
Sketch
62
0
0
VERTEX
8
Sketch
10
599.6
20
-18.2
0
VERTEX
8
Sketch
10
601.6
20
-19.2
0
VERTEX
8
Sketch
10
602.9
20
-20
0
VERTEX
8
Sketch
10
603.1
20
-20
0
VERTEX
8
Sketch
10
604.3
20
-20.7
0
VERTEX
8
Sketch
10
605.4
20
-21.3
0
VERTEX
8
Sketch
10
605.7
20
-21.3
0
VERTEX
8
Sketch
10
606.9
20
-21.9
0
VERTEX
8
Sketch
10
607.3
20
-22
0
VERTEX
8
Sketch
10
607.9
20
-22.4
0
VERTEX
8
Sketch
10
608.8
20
-22.5
0
VERTEX
8
Sketch
10
609.3
20
-22.8
0
VERTEX
8
Sketch
10
609.7
20
-22.9
0
VERTEX
8
Sketch
10
609.9
20
-23.1
0
VERTEX
8
Sketch
10
610.3
20
-23.1
0
SEQEND
0
POLYLINE
66
1
8
Sketch
62
0
0
VERTEX
8
Sketch
10
586.9
20
-15.2
0
VERTEX
8
Sketch
10
588.7
20
-15.8
0
VERTEX
8
Sketch
10
592.1
20
-16.6
0
VERTEX
8
Sketch
10
593.5
20
-16.7
0
VERTEX
8
Sketch
10
594.9
20
-16.8
0
VERTEX
8
Sketch
10
595.4
20
-16.9
0
VERTEX
8
Sketch
10
595.6
20
-16.8
0
VERTEX
8
Sketch
10
596.2
20
-17
0
VERTEX
8
Sketch
10
596.6
20
-17
0
VERTEX
8
Sketch
10
597
20
-17.2
0
VERTEX
8
Sketch
10
597.4
20
-17.1
0
VERTEX
8
Sketch
10
598
20
-17.4
0
VERTEX
8
Sketch
10
598.8
20
-17.5
0
VERTEX
8
Sketch
10
599
20
-17.7
0
VERTEX
8
Sketch
10
599.4
20
-17.8
0
VERTEX
8
Sketch
10
599.8
20
-18
0
SEQEND
0
POLYLINE
66
1
8
Sketch
62
0
0
VERTEX
8
Sketch
10
576.9
20
-4.4
0
VERTEX
8
Sketch
10
577.7
20
-5.9
0
VERTEX
8
Sketch
10
578.4
20
-7.4
0
VERTEX
8
Sketch
10
580
20
-10.7
0
VERTEX
8
Sketch
10
580.7
20
-11.5
0
VERTEX
8
Sketch
10
581
20
-11.5
0
VERTEX
8
Sketch
10
581.9
20
-12
0
VERTEX
8
Sketch
10
584.6
20
-14.2
0
VERTEX
8
Sketch
10
585.3
20
-14.7
0
VERTEX
8
Sketch
10
585.7
20
-14.8
0
VERTEX
8
Sketch
10
586.8
20
-15.2
0
VERTEX
8
Sketch
10
587.4
20
-15.2
0
SEQEND
0
POLYLINE
66
1
8
Sketch
62
0
0
VERTEX
8
Sketch
10
544.1
20
18.3
0
VERTEX
8
Sketch
10
544.5
20
18.2
0
VERTEX
8
Sketch
10
546.7
20
17
0
VERTEX
8
Sketch
10
547.5
20
16.5
0
VERTEX
8
Sketch
10
548.4
20
15.8
0
VERTEX
8
Sketch
10
550.7
20
13.8
0
VERTEX
8
Sketch
10
554.1
20
10.3
0
VERTEX
8
Sketch
10
555.2
20
8.9
0
VERTEX
8
Sketch
10
556.2
20
8
0
VERTEX
8
Sketch
10
557.6
20
7.1
0
VERTEX
8
Sketch
10
560.2
20
4.9
0
VERTEX
8
Sketch
10
561.1
20
4.2
0
VERTEX
8
Sketch
10
561.4
20
4.1
0
VERTEX
8
Sketch
10
561.6
20
3.8
0
VERTEX
8
Sketch
10
562.1
20
3.6
0
VERTEX
8
Sketch
10
563
20
2.9
0
VERTEX
8
Sketch
10
563.5
20
2.7
0
VERTEX
8
Sketch
10
563.7
20
2.5
0
VERTEX
8
Sketch
10
566
20
1.5
0
VERTEX
8
Sketch
10
566.4
20
1.2
0
VERTEX
8
Sketch
10
567.2
20
0.9
0
VERTEX
8
Sketch
10
569
20
-0.2
0
VERTEX
8
Sketch
10
569.8
20
-0.7
0
VERTEX
8
Sketch
10
570.1
20
-0.8
0
VERTEX
8
Sketch
10
570.8
20
-1.3
0
VERTEX
8
Sketch
10
573.2
20
-2.7
0
VERTEX
8
Sketch
10
573.7
20
-3.1
0
VERTEX
8
Sketch
10
574.6
20
-3.6
0
VERTEX
8
Sketch
10
576.3
20
-4.6
0
VERTEX
8
Sketch
10
577.2
20
-4.9
0
SEQEND
0
POLYLINE
66
1
8
Sketch
62
32
0
VERTEX
8
Sketch
10
544.4
20
28.2
0
VERTEX
8
Sketch
10
546.4
20
25.4
0
VERTEX
8
Sketch
10
551.2
20
17.4
0
VERTEX
8
Sketch
10
557.6
20
11.4
0
VERTEX
8
Sketch
10
559.2
20
11
0
VERTEX
8
Sketch
10
564.4
20
7.4
0
VERTEX
8
Sketch
10
566.8
20
5.8
0
VERTEX
8
Sketch
10
567.6
20
5.8
0
VERTEX
8
Sketch
10
569.2
20
4.2
0
VERTEX
8
Sketch
10
570
20
4.2
0
VERTEX
8
Sketch
10
570.8
20
3.4
0
VERTEX
8
Sketch
10
572.4
20
3
0
VERTEX
8
Sketch
10
576
20
1.4
0
VERTEX
8
Sketch
10
577.6
20
0.2
0
VERTEX
8
Sketch
10
579.2
20
-0.2
0
VERTEX
8
Sketch
10
584
20
-4.2
0
VERTEX
8
Sketch
10
586.4
20
-7
0
VERTEX
8
Sketch
10
587.2
20
-7
0
VERTEX
8
Sketch
10
589.6
20
-9.4
0
VERTEX
8
Sketch
10
590.4
20
-9.4
0
VERTEX
8
Sketch
10
592.8
20
-12.2
0
VERTEX
8
Sketch
10
593.6
20
-11.8
0
VERTEX
8
Sketch
10
595.2
20
-12.6
0
VERTEX
8
Sketch
10
595.6
20
-13.4
0
VERTEX
8
Sketch
10
597.2
20
-13.4
0
VERTEX
8
Sketch
10
598
20
-14.2
0
VERTEX
8
Sketch
10
599.6
20
-14.6
0
VERTEX
8
Sketch
10
600.4
20
-15
0
VERTEX
8
Sketch
10
601.2
20
-14.6
0
VERTEX
8
Sketch
10
602
20
-15.4
0
VERTEX
8
Sketch
10
603.6
20
-15.4
0
VERTEX
8
Sketch
10
605.2
20
-15.8
0
VERTEX
8
Sketch
10
606.8
20
-16.2
0
SEQEND
0
POINT
8
Sketch
62
0
10
515.2
20
81.4
0
POLYLINE
66
1
8
Sketch
62
0
0
VERTEX
8
Sketch
10
545.8
20
40.4
0
VERTEX
8
Sketch
10
545.8
20
42
0
SEQEND
0
POLYLINE
66
1
8
Sketch
62
0
0
VERTEX
8
Sketch
10
545.8
20
35.4
0
VERTEX
8
Sketch
10
545.6
20
36.2
0
SEQEND
0
POLYLINE
66
1
8
Sketch
62
0
0
VERTEX
8
Sketch
10
545.6
20
27.6
0
VERTEX
8
Sketch
10
545.6
20
28.2
0
VERTEX
8
Sketch
10
545.2
20
29.4
0
VERTEX
8
Sketch
10
545
20
31.6
0
VERTEX
8
Sketch
10
545.2
20
32.4
0
SEQEND
0
POLYLINE
66
1
8
Sketch
62
0
0
VERTEX
8
Sketch
10
536.4
20
42.8
0
VERTEX
8
Sketch
10
536.2
20
44.4
0
VERTEX
8
Sketch
10
536
20
47.2
0
VERTEX
8
Sketch
10
536
20
47.6
0
SEQEND
0
POLYLINE
66
1
8
Sketch
62
0
0
VERTEX
8
Sketch
10
536.2
20
37.8
0
VERTEX
8
Sketch
10
536
20
39.2
0
SEQEND
0
POLYLINE
66
1
8
Sketch
62
0
0
VERTEX
8
Sketch
10
520.4
20
14.4
0
VERTEX
8
Sketch
10
520.6
20
14
0
VERTEX
8
Sketch
10
520.6
20
14.4
0
VERTEX
8
Sketch
10
521
20
14.4
0
VERTEX
8
Sketch
10
521.8
20
15
0
VERTEX
8
Sketch
10
523.6
20
15.8
0
VERTEX
8
Sketch
10
525
20
18.4
0
VERTEX
8
Sketch
10
525.2
20
20
0
VERTEX
8
Sketch
10
525.6
20
22.2
0
VERTEX
8
Sketch
10
525.6
20
22.8
0
VERTEX
8
Sketch
10
526.6
20
25.2
0
VERTEX
8
Sketch
10
528
20
26.4
0
VERTEX
8
Sketch
10
528.6
20
26.4
0
VERTEX
8
Sketch
10
529.8
20
26.8
0
VERTEX
8
Sketch
10
530.2
20
27.2
0
VERTEX
8
Sketch
10
531
20
27.4
0
VERTEX
8
Sketch
10
531.8
20
28.2
0
VERTEX
8
Sketch
10
532.2
20
28.2
0
VERTEX
8
Sketch
10
535
20
31
0
VERTEX
8
Sketch
10
535.8
20
32.6
0
VERTEX
8
Sketch
10
535.8
20
33.4
0
SEQEND
0
POLYLINE
66
1
8
Sketch
62
0
0
VERTEX
8
Sketch
10
526.4
20
8.4
0
VERTEX
8
Sketch
10
527.8
20
9
0
VERTEX
8
Sketch
10
528
20
9.6
0
VERTEX
8
Sketch
10
528.4
20
9.6
0
VERTEX
8
Sketch
10
529.2
20
10.2
0
VERTEX
8
Sketch
10
530.6
20
11
0
VERTEX
8
Sketch
10
534.8
20
13.8
0
VERTEX
8
Sketch
10
536
20
14.6
0
VERTEX
8
Sketch
10
536.4
20
14.6
0
VERTEX
8
Sketch
10
537.6
20
15.6
0
VERTEX
8
Sketch
10
539.4
20
16.6
0
VERTEX
8
Sketch
10
541
20
17.6
0
VERTEX
8
Sketch
10
541.8
20
17.6
0
VERTEX
8
Sketch
10
542.6
20
18.2
0
VERTEX
8
Sketch
10
543.2
20
18.2
0
VERTEX
8
Sketch
10
544
20
18.4
0
SEQEND
0
POINT
8
Sketch
62
0
10
512.8
20
15
0
POLYLINE
66
1
8
Sketch
62
0
0
VERTEX
8
Sketch
10
521.2
20
5.6
0
VERTEX
8
Sketch
10
522
20
6.4
0
VERTEX
8
Sketch
10
525
20
7.8
0
VERTEX
8
Sketch
10
526.2
20
8.6
0
VERTEX
8
Sketch
10
526.4
20
9
0
VERTEX
8
Sketch
10
526.8
20
9
0
SEQEND
0
POLYLINE
66
1
8
Sketch
62
0
0
VERTEX
8
Sketch
10
515
20
1.6
0
VERTEX
8
Sketch
10
515.8
20
2.2
0
VERTEX
8
Sketch
10
516.8
20
2.6
0
VERTEX
8
Sketch
10
518
20
3.6
0
VERTEX
8
Sketch
10
519.6
20
4.8
0
VERTEX
8
Sketch
10
521.2
20
6.6
0
VERTEX
8
Sketch
10
521.4
20
6.2
0
SEQEND
0
POINT
8
Sketch
62
0
10
516.2
20
2.4
0
POINT
8
Sketch
62
0
10
515.6
20
2.6
0
POINT
8
Sketch
62
0
10
516
20
2.2
0
POLYLINE
66
1
8
Sketch
62
0
0
VERTEX
8
Sketch
10
508
20
4.2
0
VERTEX
8
Sketch
10
508.4
20
3.8
0
VERTEX
8
Sketch
10
509.2
20
3.6
0
VERTEX
8
Sketch
10
511
20
2.8
0
VERTEX
8
Sketch
10
511.8
20
2.6
0
VERTEX
8
Sketch
10
513.8
20
1.4
0
VERTEX
8
Sketch
10
514.2
20
1.4
0
VERTEX
8
Sketch
10
514.8
20
1
0
SEQEND
0
POLYLINE
66
1
8
Sketch
62
0
0
VERTEX
8
Sketch
10
495.8
20
8.2
0
VERTEX
8
Sketch
10
497.2
20
7.8
0
VERTEX
8
Sketch
10
498.4
20
7.8
0
VERTEX
8
Sketch
10
499.2
20
7.6
0
VERTEX
8
Sketch
10
500
20
7.4
0
VERTEX
8
Sketch
10
500.8
20
7.6
0
VERTEX
8
Sketch
10
501.6
20
7.2
0
VERTEX
8
Sketch
10
502.4
20
7.4
0
VERTEX
8
Sketch
10
503.2
20
7.2
0
VERTEX
8
Sketch
10
504.8
20
6.8
0
VERTEX
8
Sketch
10
507
20
5
0
SEQEND
0
POLYLINE
66
1
8
Sketch
62
0
0
VERTEX
8
Sketch
10
490.8
20
8
0
VERTEX
8
Sketch
10
492
20
8
0
VERTEX
8
Sketch
10
492.8
20
8.2
0
VERTEX
8
Sketch
10
495.4
20
8.2
0
VERTEX
8
Sketch
10
496.2
20
7.6
0
SEQEND
0
POLYLINE
66
1
8
Sketch
62
0
0
VERTEX
8
Sketch
10
492.4
20
22.2
0
VERTEX
8
Sketch
10
492.6
20
21.8
0
VERTEX
8
Sketch
10
493.2
20
22
0
VERTEX
8
Sketch
10
494.8
20
21.4
0
VERTEX
8
Sketch
10
495.2
20
21.4
0
VERTEX
8
Sketch
10
495.6
20
21
0
VERTEX
8
Sketch
10
496.4
20
20.8
0
VERTEX
8
Sketch
10
498
20
20
0
VERTEX
8
Sketch
10
498.4
20
20
0
VERTEX
8
Sketch
10
502
20
17.4
0
VERTEX
8
Sketch
10
503
20
16.4
0
VERTEX
8
Sketch
10
505.6
20
15.2
0
VERTEX
8
Sketch
10
506.4
20
14.6
0
VERTEX
8
Sketch
10
509.4
20
13.4
0
VERTEX
8
Sketch
10
510.2
20
13.2
0
VERTEX
8
Sketch
10
511.4
20
12.8
0
VERTEX
8
Sketch
10
514
20
13.4
0
VERTEX
8
Sketch
10
514.8
20
13.4
0
VERTEX
8
Sketch
10
516.6
20
13.8
0
VERTEX
8
Sketch
10
517.4
20
13.8
0
VERTEX
8
Sketch
10
518.4
20
14
0
VERTEX
8
Sketch
10
519.2
20
14
0
VERTEX
8
Sketch
10
520
20
14.2
0
VERTEX
8
Sketch
10
521
20
14.2
0
SEQEND
0
POLYLINE
66
1
8
Sketch
62
0
0
VERTEX
8
Sketch
10
469.6
20
10
0
VERTEX
8
Sketch
10
470
20
10.4
0
VERTEX
8
Sketch
10
470.8
20
10.6
0
VERTEX
8
Sketch
10
472.6
20
11.2
0
VERTEX
8
Sketch
10
473
20
11
0
SEQEND
0
POINT
8
Sketch
62
0
10
469.8
20
10
0
POLYLINE
66
1
8
Sketch
62
0
0
VERTEX
8
Sketch
10
471.4
20
10.6
0
VERTEX
8
Sketch
10
472.2
20
10.4
0
VERTEX
8
Sketch
10
473.6
20
10.4
0
VERTEX
8
Sketch
10
474.8
20
10
0
VERTEX
8
Sketch
10
475.6
20
9.8
0
VERTEX
8
Sketch
10
476.8
20
9.4
0
VERTEX
8
Sketch
10
477.2
20
9
0
VERTEX
8
Sketch
10
477.6
20
9
0
VERTEX
8
Sketch
10
479.2
20
7.4
0
VERTEX
8
Sketch
10
480
20
7.2
0
VERTEX
8
Sketch
10
480.4
20
7.4
0
VERTEX
8
Sketch
10
480.8
20
7.2
0
VERTEX
8
Sketch
10
481.8
20
7.6
0
VERTEX
8
Sketch
10
482.2
20
7.4
0
VERTEX
8
Sketch
10
485.6
20
8.4
0
VERTEX
8
Sketch
10
486
20
8.4
0
VERTEX
8
Sketch
10
486.4
20
8.8
0
VERTEX
8
Sketch
10
487.6
20
8.6
0
VERTEX
8
Sketch
10
488.4
20
8.8
0
VERTEX
8
Sketch
10
489.2
20
9
0
VERTEX
8
Sketch
10
490
20
8.8
0
VERTEX
8
Sketch
10
491.2
20
8.8
0
VERTEX
8
Sketch
10
491.6
20
8.6
0
SEQEND
0
POLYLINE
66
1
8
Sketch
62
0
0
VERTEX
8
Sketch
10
471
20
20
0
VERTEX
8
Sketch
10
471.8
20
20.2
0
VERTEX
8
Sketch
10
475
20
19.8
0
VERTEX
8
Sketch
10
475.6
20
19.8
0
VERTEX
8
Sketch
10
476.6
20
19.6
0
VERTEX
8
Sketch
10
478.2
20
19.6
0
VERTEX
8
Sketch
10
479
20
19.4
0
VERTEX
8
Sketch
10
480.6
20
19.4
0
VERTEX
8
Sketch
10
481
20
19.6
0
VERTEX
8
Sketch
10
481.4
20
19.4
0
VERTEX
8
Sketch
10
482.4
20
19.4
0
VERTEX
8
Sketch
10
486.4
20
20
0
VERTEX
8
Sketch
10
487.2
20
20
0
VERTEX
8
Sketch
10
489
20
20.4
0
VERTEX
8
Sketch
10
489.8
20
20.2
0
VERTEX
8
Sketch
10
491.6
20
20.6
0
VERTEX
8
Sketch
10
493
20
20.6
0
VERTEX
8
Sketch
10
493.4
20
20.8
0
SEQEND
0
POINT
8
Sketch
62
32
10
466.2
20
4.4
0
POLYLINE
66
1
8
Sketch
62
32
0
VERTEX
8
Sketch
10
465.8
20
1.2
0
VERTEX
8
Sketch
10
466.2
20
2.2
0
SEQEND
0
POLYLINE
66
1
8
Sketch
62
32
0
VERTEX
8
Sketch
10
465
20
-1.6
0
VERTEX
8
Sketch
10
465.4
20
-0.8
0
SEQEND
0
POLYLINE
66
1
8
Sketch
62
32
0
VERTEX
8
Sketch
10
464.2
20
-3.4
0
VERTEX
8
Sketch
10
464.6
20
-3.6
0
SEQEND
0
POLYLINE
66
1
8
Sketch
62
32
0
VERTEX
8
Sketch
10
463
20
-3.8
0
VERTEX
8
Sketch
10
463.4
20
-3.8
0
SEQEND
0
POLYLINE
66
1
8
Sketch
62
32
0
VERTEX
8
Sketch
10
462.8
20
-1.6
0
VERTEX
8
Sketch
10
462.8
20
-3
0
SEQEND
0
POLYLINE
66
1
8
Sketch
62
32
0
VERTEX
8
Sketch
10
463.4
20
0.6
0
VERTEX
8
Sketch
10
462.8
20
-0.2
0
SEQEND
0
POLYLINE
66
1
8
Sketch
62
32
0
VERTEX
8
Sketch
10
462.6
20
4.8
0
VERTEX
8
Sketch
10
463
20
1.8
0
SEQEND
0
POINT
8
Sketch
62
32
10
463.8
20
-2
0
POINT
8
Sketch
62
32
10
463.2
20
-1.2
0
POINT
8
Sketch
62
32
10
463.2
20
0
0
POINT
8
Sketch
62
32
10
464.2
20
2.4
0
POINT
8
Sketch
62
32
10
463.6
20
4.4
0
POINT
8
Sketch
62
32
10
462.8
20
5.2
0
POLYLINE
66
1
8
Sketch
62
32
0
VERTEX
8
Sketch
10
461
20
7.8
0
VERTEX
8
Sketch
10
462.2
20
7.4
0
VERTEX
8
Sketch
10
462.4
20
6.6
0
VERTEX
8
Sketch
10
462.4
20
6.2
0
SEQEND
0
POLYLINE
66
1
8
Sketch
62
32
0
VERTEX
8
Sketch
10
466.4
20
9.4
0
VERTEX
8
Sketch
10
465.6
20
8.2
0
VERTEX
8
Sketch
10
465.6
20
7.2
0
VERTEX
8
Sketch
10
465.8
20
6.8
0
VERTEX
8
Sketch
10
465.6
20
6.4
0
VERTEX
8
Sketch
10
465.8
20
6
0
SEQEND
0
POLYLINE
66
1
8
Sketch
62
32
0
VERTEX
8
Sketch
10
461
20
7.6
0
VERTEX
8
Sketch
10
461.4
20
7.2
0
VERTEX
8
Sketch
10
462.6
20
7.4
0
VERTEX
8
Sketch
10
463.4
20
6.8
0
VERTEX
8
Sketch
10
463.8
20
6.8
0
SEQEND
0
POLYLINE
66
1
8
Sketch
62
32
0
VERTEX
8
Sketch
10
431.6
20
12.6
0
VERTEX
8
Sketch
10
434.8
20
12.6
0
VERTEX
8
Sketch
10
435.6
20
12.8
0
VERTEX
8
Sketch
10
436.8
20
13
0
VERTEX
8
Sketch
10
439.4
20
13.8
0
VERTEX
8
Sketch
10
441
20
14
0
VERTEX
8
Sketch
10
442
20
14.2
0
VERTEX
8
Sketch
10
443.4
20
14.2
0
VERTEX
8
Sketch
10
445.2
20
14.6
0
VERTEX
8
Sketch
10
448.6
20
15.2
0
VERTEX
8
Sketch
10
450.6
20
15.6
0
VERTEX
8
Sketch
10
451.6
20
16
0
VERTEX
8
Sketch
10
452.6
20
16
0
VERTEX
8
Sketch
10
453.6
20
16.4
0
VERTEX
8
Sketch
10
455.6
20
16.4
0
VERTEX
8
Sketch
10
458.4
20
17
0
VERTEX
8
Sketch
10
459.2
20
17.2
0
VERTEX
8
Sketch
10
461.6
20
17.8
0
VERTEX
8
Sketch
10
462.4
20
18
0
VERTEX
8
Sketch
10
465.2
20
19.2
0
VERTEX
8
Sketch
10
466.4
20
19.4
0
VERTEX
8
Sketch
10
468.2
20
20
0
VERTEX
8
Sketch
10
468.8
20
20
0
VERTEX
8
Sketch
10
469.6
20
20.2
0
VERTEX
8
Sketch
10
470.8
20
20.4
0
SEQEND
0
POLYLINE
66
1
8
Sketch
62
32
0
VERTEX
8
Sketch
10
434
20
-2.4
0
VERTEX
8
Sketch
10
435.2
20
-2
0
VERTEX
8
Sketch
10
435.6
20
-1.6
0
VERTEX
8
Sketch
10
436.4
20
-1.4
0
VERTEX
8
Sketch
10
437.8
20
-1
0
VERTEX
8
Sketch
10
438.6
20
-0.4
0
VERTEX
8
Sketch
10
439.4
20
-0.2
0
VERTEX
8
Sketch
10
441.2
20
0.4
0
VERTEX
8
Sketch
10
445.2
20
2.8
0
VERTEX
8
Sketch
10
449.2
20
4.2
0
VERTEX
8
Sketch
10
450.8
20
5.2
0
VERTEX
8
Sketch
10
451.8
20
5.4
0
VERTEX
8
Sketch
10
454
20
6.4
0
VERTEX
8
Sketch
10
457.4
20
7.2
0
VERTEX
8
Sketch
10
460.2
20
7.8
0
VERTEX
8
Sketch
10
460.6
20
7.8
0
VERTEX
8
Sketch
10
463.6
20
8.8
0
VERTEX
8
Sketch
10
465
20
8.8
0
VERTEX
8
Sketch
10
466.2
20
9.4
0
VERTEX
8
Sketch
10
468
20
9.4
0
VERTEX
8
Sketch
10
468.4
20
9.8
0
VERTEX
8
Sketch
10
469.2
20
10
0
VERTEX
8
Sketch
10
469.6
20
10.2
0
SEQEND
0
POLYLINE
66
1
8
Sketch
62
0
0
VERTEX
8
Sketch
10
605.5
20
-38.5
0
VERTEX
8
Sketch
10
604.3
20
-38.2
0
VERTEX
8
Sketch
10
602.8
20
-37.3
0
VERTEX
8
Sketch
10
601
20
-35.8
0
VERTEX
8
Sketch
10
600.7
20
-34.6
0
VERTEX
8
Sketch
10
599.8
20
-31.9
0
VERTEX
8
Sketch
10
599.8
20
-31
0
VERTEX
8
Sketch
10
598.6
20
-27.4
0
VERTEX
8
Sketch
10
598.3
20
-25.9
0
VERTEX
8
Sketch
10
597.4
20
-24.7
0
VERTEX
8
Sketch
10
596.8
20
-19.3
0
VERTEX
8
Sketch
10
596.8
20
-11.5
0
VERTEX
8
Sketch
10
597.1
20
-10
0
VERTEX
8
Sketch
10
597.1
20
-7.9
0
VERTEX
8
Sketch
10
597.4
20
-4.3
0
VERTEX
8
Sketch
10
597.4
20
-2.5
0
VERTEX
8
Sketch
10
597.7
20
0.2
0
VERTEX
8
Sketch
10
597.7
20
2.9
0
VERTEX
8
Sketch
10
597.4
20
4.1
0
VERTEX
8
Sketch
10
597.4
20
7.7
0
VERTEX
8
Sketch
10
597.1
20
10.1
0
VERTEX
8
Sketch
10
597.1
20
13.4
0
VERTEX
8
Sketch
10
596.5
20
16.1
0
VERTEX
8
Sketch
10
595.9
20
16.7
0
VERTEX
8
Sketch
10
594.7
20
17
0
VERTEX
8
Sketch
10
593.5
20
17.3
0
VERTEX
8
Sketch
10
591.7
20
16.4
0
VERTEX
8
Sketch
10
589.6
20
14.9
0
VERTEX
8
Sketch
10
589.3
20
14.3
0
SEQEND
0
POLYLINE
66
1
8
Sketch
62
0
0
VERTEX
8
Sketch
10
599.5
20
-38.8
0
VERTEX
8
Sketch
10
600.7
20
-39.4
0
VERTEX
8
Sketch
10
601.6
20
-40.3
0
SEQEND
0
POLYLINE
66
1
8
Sketch
62
0
0
VERTEX
8
Sketch
10
582.7
20
-38.5
0
VERTEX
8
Sketch
10
586.3
20
-39.4
0
VERTEX
8
Sketch
10
587.8
20
-39.7
0
VERTEX
8
Sketch
10
588.4
20
-39.4
0
VERTEX
8
Sketch
10
589.6
20
-39.7
0
VERTEX
8
Sketch
10
591.4
20
-39.7
0
VERTEX
8
Sketch
10
594.1
20
-39.1
0
VERTEX
8
Sketch
10
595.3
20
-38.8
0
VERTEX
8
Sketch
10
595.9
20
-39.1
0
VERTEX
8
Sketch
10
597.4
20
-38.2
0
VERTEX
8
Sketch
10
598.6
20
-38.2
0
SEQEND
0
POLYLINE
66
1
8
Sketch
62
0
0
VERTEX
8
Sketch
10
471.4
20
-6.1
0
VERTEX
8
Sketch
10
472
20
-6.4
0
VERTEX
8
Sketch
10
472.6
20
-6.1
0
VERTEX
8
Sketch
10
475.6
20
-7.9
0
VERTEX
8
Sketch
10
476.8
20
-8.2
0
VERTEX
8
Sketch
10
480.7
20
-9.7
0
VERTEX
8
Sketch
10
482.2
20
-10.6
0
VERTEX
8
Sketch
10
483.7
20
-11.5
0
VERTEX
8
Sketch
10
484.6
20
-11.5
0
VERTEX
8
Sketch
10
491.2
20
-15.1
0
VERTEX
8
Sketch
10
492.4
20
-16
0
VERTEX
8
Sketch
10
493.6
20
-16.3
0
VERTEX
8
Sketch
10
493.9
20
-16.9
0
VERTEX
8
Sketch
10
495.1
20
-17.2
0
VERTEX
8
Sketch
10
505.9
20
-22.6
0
VERTEX
8
Sketch
10
507.1
20
-22.9
0
VERTEX
8
Sketch
10
511.3
20
-25
0
VERTEX
8
Sketch
10
512.5
20
-25.3
0
VERTEX
8
Sketch
10
514.6
20
-25.9
0
VERTEX
8
Sketch
10
515.8
20
-26.8
0
VERTEX
8
Sketch
10
517
20
-27.1
0
VERTEX
8
Sketch
10
519.4
20
-28.3
0
VERTEX
8
Sketch
10
520.6
20
-28.6
0
VERTEX
8
Sketch
10
521.8
20
-29.5
0
VERTEX
8
Sketch
10
523
20
-29.2
0
VERTEX
8
Sketch
10
523.6
20
-29.8
0
VERTEX
8
Sketch
10
524.8
20
-30.1
0
VERTEX
8
Sketch
10
526
20
-31
0
VERTEX
8
Sketch
10
527.2
20
-31.3
0
VERTEX
8
Sketch
10
529
20
-31.9
0
VERTEX
8
Sketch
10
529.6
20
-32.5
0
VERTEX
8
Sketch
10
530.2
20
-32.5
0
VERTEX
8
Sketch
10
530.8
20
-33.1
0
VERTEX
8
Sketch
10
531.4
20
-33.1
0
VERTEX
8
Sketch
10
532.9
20
-34.6
0
VERTEX
8
Sketch
10
533.5
20
-34.6
0
VERTEX
8
Sketch
10
534.4
20
-35.8
0
VERTEX
8
Sketch
10
535
20
-35.5
0
VERTEX
8
Sketch
10
535.9
20
-36.4
0
VERTEX
8
Sketch
10
536.5
20
-36.4
0
VERTEX
8
Sketch
10
538
20
-37.3
0
VERTEX
8
Sketch
10
538.6
20
-37.3
0
VERTEX
8
Sketch
10
540.4
20
-38.5
0
VERTEX
8
Sketch
10
540.7
20
-39.1
0
VERTEX
8
Sketch
10
541.3
20
-39.1
0
VERTEX
8
Sketch
10
541.9
20
-39.7
0
VERTEX
8
Sketch
10
543.1
20
-39.7
0
VERTEX
8
Sketch
10
546.1
20
-41.5
0
VERTEX
8
Sketch
10
548.2
20
-42.4
0
VERTEX
8
Sketch
10
548.8
20
-43
0
VERTEX
8
Sketch
10
550
20
-42.7
0
VERTEX
8
Sketch
10
551.2
20
-43.6
0
VERTEX
8
Sketch
10
552.4
20
-43.6
0
VERTEX
8
Sketch
10
553.9
20
-43.9
0
VERTEX
8
Sketch
10
556.6
20
-43.6
0
VERTEX
8
Sketch
10
557.2
20
-43.9
0
VERTEX
8
Sketch
10
558.1
20
-43.6
0
VERTEX
8
Sketch
10
558.7
20
-43.9
0
VERTEX
8
Sketch
10
561.7
20
-42.7
0
VERTEX
8
Sketch
10
562.6
20
-42.7
0
VERTEX
8
Sketch
10
566.2
20
-41.5
0
VERTEX
8
Sketch
10
568
20
-40.3
0
VERTEX
8
Sketch
10
568.6
20
-40.3
0
VERTEX
8
Sketch
10
571
20
-38.5
0
VERTEX
8
Sketch
10
575.5
20
-36.4
0
VERTEX
8
Sketch
10
577.3
20
-36.4
0
VERTEX
8
Sketch
10
578.5
20
-37.3
0
VERTEX
8
Sketch
10
580.9
20
-37.9
0
VERTEX
8
Sketch
10
582.7
20
-39.4
0
SEQEND
0
POINT
8
Sketch
62
0
10
513.1
20
41.3
0
POLYLINE
66
1
8
Sketch
62
0
0
VERTEX
8
Sketch
10
539.2
20
10.4
0
VERTEX
8
Sketch
10
539.5
20
9.8
0
VERTEX
8
Sketch
10
541.6
20
9.5
0
VERTEX
8
Sketch
10
544
20
10.1
0
VERTEX
8
Sketch
10
547.3
20
9.8
0
VERTEX
8
Sketch
10
549.1
20
10.4
0
VERTEX
8
Sketch
10
553
20
10.1
0
VERTEX
8
Sketch
10
556.9
20
10.1
0
VERTEX
8
Sketch
10
561.1
20
10.7
0
VERTEX
8
Sketch
10
562.6
20
10.7
0
VERTEX
8
Sketch
10
566.2
20
11.9
0
VERTEX
8
Sketch
10
571.6
20
11.9
0
VERTEX
8
Sketch
10
573.4
20
12.2
0
VERTEX
8
Sketch
10
575.5
20
12.2
0
VERTEX
8
Sketch
10
576.1
20
11.9
0
VERTEX
8
Sketch
10
578.5
20
12.5
0
VERTEX
8
Sketch
10
581.2
20
12.5
0
VERTEX
8
Sketch
10
582.1
20
12.8
0
VERTEX
8
Sketch
10
582.7
20
12.5
0
VERTEX
8
Sketch
10
588.1
20
13.4
0
VERTEX
8
Sketch
10
590.2
20
13.4
0
VERTEX
8
Sketch
10
592.6
20
14.6
0
SEQEND
0
POLYLINE
66
1
8
Sketch
62
0
0
VERTEX
8
Sketch
10
473.8
20
2.6
0
VERTEX
8
Sketch
10
475
20
2.3
0
VERTEX
8
Sketch
10
477.1
20
2
0
VERTEX
8
Sketch
10
482.2
20
2
0
VERTEX
8
Sketch
10
485.8
20
2.9
0
VERTEX
8
Sketch
10
486.4
20
2.9
0
VERTEX
8
Sketch
10
488.2
20
4.1
0
VERTEX
8
Sketch
10
488.8
20
4.1
0
VERTEX
8
Sketch
10
490
20
5
0
VERTEX
8
Sketch
10
492.7
20
6.5
0
VERTEX
8
Sketch
10
493.3
20
6.5
0
VERTEX
8
Sketch
10
496
20
8.6
0
VERTEX
8
Sketch
10
497.8
20
9.2
0
VERTEX
8
Sketch
10
499.6
20
10.7
0
VERTEX
8
Sketch
10
500.8
20
10.7
0
VERTEX
8
Sketch
10
503.8
20
12.2
0
VERTEX
8
Sketch
10
507.7
20
12.2
0
VERTEX
8
Sketch
10
508.3
20
11.9
0
VERTEX
8
Sketch
10
509.5
20
12.2
0
VERTEX
8
Sketch
10
510.7
20
11.9
0
VERTEX
8
Sketch
10
512.2
20
11.9
0
VERTEX
8
Sketch
10
514
20
11.6
0
VERTEX
8
Sketch
10
515.2
20
11.6
0
VERTEX
8
Sketch
10
518.2
20
11
0
VERTEX
8
Sketch
10
524.2
20
11
0
VERTEX
8
Sketch
10
525.7
20
11.3
0
VERTEX
8
Sketch
10
526.3
20
11
0
VERTEX
8
Sketch
10
527.5
20
11.3
0
VERTEX
8
Sketch
10
529.3
20
11
0
VERTEX
8
Sketch
10
531.4
20
11
0
VERTEX
8
Sketch
10
533.5
20
10.7
0
VERTEX
8
Sketch
10
534.4
20
10.7
0
VERTEX
8
Sketch
10
535.6
20
10.4
0
VERTEX
8
Sketch
10
536.8
20
10.4
0
VERTEX
8
Sketch
10
538.3
20
10.1
0
VERTEX
8
Sketch
10
541
20
10.1
0
SEQEND
0
POLYLINE
66
1
8
Sketch
62
0
0
VERTEX
8
Sketch
10
456.3
20
13.1
0
VERTEX
8
Sketch
10
458.1
20
11.7
0
VERTEX
8
Sketch
10
460.5
20
10.1
0
VERTEX
8
Sketch
10
461.9
20
8.5
0
VERTEX
8
Sketch
10
462.5
20
8.3
0
VERTEX
8
Sketch
10
464.5
20
6.3
0
VERTEX
8
Sketch
10
466.1
20
5.3
0
VERTEX
8
Sketch
10
467.1
20
4.9
0
VERTEX
8
Sketch
10
468.3
20
3.9
0
VERTEX
8
Sketch
10
469.3
20
3.3
0
VERTEX
8
Sketch
10
470.5
20
2.5
0
VERTEX
8
Sketch
10
472.7
20
1.3
0
SEQEND
0
POLYLINE
66
1
8
Sketch
62
0
0
VERTEX
8
Sketch
10
454.1
20
-6.3
0
VERTEX
8
Sketch
10
460.1
20
-5.5
0
VERTEX
8
Sketch
10
461.5
20
-5.1
0
VERTEX
8
Sketch
10
464.5
20
-5.1
0
VERTEX
8
Sketch
10
465.3
20
-5.3
0
VERTEX
8
Sketch
10
466.1
20
-5.1
0
VERTEX
8
Sketch
10
467.5
20
-5.1
0
VERTEX
8
Sketch
10
470.1
20
-5.7
0
VERTEX
8
Sketch
10
471.1
20
-5.9
0
SEQEND
0
POLYLINE
66
1
8
Sketch
62
0
0
VERTEX
8
Sketch
10
425.5
20
14.1
0
VERTEX
8
Sketch
10
427.7
20
13.1
0
VERTEX
8
Sketch
10
430.7
20
12.1
0
VERTEX
8
Sketch
10
431.3
20
12.1
0
VERTEX
8
Sketch
10
433.1
20
11.5
0
VERTEX
8
Sketch
10
433.9
20
11.3
0
VERTEX
8
Sketch
10
434.9
20
11.5
0
VERTEX
8
Sketch
10
436.9
20
11.1
0
VERTEX
8
Sketch
10
438.7
20
11.3
0
VERTEX
8
Sketch
10
440.1
20
11.3
0
VERTEX
8
Sketch
10
441.5
20
11.5
0
VERTEX
8
Sketch
10
442.3
20
11.7
0
VERTEX
8
Sketch
10
442.7
20
11.5
0
VERTEX
8
Sketch
10
443.1
20
11.7
0
VERTEX
8
Sketch
10
443.7
20
11.5
0
VERTEX
8
Sketch
10
444.7
20
11.7
0
VERTEX
8
Sketch
10
447.1
20
12.1
0
VERTEX
8
Sketch
10
448.1
20
12.1
0
VERTEX
8
Sketch
10
449.5
20
12.3
0
VERTEX
8
Sketch
10
451.1
20
12.3
0
VERTEX
8
Sketch
10
452.1
20
12.5
0
VERTEX
8
Sketch
10
454.7
20
12.5
0
VERTEX
8
Sketch
10
455.7
20
12.7
0
VERTEX
8
Sketch
10
457.1
20
12.3
0
VERTEX
8
Sketch
10
457.5
20
12.3
0
SEQEND
0
POLYLINE
66
1
8
Sketch
62
0
0
VERTEX
8
Sketch
10
435.3
20
-2.7
0
VERTEX
8
Sketch
10
437.7
20
-3.5
0
VERTEX
8
Sketch
10
443.3
20
-4.9
0
VERTEX
8
Sketch
10
444.1
20
-5.1
0
VERTEX
8
Sketch
10
444.7
20
-5.1
0
VERTEX
8
Sketch
10
445.5
20
-5.3
0
VERTEX
8
Sketch
10
446.3
20
-5.5
0
VERTEX
8
Sketch
10
447.3
20
-5.7
0
VERTEX
8
Sketch
10
449.3
20
-5.9
0
VERTEX
8
Sketch
10
450.5
20
-6.3
0
VERTEX
8
Sketch
10
451.9
20
-6.3
0
VERTEX
8
Sketch
10
453.1
20
-6.7
0
VERTEX
8
Sketch
10
453.7
20
-6.7
0
VERTEX
8
Sketch
10
454.9
20
-7.1
0
SEQEND
0
POLYLINE
66
1
8
Sketch
62
0
0
VERTEX
8
Sketch
10
367.1
20
-8.1
0
VERTEX
8
Sketch
10
367.5
20
-8.5
0
VERTEX
8
Sketch
10
368.7
20
-7.9
0
VERTEX
8
Sketch
10
369.7
20
-7.7
0
VERTEX
8
Sketch
10
370.9
20
-7.1
0
VERTEX
8
Sketch
10
373.9
20
-6.5
0
VERTEX
8
Sketch
10
377.3
20
-6.3
0
VERTEX
8
Sketch
10
379.7
20
-5.9
0
VERTEX
8
Sketch
10
381.1
20
-5.9
0
VERTEX
8
Sketch
10
381.5
20
-6.1
0
VERTEX
8
Sketch
10
382.5
20
-5.9
0
VERTEX
8
Sketch
10
383.3
20
-5.9
0
VERTEX
8
Sketch
10
385.3
20
-5.3
0
VERTEX
8
Sketch
10
388.5
20
-4.9
0
VERTEX
8
Sketch
10
391.5
20
-4.5
0
VERTEX
8
Sketch
10
396.3
20
-3.7
0
VERTEX
8
Sketch
10
400.1
20
-2.5
0
VERTEX
8
Sketch
10
400.9
20
-2.3
0
VERTEX
8
Sketch
10
401.7
20
-2.5
0
VERTEX
8
Sketch
10
403.5
20
-2.1
0
VERTEX
8
Sketch
10
404.9
20
-2.1
0
VERTEX
8
Sketch
10
406.3
20
-1.9
0
VERTEX
8
Sketch
10
406.9
20
-1.9
0
VERTEX
8
Sketch
10
407.3
20
-1.7
0
VERTEX
8
Sketch
10
408.3
20
-1.9
0
VERTEX
8
Sketch
10
409.3
20
-1.7
0
VERTEX
8
Sketch
10
410.1
20
-1.9
0
VERTEX
8
Sketch
10
411.1
20
-1.7
0
VERTEX
8
Sketch
10
412.9
20
-1.5
0
VERTEX
8
Sketch
10
413.5
20
-1.5
0
VERTEX
8
Sketch
10
413.9
20
-1.3
0
VERTEX
8
Sketch
10
419.5
20
-1.3
0
VERTEX
8
Sketch
10
419.9
20
-1.1
0
VERTEX
8
Sketch
10
421.9
20
-1.3
0
VERTEX
8
Sketch
10
424.3
20
-1.3
0
VERTEX
8
Sketch
10
425.1
20
-1.5
0
VERTEX
8
Sketch
10
426.5
20
-1.5
0
VERTEX
8
Sketch
10
429.9
20
-2.5
0
VERTEX
8
Sketch
10
431.5
20
-2.7
0
VERTEX
8
Sketch
10
432.3
20
-3.1
0
SEQEND
0
POINT
8
Sketch
62
0
10
361.7
20
46.9
0
POLYLINE
66
1
8
Sketch
62
0
0
VERTEX
8
Sketch
10
371.1
20
13.7
0
VERTEX
8
Sketch
10
372.3
20
13.7
0
VERTEX
8
Sketch
10
373.9
20
13.3
0
VERTEX
8
Sketch
10
375.1
20
13.3
0
VERTEX
8
Sketch
10
377.3
20
12.7
0
VERTEX
8
Sketch
10
381.7
20
12.3
0
VERTEX
8
Sketch
10
382.7
20
12.3
0
VERTEX
8
Sketch
10
384.1
20
12.5
0
VERTEX
8
Sketch
10
384.7
20
12.5
0
VERTEX
8
Sketch
10
385.7
20
12.7
0
VERTEX
8
Sketch
10
386.3
20
12.5
0
VERTEX
8
Sketch
10
387.5
20
12.5
0
VERTEX
8
Sketch
10
388.1
20
12.7
0
VERTEX
8
Sketch
10
389.1
20
12.7
0
VERTEX
8
Sketch
10
390.1
20
12.9
0
VERTEX
8
Sketch
10
391.7
20
12.9
0
VERTEX
8
Sketch
10
392.5
20
13.1
0
VERTEX
8
Sketch
10
393.9
20
13.1
0
VERTEX
8
Sketch
10
394.9
20
13.3
0
VERTEX
8
Sketch
10
397.1
20
13.5
0
VERTEX
8
Sketch
10
398.5
20
13.7
0
VERTEX
8
Sketch
10
399.7
20
13.5
0
VERTEX
8
Sketch
10
400.3
20
13.7
0
VERTEX
8
Sketch
10
401.3
20
13.5
0
VERTEX
8
Sketch
10
402.1
20
13.7
0
VERTEX
8
Sketch
10
406.3
20
13.7
0
VERTEX
8
Sketch
10
406.7
20
13.5
0
VERTEX
8
Sketch
10
408.9
20
13.5
0
VERTEX
8
Sketch
10
412.1
20
13.3
0
VERTEX
8
Sketch
10
413.1
20
13.1
0
VERTEX
8
Sketch
10
414.7
20
13.1
0
VERTEX
8
Sketch
10
415.1
20
13.3
0
VERTEX
8
Sketch
10
416.1
20
13.1
0
VERTEX
8
Sketch
10
416.5
20
13.3
0
VERTEX
8
Sketch
10
416.9
20
13.1
0
VERTEX
8
Sketch
10
417.7
20
13.3
0
VERTEX
8
Sketch
10
418.3
20
13.1
0
VERTEX
8
Sketch
10
419.5
20
13.3
0
VERTEX
8
Sketch
10
420.5
20
13.1
0
VERTEX
8
Sketch
10
422.5
20
13.1
0
VERTEX
8
Sketch
10
422.9
20
12.9
0
VERTEX
8
Sketch
10
423.7
20
13.1
0
VERTEX
8
Sketch
10
424.5
20
13.1
0
VERTEX
8
Sketch
10
425.1
20
12.9
0
VERTEX
8
Sketch
10
426.7
20
13.3
0
VERTEX
8
Sketch
10
427.5
20
13.1
0
SEQEND
0
POINT
8
Sketch
62
30
10
331.9
20
48.7
0
POLYLINE
66
1
8
Sketch
62
30
0
VERTEX
8
Sketch
10
367.5
20
12.3
0
VERTEX
8
Sketch
10
368.5
20
11.1
0
VERTEX
8
Sketch
10
368.7
20
10.3
0
VERTEX
8
Sketch
10
370.9
20
13.9
0
SEQEND
0
POLYLINE
66
1
8
Sketch
62
30
0
VERTEX
8
Sketch
10
369.7
20
8.9
0
VERTEX
8
Sketch
10
369.7
20
3.9
0
VERTEX
8
Sketch
10
369.5
20
1.9
0
SEQEND
0
POLYLINE
66
1
8
Sketch
62
30
0
VERTEX
8
Sketch
10
369.7
20
-0.1
0
VERTEX
8
Sketch
10
367.7
20
-4.1
0
VERTEX
8
Sketch
10
369.5
20
-0.3
0
VERTEX
8
Sketch
10
370.7
20
-1.7
0
VERTEX
8
Sketch
10
371.9
20
-4.5
0
VERTEX
8
Sketch
10
371.9
20
-4.9
0
VERTEX
8
Sketch
10
372.3
20
-5.3
0
SEQEND
0
POLYLINE
66
1
8
Sketch
62
0
0
VERTEX
8
Sketch
10
315.1
20
4.7
0
VERTEX
8
Sketch
10
315.9
20
4.9
0
VERTEX
8
Sketch
10
316.5
20
4.9
0
VERTEX
8
Sketch
10
317.9
20
5.5
0
VERTEX
8
Sketch
10
321.1
20
6.3
0
VERTEX
8
Sketch
10
322.3
20
7.1
0
VERTEX
8
Sketch
10
324.1
20
7.5
0
VERTEX
8
Sketch
10
328.3
20
9.1
0
VERTEX
8
Sketch
10
329.1
20
9.7
0
VERTEX
8
Sketch
10
329.9
20
9.7
0
VERTEX
8
Sketch
10
332.5
20
10.5
0
VERTEX
8
Sketch
10
334.1
20
11.3
0
VERTEX
8
Sketch
10
335.7
20
11.3
0
VERTEX
8
Sketch
10
336.9
20
11.7
0
VERTEX
8
Sketch
10
337.9
20
11.7
0
VERTEX
8
Sketch
10
338.9
20
11.9
0
VERTEX
8
Sketch
10
344.3
20
11.9
0
VERTEX
8
Sketch
10
346.9
20
11.3
0
VERTEX
8
Sketch
10
348.1
20
11.5
0
VERTEX
8
Sketch
10
350.3
20
11.3
0
VERTEX
8
Sketch
10
355.3
20
11.3
0
VERTEX
8
Sketch
10
357.9
20
11.7
0
VERTEX
8
Sketch
10
358.7
20
11.7
0
VERTEX
8
Sketch
10
359.9
20
11.9
0
VERTEX
8
Sketch
10
360.3
20
11.7
0
VERTEX
8
Sketch
10
361.1
20
12.1
0
VERTEX
8
Sketch
10
361.5
20
11.9
0
VERTEX
8
Sketch
10
362.9
20
12.3
0
VERTEX
8
Sketch
10
363.5
20
12.3
0
VERTEX
8
Sketch
10
365.3
20
12.7
0
VERTEX
8
Sketch
10
366.1
20
12.5
0
VERTEX
8
Sketch
10
367.9
20
12.9
0
VERTEX
8
Sketch
10
368.9
20
12.9
0
VERTEX
8
Sketch
10
369.7
20
13.1
0
VERTEX
8
Sketch
10
370.5
20
12.9
0
VERTEX
8
Sketch
10
371.7
20
13.1
0
SEQEND
0
POLYLINE
66
1
8
Sketch
62
0
0
VERTEX
8
Sketch
10
371.3
20
-6.9
0
VERTEX
8
Sketch
10
371.7
20
-6.7
0
SEQEND
0
POLYLINE
66
1
8
Sketch
62
0
0
VERTEX
8
Sketch
10
334.1
20
-17.3
0
VERTEX
8
Sketch
10
334.9
20
-17.3
0
VERTEX
8
Sketch
10
337.1
20
-16.7
0
VERTEX
8
Sketch
10
338.5
20
-16.7
0
VERTEX
8
Sketch
10
339.5
20
-16.5
0
VERTEX
8
Sketch
10
340.1
20
-16.5
0
VERTEX
8
Sketch
10
341.1
20
-15.9
0
VERTEX
8
Sketch
10
342.3
20
-15.9
0
VERTEX
8
Sketch
10
343.1
20
-15.5
0
VERTEX
8
Sketch
10
343.7
20
-15.5
0
VERTEX
8
Sketch
10
345.9
20
-14.7
0
VERTEX
8
Sketch
10
346.3
20
-14.7
0
VERTEX
8
Sketch
10
348.1
20
-13.5
0
VERTEX
8
Sketch
10
348.9
20
-13.3
0
VERTEX
8
Sketch
10
352.1
20
-12.3
0
VERTEX
8
Sketch
10
353.3
20
-12.1
0
VERTEX
8
Sketch
10
358.5
20
-9.7
0
VERTEX
8
Sketch
10
359.1
20
-9.7
0
VERTEX
8
Sketch
10
361.5
20
-8.7
0
VERTEX
8
Sketch
10
363.7
20
-8.7
0
VERTEX
8
Sketch
10
365.9
20
-8.1
0
VERTEX
8
Sketch
10
366.5
20
-8.1
0
VERTEX
8
Sketch
10
367.5
20
-7.9
0
VERTEX
8
Sketch
10
368.3
20
-7.7
0
SEQEND
0
POLYLINE
66
1
8
Sketch
62
0
0
VERTEX
8
Sketch
10
326.7
20
-16.3
0
VERTEX
8
Sketch
10
326.9
20
-16.7
0
VERTEX
8
Sketch
10
327.3
20
-16.5
0
VERTEX
8
Sketch
10
328.5
20
-17.3
0
VERTEX
8
Sketch
10
330.1
20
-17.5
0
VERTEX
8
Sketch
10
330.9
20
-17.3
0
VERTEX
8
Sketch
10
332.1
20
-17.5
0
SEQEND
0
POINT
8
Sketch
62
0
10
313.3
20
-29.9
0
POLYLINE
66
1
8
Sketch
62
0
0
VERTEX
8
Sketch
10
277.3
20
-3.7
0
VERTEX
8
Sketch
10
278.3
20
-3.9
0
VERTEX
8
Sketch
10
280.7
20
-4.5
0
VERTEX
8
Sketch
10
282.1
20
-4.5
0
VERTEX
8
Sketch
10
283.7
20
-4.9
0
VERTEX
8
Sketch
10
284.7
20
-4.9
0
VERTEX
8
Sketch
10
285.7
20
-5.3
0
VERTEX
8
Sketch
10
286.5
20
-5.3
0
VERTEX
8
Sketch
10
290.3
20
-6.3
0
VERTEX
8
Sketch
10
290.9
20
-6.3
0
VERTEX
8
Sketch
10
291.7
20
-6.7
0
VERTEX
8
Sketch
10
292.3
20
-6.7
0
VERTEX
8
Sketch
10
294.5
20
-7.3
0
VERTEX
8
Sketch
10
295.5
20
-7.5
0
VERTEX
8
Sketch
10
297.5
20
-8.1
0
VERTEX
8
Sketch
10
300.5
20
-8.7
0
VERTEX
8
Sketch
10
303.5
20
-9.9
0
VERTEX
8
Sketch
10
305.3
20
-9.9
0
VERTEX
8
Sketch
10
305.9
20
-10.3
0
VERTEX
8
Sketch
10
306.5
20
-10.3
0
VERTEX
8
Sketch
10
306.9
20
-10.7
0
VERTEX
8
Sketch
10
307.3
20
-10.5
0
VERTEX
8
Sketch
10
308.5
20
-11.1
0
VERTEX
8
Sketch
10
309.5
20
-11.1
0
VERTEX
8
Sketch
10
312.1
20
-11.9
0
VERTEX
8
Sketch
10
314.1
20
-12.1
0
VERTEX
8
Sketch
10
316.9
20
-12.9
0
VERTEX
8
Sketch
10
317.7
20
-12.9
0
VERTEX
8
Sketch
10
318.9
20
-13.5
0
VERTEX
8
Sketch
10
320.3
20
-13.5
0
VERTEX
8
Sketch
10
322.1
20
-14.3
0
VERTEX
8
Sketch
10
323.7
20
-14.5
0
VERTEX
8
Sketch
10
324.1
20
-14.9
0
VERTEX
8
Sketch
10
324.9
20
-15.1
0
VERTEX
8
Sketch
10
326.5
20
-15.5
0
VERTEX
8
Sketch
10
327.3
20
-15.7
0
VERTEX
8
Sketch
10
328.1
20
-15.9
0
SEQEND
0
POLYLINE
66
1
8
Sketch
62
0
0
VERTEX
8
Sketch
10
306.7
20
3.7
0
VERTEX
8
Sketch
10
308.3
20
1.1
0
VERTEX
8
Sketch
10
309.5
20
0.1
0
VERTEX
8
Sketch
10
313.1
20
-1.1
0
VERTEX
8
Sketch
10
314.1
20
-1.3
0
VERTEX
8
Sketch
10
314.9
20
-1.5
0
SEQEND
0
POLYLINE
66
1
8
Sketch
62
0
0
VERTEX
8
Sketch
10
278.5
20
5.9
0
VERTEX
8
Sketch
10
283.3
20
5.5
0
VERTEX
8
Sketch
10
285.7
20
4.7
0
VERTEX
8
Sketch
10
287.3
20
4.5
0
VERTEX
8
Sketch
10
288.5
20
4.1
0
VERTEX
8
Sketch
10
289.3
20
4.1
0
VERTEX
8
Sketch
10
292.1
20
3.5
0
VERTEX
8
Sketch
10
293.3
20
3.5
0
VERTEX
8
Sketch
10
293.7
20
3.3
0
VERTEX
8
Sketch
10
295.7
20
3.5
0
VERTEX
8
Sketch
10
298.3
20
3.7
0
VERTEX
8
Sketch
10
298.9
20
3.9
0
VERTEX
8
Sketch
10
299.9
20
3.9
0
VERTEX
8
Sketch
10
301.9
20
4.3
0
VERTEX
8
Sketch
10
307.5
20
4.3
0
VERTEX
8
Sketch
10
307.9
20
4.5
0
VERTEX
8
Sketch
10
308.9
20
4.3
0
VERTEX
8
Sketch
10
310.3
20
4.3
0
VERTEX
8
Sketch
10
311.1
20
4.5
0
VERTEX
8
Sketch
10
315.3
20
4.5
0
VERTEX
8
Sketch
10
315.7
20
4.3
0
SEQEND
0
POLYLINE
66
1
8
Sketch
62
0
0
VERTEX
8
Sketch
10
249.1
20
-12.9
0
VERTEX
8
Sketch
10
250.5
20
-12.9
0
VERTEX
8
Sketch
10
254.9
20
-11.5
0
VERTEX
8
Sketch
10
256.9
20
-10.3
0
VERTEX
8
Sketch
10
257.5
20
-10.3
0
VERTEX
8
Sketch
10
259.3
20
-9.5
0
VERTEX
8
Sketch
10
260.3
20
-8.9
0
VERTEX
8
Sketch
10
262.7
20
-7.3
0
VERTEX
8
Sketch
10
263.5
20
-7.1
0
VERTEX
8
Sketch
10
265.1
20
-6.1
0
VERTEX
8
Sketch
10
266.1
20
-5.5
0
VERTEX
8
Sketch
10
266.5
20
-5.7
0
VERTEX
8
Sketch
10
269.5
20
-4.5
0
VERTEX
8
Sketch
10
270.3
20
-4.5
0
VERTEX
8
Sketch
10
270.7
20
-4.3
0
VERTEX
8
Sketch
10
271.1
20
-4.5
0
VERTEX
8
Sketch
10
273.9
20
-4.1
0
VERTEX
8
Sketch
10
274.9
20
-3.9
0
VERTEX
8
Sketch
10
277.7
20
-4.3
0
VERTEX
8
Sketch
10
278.7
20
-4.5
0
SEQEND
0
POLYLINE
66
1
8
Sketch
62
0
0
VERTEX
8
Sketch
10
260.3
20
11.1
0
VERTEX
8
Sketch
10
261.1
20
11.3
0
VERTEX
8
Sketch
10
261.7
20
11.1
0
VERTEX
8
Sketch
10
262.7
20
11.1
0
VERTEX
8
Sketch
10
263.1
20
10.7
0
VERTEX
8
Sketch
10
264.3
20
10.7
0
VERTEX
8
Sketch
10
268.9
20
9.7
0
VERTEX
8
Sketch
10
269.9
20
9.1
0
VERTEX
8
Sketch
10
273.7
20
7.3
0
VERTEX
8
Sketch
10
274.9
20
7.1
0
VERTEX
8
Sketch
10
277.1
20
6.3
0
VERTEX
8
Sketch
10
277.7
20
6.3
0
VERTEX
8
Sketch
10
279.9
20
5.7
0
VERTEX
8
Sketch
10
280.7
20
5.5
0
SEQEND
0
POLYLINE
66
1
8
Sketch
62
0
0
VERTEX
8
Sketch
10
247.5
20
6.9
0
VERTEX
8
Sketch
10
248.3
20
7.1
0
VERTEX
8
Sketch
10
249.5
20
7.1
0
VERTEX
8
Sketch
10
249.9
20
7.5
0
VERTEX
8
Sketch
10
251.3
20
7.5
0
VERTEX
8
Sketch
10
252.5
20
8.3
0
VERTEX
8
Sketch
10
253.1
20
8.3
0
SEQEND
0
POLYLINE
66
1
8
Sketch
62
0
0
VERTEX
8
Sketch
10
239.9
20
6.1
0
VERTEX
8
Sketch
10
240.7
20
6.3
0
VERTEX
8
Sketch
10
242.9
20
5.9
0
VERTEX
8
Sketch
10
243.7
20
6.1
0
VERTEX
8
Sketch
10
244.1
20
6.3
0
SEQEND
0
POINT
8
Sketch
62
32
10
254.7
20
-19.5
0
POLYLINE
66
1
8
Sketch
62
32
0
VERTEX
8
Sketch
10
253.3
20
-13.3
0
VERTEX
8
Sketch
10
254.9
20
-13.9
0
VERTEX
8
Sketch
10
254.7
20
-15.1
0
VERTEX
8
Sketch
10
254.3
20
-15.5
0
SEQEND
0
POLYLINE
66
1
8
Sketch
62
32
0
VERTEX
8
Sketch
10
248.7
20
-7.9
0
VERTEX
8
Sketch
10
249.3
20
-7.9
0
VERTEX
8
Sketch
10
251.1
20
-9.3
0
VERTEX
8
Sketch
10
252.9
20
-11.1
0
VERTEX
8
Sketch
10
254.3
20
-11.7
0
VERTEX
8
Sketch
10
255.1
20
-12.3
0
VERTEX
8
Sketch
10
255.9
20
-12.3
0
VERTEX
8
Sketch
10
256.3
20
-12.5
0
SEQEND
0
POLYLINE
66
1
8
Sketch
62
32
0
VERTEX
8
Sketch
10
241.5
20
-13.9
0
VERTEX
8
Sketch
10
242.9
20
-13.9
0
VERTEX
8
Sketch
10
243.7
20
-14.1
0
VERTEX
8
Sketch
10
246.7
20
-14.1
0
VERTEX
8
Sketch
10
247.5
20
-14.3
0
VERTEX
8
Sketch
10
249.1
20
-14.3
0
SEQEND
0
POLYLINE
66
1
8
Sketch
62
32
0
VERTEX
8
Sketch
10
249.1
20
-7.5
0
VERTEX
8
Sketch
10
250.7
20
-8.1
0
VERTEX
8
Sketch
10
251.1
20
-8.5
0
VERTEX
8
Sketch
10
251.9
20
-8.5
0
VERTEX
8
Sketch
10
253.5
20
-8.9
0
VERTEX
8
Sketch
10
254.3
20
-9.1
0
SEQEND
0
POLYLINE
66
1
8
Sketch
62
0
0
VERTEX
8
Sketch
10
236.9
20
7.3
0
VERTEX
8
Sketch
10
239.7
20
8.1
0
VERTEX
8
Sketch
10
241.3
20
7.9
0
VERTEX
8
Sketch
10
242.1
20
8.5
0
VERTEX
8
Sketch
10
243.3
20
8.7
0
VERTEX
8
Sketch
10
245.7
20
10.5
0
VERTEX
8
Sketch
10
246.3
20
11.1
0
VERTEX
8
Sketch
10
248.1
20
12.1
0
VERTEX
8
Sketch
10
248.7
20
13.1
0
VERTEX
8
Sketch
10
251.5
20
15.7
0
VERTEX
8
Sketch
10
252.1
20
15.9
0
VERTEX
8
Sketch
10
255.7
20
19.5
0
SEQEND
0
POLYLINE
66
1
8
Sketch
62
0
0
VERTEX
8
Sketch
10
258.1
20
9.3
0
VERTEX
8
Sketch
10
257.7
20
8.9
0
VERTEX
8
Sketch
10
256.9
20
5.7
0
VERTEX
8
Sketch
10
258.3
20
5.5
0
VERTEX
8
Sketch
10
259.1
20
5.5
0
VERTEX
8
Sketch
10
259.9
20
6.1
0
VERTEX
8
Sketch
10
260.7
20
8.9
0
VERTEX
8
Sketch
10
260.3
20
9.3
0
VERTEX
8
Sketch
10
259.3
20
9.5
0
VERTEX
8
Sketch
10
258.5
20
9.7
0
VERTEX
8
Sketch
10
258.1
20
9.7
0
SEQEND
0
POLYLINE
66
1
8
Sketch
62
0
0
VERTEX
8
Sketch
10
240.5
20
-15.3
0
VERTEX
8
Sketch
10
241.1
20
-14.7
0
VERTEX
8
Sketch
10
242.3
20
-14.1
0
VERTEX
8
Sketch
10
243.1
20
-13.3
0
VERTEX
8
Sketch
10
243.9
20
-13.3
0
VERTEX
8
Sketch
10
245.5
20
-12.3
0
VERTEX
8
Sketch
10
245.9
20
-12.3
0
VERTEX
8
Sketch
10
247.9
20
-10.9
0
VERTEX
8
Sketch
10
249.7
20
-9.7
0
VERTEX
8
Sketch
10
250.3
20
-8.9
0
VERTEX
8
Sketch
10
250.9
20
-8.7
0
VERTEX
8
Sketch
10
251.9
20
-6.9
0
VERTEX
8
Sketch
10
253.5
20
-1.7
0
VERTEX
8
Sketch
10
254.1
20
-0.5
0
VERTEX
8
Sketch
10
254.1
20
-0.1
0
VERTEX
8
Sketch
10
254.5
20
0.5
0
VERTEX
8
Sketch
10
254.5
20
0.9
0
VERTEX
8
Sketch
10
255.7
20
2.9
0
VERTEX
8
Sketch
10
255.9
20
3.7
0
VERTEX
8
Sketch
10
258.5
20
6.3
0
SEQEND
0
POINT
8
Sketch
62
0
10
224.5
20
-28.9
0
POLYLINE
66
1
8
Sketch
62
0
0
VERTEX
8
Sketch
10
234.1
20
1.1
0
VERTEX
8
Sketch
10
234.1
20
0.7
0
SEQEND
0
POLYLINE
66
1
8
Sketch
62
0
0
VERTEX
8
Sketch
10
224.3
20
-18.9
0
VERTEX
8
Sketch
10
226.1
20
-18.1
0
VERTEX
8
Sketch
10
226.7
20
-18.1
0
VERTEX
8
Sketch
10
227.7
20
-17.5
0
VERTEX
8
Sketch
10
228.7
20
-17.3
0
VERTEX
8
Sketch
10
229.7
20
-16.7
0
VERTEX
8
Sketch
10
230.1
20
-16.7
0
VERTEX
8
Sketch
10
230.7
20
-16.3
0
VERTEX
8
Sketch
10
231.7
20
-16.1
0
VERTEX
8
Sketch
10
232.5
20
-15.5
0
VERTEX
8
Sketch
10
233.1
20
-15.5
0
VERTEX
8
Sketch
10
233.9
20
-15.3
0
VERTEX
8
Sketch
10
236.9
20
-14.7
0
VERTEX
8
Sketch
10
238.5
20
-14.7
0
VERTEX
8
Sketch
10
239.9
20
-14.5
0
VERTEX
8
Sketch
10
240.3
20
-14.7
0
VERTEX
8
Sketch
10
240.7
20
-14.5
0
SEQEND
0
POLYLINE
66
1
8
Sketch
62
0
0
VERTEX
8
Sketch
10
228.7
20
-5.5
0
VERTEX
8
Sketch
10
229.9
20
-3.3
0
VERTEX
8
Sketch
10
230.7
20
-1.1
0
VERTEX
8
Sketch
10
231.1
20
-0.7
0
VERTEX
8
Sketch
10
232.1
20
1.7
0
VERTEX
8
Sketch
10
233.1
20
3.3
0
VERTEX
8
Sketch
10
234.1
20
5.5
0
VERTEX
8
Sketch
10
236.5
20
7.5
0
VERTEX
8
Sketch
10
236.9
20
7.7
0
SEQEND
0
POLYLINE
66
1
8
Sketch
62
0
0
VERTEX
8
Sketch
10
228.7
20
-6.7
0
VERTEX
8
Sketch
10
228.9
20
-6.1
0
VERTEX
8
Sketch
10
229.5
20
-5.5
0
VERTEX
8
Sketch
10
229.9
20
-4.5
0
VERTEX
8
Sketch
10
230.3
20
-4.1
0
VERTEX
8
Sketch
10
230.5
20
-3.3
0
VERTEX
8
Sketch
10
231.3
20
-1.5
0
VERTEX
8
Sketch
10
232.1
20
-0.3
0
VERTEX
8
Sketch
10
232.1
20
0.1
0
VERTEX
8
Sketch
10
232.5
20
0.5
0
VERTEX
8
Sketch
10
232.7
20
1.3
0
VERTEX
8
Sketch
10
233.1
20
2.3
0
VERTEX
8
Sketch
10
234.1
20
3.5
0
VERTEX
8
Sketch
10
234.7
20
5.3
0
SEQEND
0
POINT
8
Sketch
62
0
10
164.3
20
42.3
0
POLYLINE
66
1
8
Sketch
62
0
0
VERTEX
8
Sketch
10
177.1
20
-8.1
0
VERTEX
8
Sketch
10
177.3
20
-7.7
0
VERTEX
8
Sketch
10
179.3
20
-7.9
0
VERTEX
8
Sketch
10
182.5
20
-8.5
0
VERTEX
8
Sketch
10
183.3
20
-8.7
0
VERTEX
8
Sketch
10
184.1
20
-8.5
0
VERTEX
8
Sketch
10
186.9
20
-9.1
0
VERTEX
8
Sketch
10
189.5
20
-9.3
0
VERTEX
8
Sketch
10
194.9
20
-10.3
0
VERTEX
8
Sketch
10
199.1
20
-12.3
0
VERTEX
8
Sketch
10
202.7
20
-14.1
0
VERTEX
8
Sketch
10
204.5
20
-15.3
0
VERTEX
8
Sketch
10
205.5
20
-15.7
0
VERTEX
8
Sketch
10
206.3
20
-16.3
0
VERTEX
8
Sketch
10
207.1
20
-16.3
0
VERTEX
8
Sketch
10
209.9
20
-17.1
0
VERTEX
8
Sketch
10
211.1
20
-17.7
0
VERTEX
8
Sketch
10
211.9
20
-17.7
0
VERTEX
8
Sketch
10
213.1
20
-18.1
0
VERTEX
8
Sketch
10
215.3
20
-18.5
0
VERTEX
8
Sketch
10
215.9
20
-18.9
0
VERTEX
8
Sketch
10
218.1
20
-19.3
0
VERTEX
8
Sketch
10
219.1
20
-19.3
0
VERTEX
8
Sketch
10
220.3
20
-19.7
0
VERTEX
8
Sketch
10
221.7
20
-19.7
0
VERTEX
8
Sketch
10
222.5
20
-19.5
0
VERTEX
8
Sketch
10
223.3
20
-19.5
0
VERTEX
8
Sketch
10
224.5
20
-19.1
0
SEQEND
0
POLYLINE
66
1
8
Sketch
62
0
0
VERTEX
8
Sketch
10
176.7
20
8.9
0
VERTEX
8
Sketch
10
177.1
20
8.5
0
VERTEX
8
Sketch
10
177.5
20
8.9
0
VERTEX
8
Sketch
10
178.3
20
8.9
0
VERTEX
8
Sketch
10
178.7
20
9.3
0
VERTEX
8
Sketch
10
179.1
20
9.1
0
VERTEX
8
Sketch
10
179.5
20
9.5
0
VERTEX
8
Sketch
10
179.9
20
9.5
0
VERTEX
8
Sketch
10
180.7
20
10.1
0
VERTEX
8
Sketch
10
182.5
20
10.5
0
VERTEX
8
Sketch
10
185.1
20
11.7
0
VERTEX
8
Sketch
10
185.9
20
11.7
0
VERTEX
8
Sketch
10
187.1
20
12.1
0
VERTEX
8
Sketch
10
190.1
20
11.1
0
VERTEX
8
Sketch
10
192.3
20
9.3
0
VERTEX
8
Sketch
10
192.7
20
9.3
0
VERTEX
8
Sketch
10
192.7
20
8.9
0
VERTEX
8
Sketch
10
195.9
20
6.5
0
VERTEX
8
Sketch
10
198.3
20
4.5
0
VERTEX
8
Sketch
10
198.5
20
3.9
0
VERTEX
8
Sketch
10
205.7
20
-2.7
0
VERTEX
8
Sketch
10
206.7
20
-3.3
0
VERTEX
8
Sketch
10
208.3
20
-4.7
0
VERTEX
8
Sketch
10
210.9
20
-7.1
0
VERTEX
8
Sketch
10
211.9
20
-7.3
0
VERTEX
8
Sketch
10
212.9
20
-8.3
0
VERTEX
8
Sketch
10
213.5
20
-8.3
0
VERTEX
8
Sketch
10
214.9
20
-9.1
0
VERTEX
8
Sketch
10
215.7
20
-9.3
0
VERTEX
8
Sketch
10
216.9
20
-9.9
0
VERTEX
8
Sketch
10
217.3
20
-9.9
0
VERTEX
8
Sketch
10
217.7
20
-10.3
0
VERTEX
8
Sketch
10
218.1
20
-10.3
0
VERTEX
8
Sketch
10
219.3
20
-11.1
0
VERTEX
8
Sketch
10
219.7
20
-10.9
0
VERTEX
8
Sketch
10
221.3
20
-11.5
0
VERTEX
8
Sketch
10
221.9
20
-11.5
0
VERTEX
8
Sketch
10
222.3
20
-11.9
0
VERTEX
8
Sketch
10
223.9
20
-11.7
0
VERTEX
8
Sketch
10
224.3
20
-11.7
0
VERTEX
8
Sketch
10
224.7
20
-11.3
0
VERTEX
8
Sketch
10
225.5
20
-11.3
0
VERTEX
8
Sketch
10
227.5
20
-10.1
0
VERTEX
8
Sketch
10
229.3
20
-8.3
0
SEQEND
0
POLYLINE
66
1
8
Sketch
62
0
0
VERTEX
8
Sketch
10
148.9
20
-6.3
0
VERTEX
8
Sketch
10
149.3
20
-6.5
0
VERTEX
8
Sketch
10
150.5
20
-6.3
0
VERTEX
8
Sketch
10
152.3
20
-6.3
0
VERTEX
8
Sketch
10
154.3
20
-5.9
0
VERTEX
8
Sketch
10
156.1
20
-6.1
0
VERTEX
8
Sketch
10
157.9
20
-6.1
0
VERTEX
8
Sketch
10
159.3
20
-6.5
0
VERTEX
8
Sketch
10
159.7
20
-6.5
0
VERTEX
8
Sketch
10
160.3
20
-6.9
0
VERTEX
8
Sketch
10
162.5
20
-7.1
0
VERTEX
8
Sketch
10
164.1
20
-7.5
0
VERTEX
8
Sketch
10
164.5
20
-7.9
0
VERTEX
8
Sketch
10
166.7
20
-8.1
0
VERTEX
8
Sketch
10
169.9
20
-8.1
0
VERTEX
8
Sketch
10
170.3
20
-8.3
0
VERTEX
8
Sketch
10
171.7
20
-7.9
0
VERTEX
8
Sketch
10
173.3
20
-8.1
0
VERTEX
8
Sketch
10
174.5
20
-7.9
0
VERTEX
8
Sketch
10
175.1
20
-8.1
0
VERTEX
8
Sketch
10
176.7
20
-7.7
0
VERTEX
8
Sketch
10
177.7
20
-7.7
0
VERTEX
8
Sketch
10
178.1
20
-7.9
0
VERTEX
8
Sketch
10
178.9
20
-7.9
0
VERTEX
8
Sketch
10
179.3
20
-7.7
0
SEQEND
0
POLYLINE
66
1
8
Sketch
62
0
0
VERTEX
8
Sketch
10
150.1
20
6.5
0
VERTEX
8
Sketch
10
150.3
20
6.1
0
VERTEX
8
Sketch
10
150.7
20
6.3
0
VERTEX
8
Sketch
10
153.9
20
5.5
0
VERTEX
8
Sketch
10
154.3
20
5.7
0
VERTEX
8
Sketch
10
155.1
20
5.5
0
VERTEX
8
Sketch
10
156.1
20
5.7
0
VERTEX
8
Sketch
10
157.9
20
5.7
0
VERTEX
8
Sketch
10
159.3
20
5.5
0
VERTEX
8
Sketch
10
160.3
20
5.7
0
VERTEX
8
Sketch
10
161.1
20
5.5
0
VERTEX
8
Sketch
10
162.1
20
5.5
0
VERTEX
8
Sketch
10
164.1
20
5.9
0
VERTEX
8
Sketch
10
165.1
20
5.9
0
VERTEX
8
Sketch
10
167.7
20
6.5
0
VERTEX
8
Sketch
10
169.9
20
6.9
0
VERTEX
8
Sketch
10
170.5
20
6.9
0
VERTEX
8
Sketch
10
171.7
20
7.3
0
VERTEX
8
Sketch
10
172.1
20
7.3
0
VERTEX
8
Sketch
10
172.5
20
7.7
0
VERTEX
8
Sketch
10
173.9
20
7.7
0
VERTEX
8
Sketch
10
176.7
20
8.5
0
VERTEX
8
Sketch
10
177.1
20
8.5
0
SEQEND
0
POLYLINE
66
1
8
Sketch
62
0
0
VERTEX
8
Sketch
10
94.9
20
-3.9
0
VERTEX
8
Sketch
10
96.1
20
-3.1
0
SEQEND
0
POLYLINE
66
1
8
Sketch
62
0
0
VERTEX
8
Sketch
10
91.7
20
-6.9
0
VERTEX
8
Sketch
10
92.7
20
-5.7
0
SEQEND
0
POLYLINE
66
1
8
Sketch
62
0
0
VERTEX
8
Sketch
10
88.3
20
-5.7
0
VERTEX
8
Sketch
10
88.3
20
-6.7
0
VERTEX
8
Sketch
10
88.5
20
-7.1
0
SEQEND
0
POLYLINE
66
1
8
Sketch
62
0
0
VERTEX
8
Sketch
10
86.7
20
-3.5
0
VERTEX
8
Sketch
10
87.5
20
-4.7
0
SEQEND
0
POLYLINE
66
1
8
Sketch
62
0
0
VERTEX
8
Sketch
10
98.9
20
-2.9
0
VERTEX
8
Sketch
10
99.9
20
-3.1
0
VERTEX
8
Sketch
10
102.1
20
-3.3
0
VERTEX
8
Sketch
10
103.5
20
-3.1
0
VERTEX
8
Sketch
10
105.9
20
-3.5
0
VERTEX
8
Sketch
10
106.9
20
-3.5
0
VERTEX
8
Sketch
10
108.1
20
-3.3
0
VERTEX
8
Sketch
10
109.9
20
-3.3
0
VERTEX
8
Sketch
10
113.3
20
-3.9
0
VERTEX
8
Sketch
10
114.7
20
-3.9
0
VERTEX
8
Sketch
10
116.1
20
-4.1
0
VERTEX
8
Sketch
10
117.3
20
-4.1
0
VERTEX
8
Sketch
10
120.1
20
-4.5
0
VERTEX
8
Sketch
10
123.7
20
-4.9
0
VERTEX
8
Sketch
10
124.9
20
-5.1
0
VERTEX
8
Sketch
10
126.9
20
-4.9
0
VERTEX
8
Sketch
10
129.3
20
-4.9
0
VERTEX
8
Sketch
10
132.7
20
-5.7
0
VERTEX
8
Sketch
10
133.1
20
-5.5
0
VERTEX
8
Sketch
10
134.5
20
-5.7
0
VERTEX
8
Sketch
10
136.7
20
-5.7
0
VERTEX
8
Sketch
10
137.7
20
-5.5
0
VERTEX
8
Sketch
10
141.1
20
-5.5
0
VERTEX
8
Sketch
10
141.5
20
-5.7
0
VERTEX
8
Sketch
10
142.3
20
-5.7
0
VERTEX
8
Sketch
10
142.7
20
-5.5
0
VERTEX
8
Sketch
10
144.1
20
-5.9
0
VERTEX
8
Sketch
10
144.9
20
-5.7
0
VERTEX
8
Sketch
10
146.1
20
-5.7
0
VERTEX
8
Sketch
10
146.5
20
-5.5
0
VERTEX
8
Sketch
10
146.9
20
-5.9
0
VERTEX
8
Sketch
10
147.7
20
-5.9
0
VERTEX
8
Sketch
10
148.5
20
-5.5
0
VERTEX
8
Sketch
10
149.9
20
-5.7
0
VERTEX
8
Sketch
10
150.3
20
-5.7
0
SEQEND
0
POLYLINE
66
1
8
Sketch
62
0
0
VERTEX
8
Sketch
10
96.5
20
9.1
0
VERTEX
8
Sketch
10
97.3
20
8.9
0
VERTEX
8
Sketch
10
98.9
20
8.9
0
VERTEX
8
Sketch
10
100.9
20
9.1
0
VERTEX
8
Sketch
10
101.3
20
9.3
0
VERTEX
8
Sketch
10
103.3
20
9.3
0
VERTEX
8
Sketch
10
103.7
20
9.1
0
VERTEX
8
Sketch
10
104.9
20
9.3
0
VERTEX
8
Sketch
10
105.3
20
9.1
0
VERTEX
8
Sketch
10
106.5
20
9.3
0
VERTEX
8
Sketch
10
108.1
20
9.5
0
VERTEX
8
Sketch
10
110.7
20
9.1
0
VERTEX
8
Sketch
10
112.9
20
9.1
0
VERTEX
8
Sketch
10
114.9
20
9.3
0
VERTEX
8
Sketch
10
115.9
20
9.3
0
VERTEX
8
Sketch
10
116.3
20
9.1
0
VERTEX
8
Sketch
10
117.3
20
9.3
0
VERTEX
8
Sketch
10
121.5
20
9.3
0
VERTEX
8
Sketch
10
122.7
20
9.1
0
VERTEX
8
Sketch
10
124.5
20
9.1
0
VERTEX
8
Sketch
10
126.1
20
8.7
0
VERTEX
8
Sketch
10
130.5
20
8.1
0
VERTEX
8
Sketch
10
131.5
20
7.9
0
VERTEX
8
Sketch
10
132.3
20
7.9
0
VERTEX
8
Sketch
10
133.7
20
7.5
0
VERTEX
8
Sketch
10
134.5
20
7.7
0
VERTEX
8
Sketch
10
135.5
20
7.5
0
VERTEX
8
Sketch
10
136.3
20
7.5
0
VERTEX
8
Sketch
10
137.1
20
7.3
0
VERTEX
8
Sketch
10
138.1
20
7.3
0
VERTEX
8
Sketch
10
139.1
20
7.1
0
VERTEX
8
Sketch
10
142.9
20
7.1
0
VERTEX
8
Sketch
10
144.5
20
6.7
0
VERTEX
8
Sketch
10
144.9
20
6.9
0
VERTEX
8
Sketch
10
145.7
20
6.7
0
VERTEX
8
Sketch
10
147.3
20
6.7
0
VERTEX
8
Sketch
10
148.1
20
6.9
0
VERTEX
8
Sketch
10
149.1
20
6.7
0
VERTEX
8
Sketch
10
150.3
20
6.9
0
SEQEND
0
POLYLINE
66
1
8
Sketch
62
0
0
VERTEX
8
Sketch
10
57.9
20
-6.9
0
VERTEX
8
Sketch
10
58.7
20
-6.9
0
VERTEX
8
Sketch
10
59.1
20
-6.7
0
VERTEX
8
Sketch
10
60.1
20
-6.9
0
VERTEX
8
Sketch
10
61.7
20
-6.5
0
VERTEX
8
Sketch
10
62.5
20
-6.7
0
VERTEX
8
Sketch
10
63.5
20
-6.5
0
VERTEX
8
Sketch
10
64.9
20
-6.1
0
VERTEX
8
Sketch
10
66.1
20
-6.3
0
VERTEX
8
Sketch
10
67.1
20
-6.3
0
VERTEX
8
Sketch
10
68.5
20
-5.9
0
VERTEX
8
Sketch
10
70.1
20
-5.7
0
VERTEX
8
Sketch
10
71.3
20
-5.3
0
VERTEX
8
Sketch
10
72.9
20
-5.3
0
VERTEX
8
Sketch
10
73.9
20
-4.9
0
VERTEX
8
Sketch
10
74.5
20
-4.9
0
VERTEX
8
Sketch
10
75.7
20
-4.5
0
VERTEX
8
Sketch
10
76.7
20
-4.5
0
VERTEX
8
Sketch
10
77.5
20
-4.3
0
VERTEX
8
Sketch
10
78.9
20
-4.3
0
VERTEX
8
Sketch
10
80.1
20
-3.9
0
VERTEX
8
Sketch
10
81.5
20
-4.1
0
VERTEX
8
Sketch
10
82.9
20
-4.1
0
VERTEX
8
Sketch
10
83.7
20
-3.9
0
VERTEX
8
Sketch
10
85.1
20
-3.9
0
VERTEX
8
Sketch
10
86.5
20
-4.1
0
VERTEX
8
Sketch
10
87.1
20
-4.1
0
VERTEX
8
Sketch
10
87.5
20
-4.3
0
VERTEX
8
Sketch
10
88.5
20
-4.1
0
VERTEX
8
Sketch
10
92.1
20
-4.1
0
VERTEX
8
Sketch
10
92.7
20
-3.9
0
VERTEX
8
Sketch
10
93.9
20
-4.3
0
VERTEX
8
Sketch
10
94.7
20
-3.9
0
VERTEX
8
Sketch
10
96.1
20
-4.1
0
VERTEX
8
Sketch
10
96.9
20
-3.7
0
VERTEX
8
Sketch
10
97.3
20
-3.9
0
VERTEX
8
Sketch
10
97.7
20
-3.7
0
VERTEX
8
Sketch
10
98.1
20
-3.9
0
SEQEND
0
POLYLINE
66
1
8
Sketch
62
0
0
VERTEX
8
Sketch
10
53.9
20
6.9
0
VERTEX
8
Sketch
10
55.7
20
6.9
0
VERTEX
8
Sketch
10
56.7
20
6.7
0
VERTEX
8
Sketch
10
58.5
20
6.5
0
VERTEX
8
Sketch
10
59.9
20
6.7
0
VERTEX
8
Sketch
10
60.7
20
6.5
0
VERTEX
8
Sketch
10
61.5
20
6.9
0
VERTEX
8
Sketch
10
62.3
20
6.7
0
VERTEX
8
Sketch
10
64.1
20
7.1
0
VERTEX
8
Sketch
10
65.1
20
7.1
0
VERTEX
8
Sketch
10
65.9
20
7.3
0
VERTEX
8
Sketch
10
67.3
20
7.1
0
VERTEX
8
Sketch
10
68.1
20
7.3
0
VERTEX
8
Sketch
10
70.3
20
7.3
0
VERTEX
8
Sketch
10
71.1
20
7.5
0
VERTEX
8
Sketch
10
72.5
20
7.5
0
VERTEX
8
Sketch
10
73.9
20
7.9
0
VERTEX
8
Sketch
10
74.5
20
7.7
0
VERTEX
8
Sketch
10
75.5
20
7.9
0
VERTEX
8
Sketch
10
76.5
20
7.9
0
VERTEX
8
Sketch
10
76.9
20
8.1
0
VERTEX
8
Sketch
10
77.5
20
7.9
0
VERTEX
8
Sketch
10
78.3
20
8.1
0
VERTEX
8
Sketch
10
81.9
20
8.1
0
VERTEX
8
Sketch
10
82.7
20
7.7
0
VERTEX
8
Sketch
10
83.7
20
7.9
0
VERTEX
8
Sketch
10
86.1
20
7.9
0
VERTEX
8
Sketch
10
87.5
20
8.1
0
VERTEX
8
Sketch
10
89.5
20
7.9
0
VERTEX
8
Sketch
10
90.3
20
8.1
0
VERTEX
8
Sketch
10
90.9
20
7.9
0
VERTEX
8
Sketch
10
91.3
20
8.1
0
VERTEX
8
Sketch
10
93.5
20
7.7
0
VERTEX
8
Sketch
10
94.1
20
7.9
0
VERTEX
8
Sketch
10
94.5
20
7.7
0
VERTEX
8
Sketch
10
95.3
20
7.9
0
VERTEX
8
Sketch
10
96.1
20
7.7
0
VERTEX
8
Sketch
10
96.9
20
8.1
0
VERTEX
8
Sketch
10
97.3
20
7.9
0
SEQEND
0
POLYLINE
66
1
8
Sketch
62
0
0
VERTEX
8
Sketch
10
0.7
20
6.9
0
VERTEX
8
Sketch
10
2.5
20
6.5
0
VERTEX
8
Sketch
10
4.1
20
5.9
0
VERTEX
8
Sketch
10
4.7
20
5.9
0
VERTEX
8
Sketch
10
5.1
20
5.7
0
VERTEX
8
Sketch
10
5.5
20
5.9
0
VERTEX
8
Sketch
10
6.3
20
5.5
0
VERTEX
8
Sketch
10
6.7
20
5.7
0
VERTEX
8
Sketch
10
8.3
20
5.1
0
VERTEX
8
Sketch
10
9.3
20
5.5
0
VERTEX
8
Sketch
10
10.1
20
5.3
0
VERTEX
8
Sketch
10
10.7
20
5.7
0
VERTEX
8
Sketch
10
12.3
20
5.7
0
VERTEX
8
Sketch
10
14.3
20
6.3
0
VERTEX
8
Sketch
10
15.3
20
6.3
0
VERTEX
8
Sketch
10
15.7
20
6.5
0
VERTEX
8
Sketch
10
16.1
20
6.3
0
VERTEX
8
Sketch
10
16.5
20
6.5
0
VERTEX
8
Sketch
10
17.5
20
6.3
0
VERTEX
8
Sketch
10
18.7
20
6.3
0
VERTEX
8
Sketch
10
20.1
20
5.9
0
VERTEX
8
Sketch
10
21.5
20
5.9
0
VERTEX
8
Sketch
10
22.5
20
5.7
0
VERTEX
8
Sketch
10
23.1
20
5.7
0
VERTEX
8
Sketch
10
24.1
20
5.5
0
VERTEX
8
Sketch
10
25.3
20
5.5
0
VERTEX
8
Sketch
10
26.1
20
5.3
0
VERTEX
8
Sketch
10
27.1
20
5.3
0
VERTEX
8
Sketch
10
27.9
20
5.1
0
VERTEX
8
Sketch
10
29.9
20
5.1
0
VERTEX
8
Sketch
10
30.7
20
5.3
0
VERTEX
8
Sketch
10
31.5
20
5.3
0
VERTEX
8
Sketch
10
32.9
20
5.1
0
VERTEX
8
Sketch
10
36.5
20
5.1
0
VERTEX
8
Sketch
10
38.1
20
5.7
0
VERTEX
8
Sketch
10
38.9
20
5.5
0
VERTEX
8
Sketch
10
39.9
20
5.7
0
VERTEX
8
Sketch
10
40.7
20
5.7
0
VERTEX
8
Sketch
10
41.5
20
5.9
0
VERTEX
8
Sketch
10
47.1
20
5.9
0
VERTEX
8
Sketch
10
48.5
20
6.3
0
VERTEX
8
Sketch
10
49.3
20
6.1
0
VERTEX
8
Sketch
10
50.1
20
6.3
0
VERTEX
8
Sketch
10
51.1
20
6.1
0
VERTEX
8
Sketch
10
51.9
20
5.9
0
VERTEX
8
Sketch
10
52.3
20
6.3
0
VERTEX
8
Sketch
10
53.1
20
6.1
0
VERTEX
8
Sketch
10
55.1
20
6.1
0
SEQEND
0
POINT
8
Sketch
62
0
10
32.8
20
20.4
0
POLYLINE
66
1
8
Sketch
62
0
0
VERTEX
8
Sketch
10
33.4
20
-8.1
0
VERTEX
8
Sketch
10
33.6
20
-8.3
0
VERTEX
8
Sketch
10
34.1
20
-8.2
0
VERTEX
8
Sketch
10
34.4
20
-8.3
0
VERTEX
8
Sketch
10
36.1
20
-8.3
0
VERTEX
8
Sketch
10
36.4
20
-8.4
0
VERTEX
8
Sketch
10
37
20
-8.4
0
VERTEX
8
Sketch
10
37.2
20
-8.3
0
VERTEX
8
Sketch
10
39.4
20
-8.5
0
VERTEX
8
Sketch
10
40.1
20
-8.6
0
VERTEX
8
Sketch
10
41.1
20
-8.7
0
VERTEX
8
Sketch
10
41.8
20
-8.6
0
VERTEX
8
Sketch
10
44.1
20
-8.8
0
VERTEX
8
Sketch
10
46.3
20
-8.5
0
VERTEX
8
Sketch
10
47.4
20
-8.5
0
VERTEX
8
Sketch
10
49.9
20
-8.3
0
VERTEX
8
Sketch
10
51.2
20
-8.3
0
VERTEX
8
Sketch
10
53.8
20
-8.1
0
VERTEX
8
Sketch
10
54.8
20
-8
0
VERTEX
8
Sketch
10
56
20
-8.1
0
VERTEX
8
Sketch
10
57.6
20
-8.1
0
VERTEX
8
Sketch
10
57.8
20
-8
0
VERTEX
8
Sketch
10
58.2
20
-8.1
0
SEQEND
0
POLYLINE
66
1
8
Sketch
62
0
0
VERTEX
8
Sketch
10
2.8
20
-7.6
0
VERTEX
8
Sketch
10
3.2
20
-7.5
0
VERTEX
8
Sketch
10
5.3
20
-7.8
0
VERTEX
8
Sketch
10
6.2
20
-7.8
0
VERTEX
8
Sketch
10
6.4
20
-7.9
0
VERTEX
8
Sketch
10
6.6
20
-7.8
0
VERTEX
8
Sketch
10
7.2
20
-8
0
VERTEX
8
Sketch
10
7.9
20
-8
0
VERTEX
8
Sketch
10
8.1
20
-7.9
0
VERTEX
8
Sketch
10
8.6
20
-8
0
VERTEX
8
Sketch
10
9.1
20
-8
0
VERTEX
8
Sketch
10
9.6
20
-8.1
0
VERTEX
8
Sketch
10
12.3
20
-8.1
0
VERTEX
8
Sketch
10
12.8
20
-8
0
VERTEX
8
Sketch
10
13.2
20
-7.9
0
VERTEX
8
Sketch
10
14.2
20
-8.1
0
VERTEX
8
Sketch
10
14.6
20
-8.1
0
VERTEX
8
Sketch
10
15.6
20
-7.9
0
VERTEX
8
Sketch
10
16.5
20
-7.9
0
VERTEX
8
Sketch
10
16.9
20
-8
0
VERTEX
8
Sketch
10
17.3
20
-7.9
0
VERTEX
8
Sketch
10
17.8
20
-7.9
0
VERTEX
8
Sketch
10
18.2
20
-7.8
0
VERTEX
8
Sketch
10
19
20
-7.8
0
VERTEX
8
Sketch
10
19.6
20
-7.6
0
VERTEX
8
Sketch
10
20.1
20
-7.7
0
VERTEX
8
Sketch
10
20.5
20
-7.6
0
VERTEX
8
Sketch
10
20.7
20
-7.7
0
VERTEX
8
Sketch
10
21.2
20
-7.6
0
VERTEX
8
Sketch
10
21.8
20
-7.8
0
VERTEX
8
Sketch
10
22.3
20
-7.7
0
VERTEX
8
Sketch
10
22.7
20
-7.8
0
VERTEX
8
Sketch
10
22.9
20
-7.6
0
VERTEX
8
Sketch
10
23.7
20
-7.8
0
VERTEX
8
Sketch
10
24.7
20
-7.8
0
VERTEX
8
Sketch
10
24.9
20
-7.7
0
VERTEX
8
Sketch
10
25.7
20
-7.9
0
VERTEX
8
Sketch
10
26.3
20
-7.9
0
VERTEX
8
Sketch
10
26.6
20
-8
0
VERTEX
8
Sketch
10
26.9
20
-7.9
0
VERTEX
8
Sketch
10
27.8
20
-8
0
VERTEX
8
Sketch
10
28.5
20
-8
0
VERTEX
8
Sketch
10
29.4
20
-8.2
0
VERTEX
8
Sketch
10
30.7
20
-8.2
0
VERTEX
8
Sketch
10
32.6
20
-8.4
0
VERTEX
8
Sketch
10
33.1
20
-8.5
0
VERTEX
8
Sketch
10
33.8
20
-8.5
0
SEQEND
0
POLYLINE
66
1
8
Sketch
62
0
0
VERTEX
8
Sketch
10
-4.1
20
-14.7
0
VERTEX
8
Sketch
10
-3.9
20
-14.6
0
VERTEX
8
Sketch
10
-3.7
20
-13.1
0
VERTEX
8
Sketch
10
-3.5
20
-12.2
0
VERTEX
8
Sketch
10
-2.9
20
-10.4
0
VERTEX
8
Sketch
10
-2.4
20
-9.6
0
VERTEX
8
Sketch
10
-1.3
20
-8.5
0
VERTEX
8
Sketch
10
-0.7
20
-8.1
0
VERTEX
8
Sketch
10
-0.5
20
-7.9
0
VERTEX
8
Sketch
10
1
20
-7.6
0
VERTEX
8
Sketch
10
1.4
20
-7.6
0
VERTEX
8
Sketch
10
1.6
20
-7.7
0
VERTEX
8
Sketch
10
2.2
20
-7.5
0
VERTEX
8
Sketch
10
3.1
20
-7.6
0
VERTEX
8
Sketch
10
3.3
20
-7.5
0
VERTEX
8
Sketch
10
3.7
20
-7.6
0
SEQEND
0
POLYLINE
66
1
8
Sketch
62
0
0
VERTEX
8
Sketch
10
-2.6
20
12.1
0
VERTEX
8
Sketch
10
-2.4
20
11.7
0
VERTEX
8
Sketch
10
-2.4
20
11.4
0
VERTEX
8
Sketch
10
-2.3
20
11.2
0
VERTEX
8
Sketch
10
-2.4
20
11
0
VERTEX
8
Sketch
10
-2.3
20
10.6
0
VERTEX
8
Sketch
10
-2.4
20
10.2
0
VERTEX
8
Sketch
10
-2.4
20
9.7
0
VERTEX
8
Sketch
10
-2.2
20
8.9
0
VERTEX
8
Sketch
10
-2
20
7.8
0
VERTEX
8
Sketch
10
-0.7
20
7.1
0
VERTEX
8
Sketch
10
0.3
20
6.7
0
VERTEX
8
Sketch
10
0.7
20
6.8
0
VERTEX
8
Sketch
10
1.1
20
6.7
0
VERTEX
8
Sketch
10
1.3
20
6.8
0
SEQEND
0
LINE
8
Shots
62
1
10
695.714
20
-33.554
11
702.74
21
-42.218
0
CIRCLE
8
Shots
62
1
10
702.74
20
-42.218
40
0.1
0
LINE
8
Shots
62
1
10
679.484
20
-22.072
11
695.714
21
-33.554
0
CIRCLE
8
Shots
62
1
10
695.714
20
-33.554
40
0.1
0
LINE
8
XSect
62
1
6
DASH
10
695.714
20
-33.554
11
695.01
21
-32.84
0
LINE
8
XSect
62
1
10
695.714
20
-33.554
11
697.07
21
-32.578
0
LINE
8
XSect
62
1
10
695.714
20
-33.554
11
695.038
21
-30.844
0
LINE
8
XSect
62
1
10
695.714
20
-33.554
11
698.902
21
-38.892
0
LINE
8
XSect
62
1
10
695.714
20
-33.554
11
688.798
21
-33.676
0
LINE
8
Shots
62
1
10
673.884
20
-21.434
11
679.484
21
-22.072
0
CIRCLE
8
Shots
62
1
10
679.484
20
-22.072
40
0.1
0
LINE
8
XSect
62
1
6
DASH
10
679.484
20
-22.072
11
679.33
21
-22.162
0
LINE
8
XSect
62
1
6
DASH
10
679.484
20
-22.072
11
679.528
21
-22.038
0
LINE
8
XSect
62
1
10
679.484
20
-22.072
11
679.476
21
-21.192
0
LINE
8
XSect
62
1
10
679.484
20
-22.072
11
679.538
21
-23.832
0
LINE
8
Shots
62
1
10
668.406
20
-20.892
11
673.884
21
-21.434
0
CIRCLE
8
Shots
62
1
10
673.884
20
-21.434
40
0.1
0
LINE
8
XSect
62
1
6
DASH
10
673.884
20
-21.434
11
674.02
21
-21.398
0
LINE
8
XSect
62
1
6
DASH
10
673.884
20
-21.434
11
673.672
21
-21.558
0
LINE
8
XSect
62
1
10
673.884
20
-21.434
11
674.082
21
-20.128
0
LINE
8
XSect
62
1
10
673.884
20
-21.434
11
673.844
21
-23.29
0
LINE
8
Shots
62
1
10
664.584
20
-20.71
11
668.406
21
-20.892
0
CIRCLE
8
Shots
62
1
10
668.406
20
-20.892
40
0.1
0
LINE
8
XSect
62
1
6
DASH
10
668.406
20
-20.892
11
667.848
21
-21.684
0
LINE
8
XSect
62
1
6
DASH
10
668.406
20
-20.892
11
668.478
21
-21
0
LINE
8
XSect
62
1
10
668.406
20
-20.892
11
668.412
21
-19.846
0
LINE
8
XSect
62
1
10
668.406
20
-20.892
11
668.388
21
-23.052
0
LINE
8
Shots
62
1
10
652.962
20
-30.944
11
664.584
21
-20.71
0
CIRCLE
8
Shots
62
1
10
664.584
20
-20.71
40
0.1
0
LINE
8
XSect
62
1
6
DASH
10
664.584
20
-20.71
11
664.566
21
-20.736
0
LINE
8
XSect
62
1
6
DASH
10
664.584
20
-20.71
11
664.482
21
-20.734
0
LINE
8
XSect
62
1
10
664.584
20
-20.71
11
664.494
21
-19.64
0
LINE
8
XSect
62
1
10
664.584
20
-20.71
11
664.756
21
-23.668
0
LINE
8
Shots
62
1
10
645.532
20
-39.774
11
652.962
21
-30.944
0
CIRCLE
8
Shots
62
1
10
652.962
20
-30.944
40
0.1
0
LINE
8
XSect
62
1
10
652.962
20
-30.944
11
652.768
21
-30.782
0
LINE
8
XSect
62
1
6
DASH
10
652.962
20
-30.944
11
654.25
21
-29.724
0
LINE
8
XSect
62
1
10
652.962
20
-30.944
11
655.892
21
-23.482
0
LINE
8
XSect
62
1
10
652.962
20
-30.944
11
653.08
21
-33.942
0
LINE
8
Shots
62
1
10
641.832
20
-39.534
11
645.532
21
-39.774
0
CIRCLE
8
Shots
62
1
10
645.532
20
-39.774
40
0.1
0
LINE
8
XSect
62
1
10
645.532
20
-39.774
11
643.472
21
-39.656
0
LINE
8
XSect
62
1
10
645.532
20
-39.774
11
646.354
21
-40.006
0
LINE
8
XSect
62
1
10
645.532
20
-39.774
11
645.262
21
-35.676
0
LINE
8
XSect
62
1
10
645.532
20
-39.774
11
646.268
21
-43.846
0
LINE
8
Shots
62
1
10
633.462
20
-33.526
11
641.832
21
-39.534
0
CIRCLE
8
Shots
62
1
10
641.832
20
-39.534
40
0.1
0
LINE
8
XSect
62
1
6
DASH
10
641.832
20
-39.534
11
641.842
21
-39.646
0
LINE
8
XSect
62
1
6
DASH
10
641.832
20
-39.534
11
641.512
21
-38.218
0
LINE
8
XSect
62
1
10
641.832
20
-39.534
11
642.05
21
-36.686
0
LINE
8
XSect
62
1
10
641.832
20
-39.534
11
642.696
21
-43.18
0
LINE
8
Shots
62
1
10
609.83
20
-19.104
11
633.462
21
-33.526
0
CIRCLE
8
Shots
62
1
10
633.462
20
-33.526
40
0.1
0
LINE
8
XSect
62
1
6
DASH
10
633.462
20
-33.526
11
634.094
21
-32.922
0
LINE
8
XSect
62
1
6
DASH
10
633.462
20
-33.526
11
629.71
21
-33.7
0
LINE
8
XSect
62
1
10
633.462
20
-33.526
11
633.252
21
-30.862
0
LINE
8
XSect
62
1
10
633.462
20
-33.526
11
632.412
21
-36.626
0
LINE
8
Shots
62
1
10
598.724
20
-16.056
11
609.83
21
-19.104
0
CIRCLE
8
Shots
62
1
10
609.83
20
-19.104
40
0.1
0
LINE
8
XSect
62
1
6
DASH
10
609.83
20
-19.104
11
610.296
21
-19.064
0
LINE
8
XSect
62
1
6
DASH
10
609.83
20
-19.104
11
607.644
21
-18.12
0
LINE
8
XSect
62
1
10
609.83
20
-19.104
11
612.056
21
-14.262
0
LINE
8
XSect
62
1
10
609.83
20
-19.104
11
609.464
21
-22.71
0
LINE
8
Shots
62
1
10
586.414
20
-9.012
11
598.724
21
-16.056
0
CIRCLE
8
Shots
62
1
10
598.724
20
-16.056
40
0.1
0
LINE
8
XSect
62
1
6
DASH
10
598.724
20
-16.056
11
598.29
21
-15.97
0
LINE
8
XSect
62
1
6
DASH
10
598.724
20
-16.056
11
598.762
21
-16.082
0
LINE
8
XSect
62
1
10
598.724
20
-16.056
11
598.672
21
-14.786
0
LINE
8
XSect
62
1
10
598.724
20
-16.056
11
599.1
21
-18.006
0
LINE
8
Shots
62
1
10
544.202
20
21.014
11
586.414
21
-9.012
0
CIRCLE
8
Shots
62
1
10
586.414
20
-9.012
40
0.1
0
LINE
8
XSect
62
1
6
DASH
10
586.414
20
-9.012
11
585.748
21
-11.156
0
LINE
8
XSect
62
1
6
DASH
10
586.414
20
-9.012
11
586.318
21
-8.988
0
LINE
8
XSect
62
1
10
586.414
20
-9.012
11
584.928
21
-5.978
0
LINE
8
XSect
62
1
10
586.414
20
-9.012
11
584.36
21
-13.746
0
LINE
8
Shots
62
1
10
519.822
20
8.062
11
544.202
21
21.014
0
CIRCLE
8
Shots
62
1
10
544.202
20
21.014
40
0.1
0
LINE
8
XSect
62
1
10
544.202
20
21.014
11
535.568
21
81.124
0
LINE
8
XSect
62
1
6
DASH
10
544.202
20
21.014
11
540.042
21
22.006
0
LINE
8
XSect
62
1
6
DASH
10
544.202
20
21.014
11
544.832
21
20.944
0
LINE
8
XSect
62
1
10
544.202
20
21.014
11
543.4
21
29.168
0
LINE
8
XSect
62
1
10
544.202
20
21.014
11
543.788
21
19.142
0
LINE
8
Shots
62
1
10
515.554
20
1.792
11
519.822
21
8.062
0
CIRCLE
8
Shots
62
1
10
519.822
20
8.062
40
0.1
0
LINE
8
XSect
62
1
6
DASH
10
519.822
20
8.062
11
518.822
21
11.038
0
LINE
8
XSect
62
1
6
DASH
10
519.822
20
8.062
11
519.858
21
8.052
0
LINE
8
XSect
62
1
10
519.822
20
8.062
11
520.488
21
13.502
0
LINE
8
XSect
62
1
10
519.822
20
8.062
11
520.33
21
5.548
0
LINE
8
Shots
62
1
10
495.776
20
9.822
11
515.554
21
1.792
0
CIRCLE
8
Shots
62
1
10
515.554
20
1.792
40
0.1
0
LINE
8
XSect
62
1
6
DASH
10
515.554
20
1.792
11
512.462
21
4.476
0
LINE
8
XSect
62
1
6
DASH
10
515.554
20
1.792
11
515.832
21
2.18
0
LINE
8
XSect
62
1
10
515.554
20
1.792
11
515.09
21
12.964
0
LINE
8
XSect
62
1
10
515.554
20
1.792
11
515.15
21
0.38
0
LINE
8
Shots
62
1
10
491.026
20
10.354
11
495.776
21
9.822
0
CIRCLE
8
Shots
62
1
10
495.776
20
9.822
40
0.1
0
LINE
8
XSect
62
1
6
DASH
10
495.776
20
9.822
11
495.952
21
11.784
0
LINE
8
XSect
62
1
6
DASH
10
495.776
20
9.822
11
497.28
21
12.44
0
LINE
8
XSect
62
1
10
495.776
20
9.822
11
496.744
21
20.86
0
LINE
8
XSect
62
1
10
495.776
20
9.822
11
496.226
21
7.688
0
LINE
8
Shots
62
1
10
482.194
20
9.728
11
491.026
21
10.354
0
CIRCLE
8
Shots
62
1
10
491.026
20
10.354
40
0.1
0
LINE
8
XSect
62
1
6
DASH
10
491.026
20
10.354
11
490.61
21
11.212
0
LINE
8
XSect
62
1
6
DASH
10
491.026
20
10.354
11
491.28
21
11.104
0
LINE
8
XSect
62
1
10
491.026
20
10.354
11
492.806
21
20.66
0
LINE
8
XSect
62
1
10
491.026
20
10.354
11
491.356
21
8.9
0
LINE
8
Shots
62
1
10
468.568
20
12.6
11
482.194
21
9.728
0
CIRCLE
8
Shots
62
1
10
482.194
20
9.728
40
0.1
0
LINE
8
Shots
62
1
10
427.6
20
3.344
11
468.568
21
12.6
0
CIRCLE
8
Shots
62
1
10
468.568
20
12.6
40
0.1
0
LINE
8
XSect
62
1
6
DASH
10
468.568
20
12.6
11
468.536
21
12.604
0
LINE
8
XSect
62
1
6
DASH
10
468.568
20
12.6
11
468.386
21
12.71
0
LINE
8
XSect
62
1
10
468.568
20
12.6
11
468.568
21
19.6
0
LINE
8
XSect
62
1
10
468.568
20
12.6
11
468.81
21
10.222
0
LINE
8
Shots
62
1
10
596.966
20
-32.04
11
603.602
21
-42.346
0
CIRCLE
8
Shots
62
1
10
603.602
20
-42.346
40
0.1
0
LINE
8
Shots
62
1
10
527.176
20
-27.238
11
596.966
21
-32.04
0
CIRCLE
8
Shots
62
1
10
596.966
20
-32.04
40
0.1
0
LINE
8
XSect
62
1
6
DASH
10
596.966
20
-32.04
11
593.832
21
-33.204
0
LINE
8
XSect
62
1
6
DASH
10
596.966
20
-32.04
11
597.674
21
-33.536
0
LINE
8
XSect
62
1
10
596.966
20
-32.04
11
592.322
21
15.47
0
LINE
8
XSect
62
1
10
596.966
20
-32.04
11
598.95
21
-37.242
0
LINE
8
XSect
62
1
10
596.966
20
-32.04
11
597.546
21
-32.938
0
LINE
8
XSect
62
1
10
596.966
20
-32.04
11
597.57
21
-32.948
0
LINE
8
Shots
62
1
10
496.138
20
-10.992
11
527.176
21
-27.238
0
CIRCLE
8
Shots
62
1
10
527.176
20
-27.238
40
0.1
0
LINE
8
XSect
62
1
6
DASH
10
527.176
20
-27.238
11
532.558
21
-25.328
0
LINE
8
XSect
62
1
6
DASH
10
527.176
20
-27.238
11
528.712
21
-26.438
0
LINE
8
XSect
62
1
10
527.176
20
-27.238
11
540.842
21
9.902
0
LINE
8
XSect
62
1
10
527.176
20
-27.238
11
528.028
21
-30.668
0
LINE
8
Shots
62
1
10
471.888
20
-3.028
11
496.138
21
-10.992
0
CIRCLE
8
Shots
62
1
10
496.138
20
-10.992
40
0.1
0
LINE
8
XSect
62
1
6
DASH
10
496.138
20
-10.992
11
496.09
21
-8.054
0
LINE
8
XSect
62
1
6
DASH
10
496.138
20
-10.992
11
507.844
21
-9.462
0
LINE
8
XSect
62
1
10
496.138
20
-10.992
11
503.616
21
10.832
0
LINE
8
XSect
62
1
10
496.138
20
-10.992
11
498.518
21
-18.94
0
LINE
8
Shots
62
1
10
456.21
20
-2.806
11
471.888
21
-3.028
0
CIRCLE
8
Shots
62
1
10
471.888
20
-3.028
40
0.1
0
LINE
8
XSect
62
1
6
DASH
10
471.888
20
-3.028
11
472.878
21
-0.586
0
LINE
8
XSect
62
1
6
DASH
10
471.888
20
-3.028
11
470.15
21
2.796
0
LINE
8
XSect
62
1
10
471.888
20
-3.028
11
471.662
21
-6.054
0
LINE
8
Shots
62
1
10
427.6
20
3.344
11
456.21
21
-2.806
0
CIRCLE
8
Shots
62
1
10
456.21
20
-2.806
40
0.1
0
LINE
8
XSect
62
1
6
DASH
10
456.21
20
-2.806
11
458.426
21
-1.016
0
LINE
8
XSect
62
1
6
DASH
10
456.21
20
-2.806
11
457.536
21
2.544
0
LINE
8
XSect
62
1
10
456.21
20
-2.806
11
458.13
21
11.5
0
LINE
8
XSect
62
1
10
456.21
20
-2.806
11
455.096
21
-7.478
0
LINE
8
Shots
62
1
10
371.992
20
-4.26
11
427.6
21
3.344
0
CIRCLE
8
Shots
62
1
10
427.6
20
3.344
40
0.1
0
LINE
8
XSect
62
1
10
427.6
20
3.344
11
456.694
21
-1.08
0
LINE
8
XSect
62
1
6
DASH
10
427.6
20
3.344
11
425.848
21
7.09
0
LINE
8
XSect
62
1
10
427.6
20
3.344
11
430.074
21
11.388
0
LINE
8
XSect
62
1
10
427.6
20
3.344
11
432.464
21
-2.876
0
LINE
8
Shots
62
1
10
327.294
20
-14.95
11
371.992
21
-4.26
0
CIRCLE
8
Shots
62
1
10
371.992
20
-4.26
40
0.1
0
LINE
8
XSect
62
1
6
DASH
10
371.992
20
-4.26
11
372.27
21
-3.378
0
LINE
8
XSect
62
1
6
DASH
10
371.992
20
-4.26
11
370.984
21
-0.926
0
LINE
8
XSect
62
1
10
371.992
20
-4.26
11
372.522
21
12.168
0
LINE
8
XSect
62
1
10
371.992
20
-4.26
11
372.388
21
-6.998
0
LINE
8
Shots
62
1
10
277.412
20
-1.35
11
327.294
21
-14.95
0
CIRCLE
8
Shots
62
1
10
327.294
20
-14.95
40
0.1
0
LINE
8
XSect
62
1
6
DASH
10
327.294
20
-14.95
11
326.846
21
-9.63
0
LINE
8
XSect
62
1
6
DASH
10
327.294
20
-14.95
11
343.34
21
-4.654
0
LINE
8
XSect
62
1
10
327.294
20
-14.95
11
335.57
21
11.376
0
LINE
8
XSect
62
1
10
327.294
20
-14.95
11
328.92
21
-18.722
0
LINE
8
Shots
62
1
10
259.922
20
-0.934
11
277.412
21
-1.35
0
CIRCLE
8
Shots
62
1
10
277.412
20
-1.35
40
0.1
0
LINE
8
XSect
62
1
6
DASH
10
277.412
20
-1.35
11
278.93
21
2.16
0
LINE
8
XSect
62
1
6
DASH
10
277.412
20
-1.35
11
271.614
21
4.972
0
LINE
8
XSect
62
1
10
277.412
20
-1.35
11
277.984
21
4.89
0
LINE
8
XSect
62
1
10
277.412
20
-1.35
11
278.184
21
-4.17
0
LINE
8
XSect
62
1
10
277.412
20
-1.35
11
316.386
21
4.402
0
LINE
8
Shots
62
1
10
194.506
20
-5.98
11
259.002
21
-1.062
0
CIRCLE
8
Shots
62
1
10
259.002
20
-1.062
40
0.1
0
LINE
8
Shots
62
1
10
194.506
20
-5.98
11
259.922
21
-0.934
0
CIRCLE
8
Shots
62
1
10
259.922
20
-0.934
40
0.1
0
LINE
8
XSect
62
1
6
DASH
10
259.922
20
-0.934
11
271.9
21
4.04
0
LINE
8
XSect
62
1
6
DASH
10
259.922
20
-0.934
11
261.46
21
7.8
0
LINE
8
XSect
62
1
10
259.922
20
-0.934
11
262.422
21
11.622
0
LINE
8
XSect
62
1
10
259.922
20
-0.934
11
262.022
21
-3.86
0
LINE
8
XSect
62
1
10
259.922
20
-0.934
11
238.276
21
1.72
0
LINE
8
XSect
62
1
10
259.922
20
-0.934
11
238.32
21
1.754
0
LINE
8
XSect
62
1
10
259.922
20
-0.934
11
238.194
21
1.77
0
LINE
8
Shots
62
1
10
238.454
20
-12.548
11
258.236
21
10.514
0
CIRCLE
8
Shots
62
1
10
258.236
20
10.514
40
0.1
0
LINE
8
Shots
62
1
10
222.656
20
-16.51
11
238.454
21
-12.548
0
CIRCLE
8
Shots
62
1
10
238.454
20
-12.548
40
0.1
0
LINE
8
XSect
62
1
10
238.454
20
-12.548
11
249.51
21
-8.944
0
LINE
8
XSect
62
1
6
DASH
10
238.454
20
-12.548
11
237.674
21
-12.472
0
LINE
8
XSect
62
1
10
238.454
20
-12.548
11
242.132
21
6.28
0
LINE
8
XSect
62
1
10
238.454
20
-12.548
11
238.538
21
-15.39
0
LINE
8
Shots
62
1
10
194.506
20
-5.98
11
222.656
21
-16.51
0
CIRCLE
8
Shots
62
1
10
222.656
20
-16.51
40
0.1
0
LINE
8
XSect
62
1
6
DASH
10
222.656
20
-16.51
11
221.694
21
-14.074
0
LINE
8
XSect
62
1
6
DASH
10
222.656
20
-16.51
11
219.864
21
-15.84
0
LINE
8
XSect
62
1
10
222.656
20
-16.51
11
223.436
21
-13.278
0
LINE
8
XSect
62
1
10
222.656
20
-16.51
11
222.204
21
-18.644
0
LINE
8
Shots
62
1
10
174.78
20
-4.35
11
194.506
21
-5.98
0
CIRCLE
8
Shots
62
1
10
194.506
20
-5.98
40
0.1
0
LINE
8
XSect
62
1
6
DASH
10
194.506
20
-5.98
11
198.55
21
-6.174
0
LINE
8
XSect
62
1
10
194.506
20
-5.98
11
194.842
21
-3.68
0
LINE
8
XSect
62
1
10
194.506
20
-5.98
11
198.87
21
4.552
0
LINE
8
XSect
62
1
10
194.506
20
-5.98
11
195.408
21
-10.128
0
LINE
8
Shots
62
1
10
148.328
20
-3.526
11
174.78
21
-4.35
0
CIRCLE
8
Shots
62
1
10
174.78
20
-4.35
40
0.1
0
LINE
8
XSect
62
1
10
174.78
20
-4.35
11
197.99
21
-2.718
0
LINE
8
XSect
62
1
6
DASH
10
174.78
20
-4.35
11
166.48
21
4.986
0
LINE
8
XSect
62
1
10
174.78
20
-4.35
11
177.144
21
9.014
0
LINE
8
XSect
62
1
10
174.78
20
-4.35
11
176.626
21
-7.45
0
LINE
8
Shots
62
1
10
96.456
20
0.546
11
148.328
21
-3.526
0
CIRCLE
8
Shots
62
1
10
148.328
20
-3.526
40
0.1
0
LINE
8
XSect
62
1
6
DASH
10
148.328
20
-3.526
11
143.816
21
-2.78
0
LINE
8
XSect
62
1
6
DASH
10
148.328
20
-3.526
11
162.336
21
4.568
0
LINE
8
XSect
62
1
10
148.328
20
-3.526
11
150.842
21
6.076
0
LINE
8
XSect
62
1
10
148.328
20
-3.526
11
148.622
21
-5.264
0
LINE
8
Shots
62
1
10
56.22
20
-2.03
11
96.456
21
0.546
0
CIRCLE
8
Shots
62
1
10
96.456
20
0.546
40
0.1
0
LINE
8
XSect
62
1
6
DASH
10
96.456
20
0.546
11
96.428
21
0.558
0
LINE
8
XSect
62
1
6
DASH
10
96.456
20
0.546
11
94.904
21
4.316
0
LINE
8
XSect
62
1
10
96.456
20
0.546
11
96.624
21
7.622
0
LINE
8
XSect
62
1
6
DASH
10
96.456
20
0.546
11
96.184
21
-3.856
0
LINE
8
Shots
62
1
10
0
20
0
11
56.22
21
-2.03
0
CIRCLE
8
Shots
62
1
10
56.22
20
-2.03
40
0.1
0
LINE
8
XSect
62
1
6
DASH
10
56.22
20
-2.03
11
56.162
21
-2.072
0
LINE
8
XSect
62
1
6
DASH
10
56.22
20
-2.03
11
53.936
21
0.832
0
LINE
8
XSect
62
1
10
56.22
20
-2.03
11
58.714
21
7.336
0
LINE
8
XSect
62
1
10
56.22
20
-2.03
11
58.244
21
-7.182
0
LINE
8
Shots
62
1
10
0
20
0
11
27.214
21
-4.394
0
CIRCLE
8
Shots
62
1
10
27.214
20
-4.394
40
0.1
0
ENDSEC
0
EOF
