<?xml version="1.0" encoding="utf-8" standalone="no"?>
<!-- Generated by Therion 5.4.4+4cb2921 (2020-04-05) -->
<!DOCTYPE svg PUBLIC "-//W3C//DTD SVG 1.1//EN" "http://www.w3.org/Graphics/SVG/1.1/DTD/svg11.dtd">
<svg width="69.169cm" height="41.017cm" viewBox="-31.094 -31.425 1960.693 1162.693" xmlns="http://www.w3.org/2000/svg" xmlns:xlink="http://www.w3.org/1999/xlink">
<defs>
<g id="F_aaaaaaa_alexandra_palace.svg">
</g>
<g id="G_aaaaaaa_alexandra_palace.svg">
</g>
<g id="B_aaaaaaa_alexandra_palace.svg">
</g>
<g id="I_aaaaaaa_alexandra_palace.svg">
</g>
<g id="E_aaaaaaa_alexandra_palace.svg">
<path fill="none" stroke="#000000" stroke-width="0.600" d="M2.750 1102.920L224.980 1043.390" />
<path fill="none" stroke="#000000" stroke-width="0.600" d="M224.980 1043.390L294.430 1031.060" />
<path fill="none" stroke="#000000" stroke-width="0.600" d="M224.980 1043.390L2.750 1102.920" />
<path fill="none" stroke="#000000" stroke-width="0.600" d="M294.430 1031.060L352.830 972.810" />
<path fill="none" stroke="#000000" stroke-width="0.600" d="M294.430 1031.060L224.980 1043.390" />
<path fill="none" stroke="#000000" stroke-width="0.600" d="M352.830 972.810L407.820 842.980" />
<path fill="none" stroke="#000000" stroke-width="0.600" d="M352.830 972.810L294.430 1031.060" />
<path fill="none" stroke="#000000" stroke-width="0.600" d="M407.820 842.980L351.270 731.870" />
<path fill="none" stroke="#000000" stroke-width="0.600" d="M407.820 842.980L352.830 972.810" />
<path fill="none" stroke="#000000" stroke-width="0.600" d="M351.270 731.870L337.380 573.690" />
<path fill="none" stroke="#000000" stroke-width="0.600" d="M351.270 731.870L407.820 842.980" />
<path fill="none" stroke="#000000" stroke-width="0.600" d="M337.380 573.690L435.030 652.780" />
<path fill="none" stroke="#000000" stroke-width="0.600" d="M337.380 573.690L351.270 731.870" />
<path fill="none" stroke="#000000" stroke-width="0.600" d="M435.030 652.780L556.350 758.230" />
<path fill="none" stroke="#000000" stroke-width="0.600" d="M435.030 652.780L337.380 573.690" />
<path fill="none" stroke="#000000" stroke-width="0.600" d="M556.350 758.230L614.610 589.280" />
<path fill="none" stroke="#000000" stroke-width="0.600" d="M556.350 758.230L435.030 652.780" />
<path fill="none" stroke="#000000" stroke-width="0.600" d="M614.610 589.280L622.260 368.320" />
<path fill="none" stroke="#000000" stroke-width="0.600" d="M614.610 589.280L556.350 758.230" />
<path fill="none" stroke="#000000" stroke-width="0.600" d="M622.260 368.320L660.240 362.940" />
<path fill="none" stroke="#000000" stroke-width="0.600" d="M622.260 368.320L614.610 589.280" />
<path fill="none" stroke="#000000" stroke-width="0.600" d="M660.240 362.940L696.810 362.940" />
<path fill="none" stroke="#000000" stroke-width="0.600" d="M660.240 362.940L622.260 368.320" />
<path fill="none" stroke="#000000" stroke-width="0.600" d="M696.810 362.940L779.160 464.700" />
<path fill="none" stroke="#000000" stroke-width="0.600" d="M696.810 362.940L660.240 362.940" />
<path fill="none" stroke="#000000" stroke-width="0.600" d="M779.160 464.700L859.800 441.460" />
<path fill="none" stroke="#000000" stroke-width="0.600" d="M779.160 464.700L696.810 362.940" />
<path fill="none" stroke="#000000" stroke-width="0.600" d="M859.800 441.460L926.700 493.760" />
<path fill="none" stroke="#000000" stroke-width="0.600" d="M859.800 441.460L779.160 464.700" />
<path fill="none" stroke="#000000" stroke-width="0.600" d="M926.700 493.760L947.250 539.820" />
<path fill="none" stroke="#000000" stroke-width="0.600" d="M926.700 493.760L859.800 441.460" />
<path fill="none" stroke="#000000" stroke-width="0.600" d="M947.250 539.820L915.360 618.620" />
<path fill="none" stroke="#000000" stroke-width="0.600" d="M947.250 539.820L926.700 493.760" />
<path fill="none" stroke="#000000" stroke-width="0.600" d="M915.360 618.620L917.060 719.960" />
<path fill="none" stroke="#000000" stroke-width="0.600" d="M915.360 618.620L947.250 539.820" />
<path fill="none" stroke="#000000" stroke-width="0.600" d="M917.060 719.960L910.540 845.820" />
<path fill="none" stroke="#000000" stroke-width="0.600" d="M917.060 719.960L915.360 618.620" />
<path fill="none" stroke="#000000" stroke-width="0.600" d="M910.540 845.820L1111.380 971.250" />
<path fill="none" stroke="#000000" stroke-width="0.600" d="M910.540 845.820L768.100 865.800" />
<path fill="none" stroke="#000000" stroke-width="0.600" d="M910.540 845.820L917.060 719.960" />
<path fill="none" stroke="#000000" stroke-width="0.600" d="M768.100 865.800L910.540 845.820" />
<path fill="none" stroke="#000000" stroke-width="0.600" d="M1111.380 971.250L1242.480 962.040" />
<path fill="none" stroke="#000000" stroke-width="0.600" d="M1111.380 971.250L910.540 845.820" />
<path fill="none" stroke="#000000" stroke-width="0.600" d="M1242.480 962.040L1382.090 1002.150" />
<path fill="none" stroke="#000000" stroke-width="0.600" d="M1242.480 962.040L1111.380 971.250" />
<path fill="none" stroke="#000000" stroke-width="0.600" d="M1382.090 1002.150L1634.650 966.570" />
<path fill="none" stroke="#000000" stroke-width="0.600" d="M1382.090 1002.150L1242.480 962.040" />
<path fill="none" stroke="#000000" stroke-width="0.600" d="M1634.650 966.570L1821.880 871.190" />
<path fill="none" stroke="#000000" stroke-width="0.600" d="M1634.650 966.570L1382.090 1002.150" />
<path fill="none" stroke="#000000" stroke-width="0.600" d="M1821.880 871.190L1872.620 651.080" />
<path fill="none" stroke="#000000" stroke-width="0.600" d="M1821.880 871.190L1634.650 966.570" />
<path fill="none" stroke="#000000" stroke-width="0.600" d="M1872.620 651.080L1894.870 226.450" />
<path fill="none" stroke="#000000" stroke-width="0.600" d="M1872.620 651.080L1821.880 871.190" />
<path fill="none" stroke="#000000" stroke-width="0.600" d="M1894.870 226.450L1901.250 106.540" />
<path fill="none" stroke="#000000" stroke-width="0.600" d="M1894.870 226.450L1872.620 651.080" />
<path fill="none" stroke="#000000" stroke-width="0.600" d="M1901.250 106.540L1804.590 3.080" />
<path fill="none" stroke="#000000" stroke-width="0.600" d="M1901.250 106.540L1894.870 226.450" />
<path fill="none" stroke="#000000" stroke-width="0.600" d="M1804.590 3.080L1901.250 106.540" />
<path fill="none" stroke="#000000" stroke-width="0.420" d="M0.350 1102.920L5.150 1102.920" />
<path fill="none" stroke="#000000" stroke-width="0.420" d="M2.750 1100.520L2.750 1105.320" />
<path fill="#ffffff" stroke="none" d="M3.710 1102.920C3.710 1103.175 3.609 1103.419 3.429 1103.599C3.249 1103.779 3.005 1103.880 2.750 1103.880C2.495 1103.880 2.251 1103.779 2.071 1103.599C1.891 1103.419 1.790 1103.175 1.790 1102.920C1.790 1102.665 1.891 1102.421 2.071 1102.241C2.251 1102.061 2.495 1101.960 2.750 1101.960C3.005 1101.960 3.249 1102.061 3.429 1102.241C3.609 1102.421 3.710 1102.665 3.710 1102.920Z" />
<path fill="none" stroke="#000000" stroke-width="0.600" d="M2.750 1102.920h0.001" />
<path fill="none" stroke="#000000" stroke-width="0.420" d="M222.580 1043.390L227.380 1043.390" />
<path fill="none" stroke="#000000" stroke-width="0.420" d="M224.980 1040.990L224.980 1045.790" />
<path fill="#ffffff" stroke="none" d="M225.940 1043.390C225.940 1043.645 225.839 1043.889 225.659 1044.069C225.479 1044.249 225.235 1044.350 224.980 1044.350C224.725 1044.350 224.481 1044.249 224.301 1044.069C224.121 1043.889 224.020 1043.645 224.020 1043.390C224.020 1043.135 224.121 1042.891 224.301 1042.711C224.481 1042.531 224.725 1042.430 224.980 1042.430C225.235 1042.430 225.479 1042.531 225.659 1042.711C225.839 1042.891 225.940 1043.135 225.940 1043.390Z" />
<path fill="none" stroke="#000000" stroke-width="0.600" d="M224.980 1043.390h0.001" />
<path fill="none" stroke="#000000" stroke-width="0.420" d="M292.030 1031.060L296.830 1031.060" />
<path fill="none" stroke="#000000" stroke-width="0.420" d="M294.430 1028.660L294.430 1033.460" />
<path fill="#ffffff" stroke="none" d="M295.390 1031.060C295.390 1031.315 295.289 1031.559 295.109 1031.739C294.929 1031.919 294.685 1032.020 294.430 1032.020C294.175 1032.020 293.931 1031.919 293.751 1031.739C293.571 1031.559 293.470 1031.315 293.470 1031.060C293.470 1030.805 293.571 1030.561 293.751 1030.381C293.931 1030.201 294.175 1030.100 294.430 1030.100C294.685 1030.100 294.929 1030.201 295.109 1030.381C295.289 1030.561 295.390 1030.805 295.390 1031.060Z" />
<path fill="none" stroke="#000000" stroke-width="0.600" d="M294.430 1031.060h0.001" />
<path fill="none" stroke="#000000" stroke-width="0.420" d="M350.430 972.810L355.230 972.810" />
<path fill="none" stroke="#000000" stroke-width="0.420" d="M352.830 970.410L352.830 975.210" />
<path fill="#ffffff" stroke="none" d="M353.790 972.810C353.790 973.065 353.689 973.309 353.509 973.489C353.329 973.669 353.085 973.770 352.830 973.770C352.575 973.770 352.331 973.669 352.151 973.489C351.971 973.309 351.870 973.065 351.870 972.810C351.870 972.555 351.971 972.311 352.151 972.131C352.331 971.951 352.575 971.850 352.830 971.850C353.085 971.850 353.329 971.951 353.509 972.131C353.689 972.311 353.790 972.555 353.790 972.810Z" />
<path fill="none" stroke="#000000" stroke-width="0.600" d="M352.830 972.810h0.001" />
<path fill="none" stroke="#000000" stroke-width="0.420" d="M405.420 842.980L410.220 842.980" />
<path fill="none" stroke="#000000" stroke-width="0.420" d="M407.820 840.580L407.820 845.380" />
<path fill="#ffffff" stroke="none" d="M408.780 842.980C408.780 843.235 408.679 843.479 408.499 843.659C408.319 843.839 408.075 843.940 407.820 843.940C407.565 843.940 407.321 843.839 407.141 843.659C406.961 843.479 406.860 843.235 406.860 842.980C406.860 842.725 406.961 842.481 407.141 842.301C407.321 842.121 407.565 842.020 407.820 842.020C408.075 842.020 408.319 842.121 408.499 842.301C408.679 842.481 408.780 842.725 408.780 842.980Z" />
<path fill="none" stroke="#000000" stroke-width="0.600" d="M407.820 842.980h0.001" />
<path fill="none" stroke="#000000" stroke-width="0.420" d="M348.870 731.870L353.670 731.870" />
<path fill="none" stroke="#000000" stroke-width="0.420" d="M351.270 729.470L351.270 734.270" />
<path fill="#ffffff" stroke="none" d="M352.230 731.870C352.230 732.125 352.129 732.369 351.949 732.549C351.769 732.729 351.525 732.830 351.270 732.830C351.015 732.830 350.771 732.729 350.591 732.549C350.411 732.369 350.310 732.125 350.310 731.870C350.310 731.615 350.411 731.371 350.591 731.191C350.771 731.011 351.015 730.910 351.270 730.910C351.525 730.910 351.769 731.011 351.949 731.191C352.129 731.371 352.230 731.615 352.230 731.870Z" />
<path fill="none" stroke="#000000" stroke-width="0.600" d="M351.270 731.870h0.001" />
<path fill="none" stroke="#000000" stroke-width="0.420" d="M334.980 573.690L339.780 573.690" />
<path fill="none" stroke="#000000" stroke-width="0.420" d="M337.380 571.290L337.380 576.090" />
<path fill="#ffffff" stroke="none" d="M338.340 573.690C338.340 573.945 338.239 574.189 338.059 574.369C337.879 574.549 337.635 574.650 337.380 574.650C337.125 574.650 336.881 574.549 336.701 574.369C336.521 574.189 336.420 573.945 336.420 573.690C336.420 573.435 336.521 573.191 336.701 573.011C336.881 572.831 337.125 572.730 337.380 572.730C337.635 572.730 337.879 572.831 338.059 573.011C338.239 573.191 338.340 573.435 338.340 573.690Z" />
<path fill="none" stroke="#000000" stroke-width="0.600" d="M337.380 573.690h0.001" />
<path fill="none" stroke="#000000" stroke-width="0.420" d="M432.630 652.780L437.430 652.780" />
<path fill="none" stroke="#000000" stroke-width="0.420" d="M435.030 650.380L435.030 655.180" />
<path fill="#ffffff" stroke="none" d="M435.990 652.780C435.990 653.035 435.889 653.279 435.709 653.459C435.529 653.639 435.285 653.740 435.030 653.740C434.775 653.740 434.531 653.639 434.351 653.459C434.171 653.279 434.070 653.035 434.070 652.780C434.070 652.525 434.171 652.281 434.351 652.101C434.531 651.921 434.775 651.820 435.030 651.820C435.285 651.820 435.529 651.921 435.709 652.101C435.889 652.281 435.990 652.525 435.990 652.780Z" />
<path fill="none" stroke="#000000" stroke-width="0.600" d="M435.030 652.780h0.001" />
<path fill="none" stroke="#000000" stroke-width="0.420" d="M553.950 758.230L558.750 758.230" />
<path fill="none" stroke="#000000" stroke-width="0.420" d="M556.350 755.830L556.350 760.630" />
<path fill="#ffffff" stroke="none" d="M557.310 758.230C557.310 758.485 557.209 758.729 557.029 758.909C556.849 759.089 556.605 759.190 556.350 759.190C556.095 759.190 555.851 759.089 555.671 758.909C555.491 758.729 555.390 758.485 555.390 758.230C555.390 757.975 555.491 757.731 555.671 757.551C555.851 757.371 556.095 757.270 556.350 757.270C556.605 757.270 556.849 757.371 557.029 757.551C557.209 757.731 557.310 757.975 557.310 758.230Z" />
<path fill="none" stroke="#000000" stroke-width="0.600" d="M556.350 758.230h0.001" />
<path fill="none" stroke="#000000" stroke-width="0.420" d="M612.210 589.280L617.010 589.280" />
<path fill="none" stroke="#000000" stroke-width="0.420" d="M614.610 586.880L614.610 591.680" />
<path fill="#ffffff" stroke="none" d="M615.570 589.280C615.570 589.535 615.469 589.779 615.289 589.959C615.109 590.139 614.865 590.240 614.610 590.240C614.355 590.240 614.111 590.139 613.931 589.959C613.751 589.779 613.650 589.535 613.650 589.280C613.650 589.025 613.751 588.781 613.931 588.601C614.111 588.421 614.355 588.320 614.610 588.320C614.865 588.320 615.109 588.421 615.289 588.601C615.469 588.781 615.570 589.025 615.570 589.280Z" />
<path fill="none" stroke="#000000" stroke-width="0.600" d="M614.610 589.280h0.001" />
<path fill="none" stroke="#000000" stroke-width="0.420" d="M619.860 368.320L624.660 368.320" />
<path fill="none" stroke="#000000" stroke-width="0.420" d="M622.260 365.920L622.260 370.720" />
<path fill="#ffffff" stroke="none" d="M623.220 368.320C623.220 368.575 623.119 368.819 622.939 368.999C622.759 369.179 622.515 369.280 622.260 369.280C622.005 369.280 621.761 369.179 621.581 368.999C621.401 368.819 621.300 368.575 621.300 368.320C621.300 368.065 621.401 367.821 621.581 367.641C621.761 367.461 622.005 367.360 622.260 367.360C622.515 367.360 622.759 367.461 622.939 367.641C623.119 367.821 623.220 368.065 623.220 368.320Z" />
<path fill="none" stroke="#000000" stroke-width="0.600" d="M622.260 368.320h0.001" />
<path fill="none" stroke="#000000" stroke-width="0.420" d="M657.840 362.940L662.640 362.940" />
<path fill="none" stroke="#000000" stroke-width="0.420" d="M660.240 360.540L660.240 365.340" />
<path fill="#ffffff" stroke="none" d="M661.200 362.940C661.200 363.195 661.099 363.439 660.919 363.619C660.739 363.799 660.495 363.900 660.240 363.900C659.985 363.900 659.741 363.799 659.561 363.619C659.381 363.439 659.280 363.195 659.280 362.940C659.280 362.685 659.381 362.441 659.561 362.261C659.741 362.081 659.985 361.980 660.240 361.980C660.495 361.980 660.739 362.081 660.919 362.261C661.099 362.441 661.200 362.685 661.200 362.940Z" />
<path fill="none" stroke="#000000" stroke-width="0.600" d="M660.240 362.940h0.001" />
<path fill="none" stroke="#000000" stroke-width="0.420" d="M694.410 362.940L699.210 362.940" />
<path fill="none" stroke="#000000" stroke-width="0.420" d="M696.810 360.540L696.810 365.340" />
<path fill="#ffffff" stroke="none" d="M697.770 362.940C697.770 363.195 697.669 363.439 697.489 363.619C697.309 363.799 697.065 363.900 696.810 363.900C696.555 363.900 696.311 363.799 696.131 363.619C695.951 363.439 695.850 363.195 695.850 362.940C695.850 362.685 695.951 362.441 696.131 362.261C696.311 362.081 696.555 361.980 696.810 361.980C697.065 361.980 697.309 362.081 697.489 362.261C697.669 362.441 697.770 362.685 697.770 362.940Z" />
<path fill="none" stroke="#000000" stroke-width="0.600" d="M696.810 362.940h0.001" />
<path fill="none" stroke="#000000" stroke-width="0.420" d="M776.760 464.700L781.560 464.700" />
<path fill="none" stroke="#000000" stroke-width="0.420" d="M779.160 462.300L779.160 467.100" />
<path fill="#ffffff" stroke="none" d="M780.120 464.700C780.120 464.955 780.019 465.199 779.839 465.379C779.659 465.559 779.415 465.660 779.160 465.660C778.905 465.660 778.661 465.559 778.481 465.379C778.301 465.199 778.200 464.955 778.200 464.700C778.200 464.445 778.301 464.201 778.481 464.021C778.661 463.841 778.905 463.740 779.160 463.740C779.415 463.740 779.659 463.841 779.839 464.021C780.019 464.201 780.120 464.445 780.120 464.700Z" />
<path fill="none" stroke="#000000" stroke-width="0.600" d="M779.160 464.700h0.001" />
<path fill="none" stroke="#000000" stroke-width="0.420" d="M857.400 441.460L862.200 441.460" />
<path fill="none" stroke="#000000" stroke-width="0.420" d="M859.800 439.060L859.800 443.860" />
<path fill="#ffffff" stroke="none" d="M860.760 441.460C860.760 441.715 860.659 441.959 860.479 442.139C860.299 442.319 860.055 442.420 859.800 442.420C859.545 442.420 859.301 442.319 859.121 442.139C858.941 441.959 858.840 441.715 858.840 441.460C858.840 441.205 858.941 440.961 859.121 440.781C859.301 440.601 859.545 440.500 859.800 440.500C860.055 440.500 860.299 440.601 860.479 440.781C860.659 440.961 860.760 441.205 860.760 441.460Z" />
<path fill="none" stroke="#000000" stroke-width="0.600" d="M859.800 441.460h0.001" />
<path fill="none" stroke="#000000" stroke-width="0.420" d="M924.300 493.760L929.100 493.760" />
<path fill="none" stroke="#000000" stroke-width="0.420" d="M926.700 491.360L926.700 496.160" />
<path fill="#ffffff" stroke="none" d="M927.660 493.760C927.660 494.015 927.559 494.259 927.379 494.439C927.199 494.619 926.955 494.720 926.700 494.720C926.445 494.720 926.201 494.619 926.021 494.439C925.841 494.259 925.740 494.015 925.740 493.760C925.740 493.505 925.841 493.261 926.021 493.081C926.201 492.901 926.445 492.800 926.700 492.800C926.955 492.800 927.199 492.901 927.379 493.081C927.559 493.261 927.660 493.505 927.660 493.760Z" />
<path fill="none" stroke="#000000" stroke-width="0.600" d="M926.700 493.760h0.001" />
<path fill="none" stroke="#000000" stroke-width="0.420" d="M944.850 539.820L949.650 539.820" />
<path fill="none" stroke="#000000" stroke-width="0.420" d="M947.250 537.420L947.250 542.220" />
<path fill="#ffffff" stroke="none" d="M948.210 539.820C948.210 540.075 948.109 540.319 947.929 540.499C947.749 540.679 947.505 540.780 947.250 540.780C946.995 540.780 946.751 540.679 946.571 540.499C946.391 540.319 946.290 540.075 946.290 539.820C946.290 539.565 946.391 539.321 946.571 539.141C946.751 538.961 946.995 538.860 947.250 538.860C947.505 538.860 947.749 538.961 947.929 539.141C948.109 539.321 948.210 539.565 948.210 539.820Z" />
<path fill="none" stroke="#000000" stroke-width="0.600" d="M947.250 539.820h0.001" />
<path fill="none" stroke="#000000" stroke-width="0.420" d="M912.960 618.620L917.760 618.620" />
<path fill="none" stroke="#000000" stroke-width="0.420" d="M915.360 616.220L915.360 621.020" />
<path fill="#ffffff" stroke="none" d="M916.320 618.620C916.320 618.875 916.219 619.119 916.039 619.299C915.859 619.479 915.615 619.580 915.360 619.580C915.105 619.580 914.861 619.479 914.681 619.299C914.501 619.119 914.400 618.875 914.400 618.620C914.400 618.365 914.501 618.121 914.681 617.941C914.861 617.761 915.105 617.660 915.360 617.660C915.615 617.660 915.859 617.761 916.039 617.941C916.219 618.121 916.320 618.365 916.320 618.620Z" />
<path fill="none" stroke="#000000" stroke-width="0.600" d="M915.360 618.620h0.001" />
<path fill="none" stroke="#000000" stroke-width="0.420" d="M914.660 719.960L919.460 719.960" />
<path fill="none" stroke="#000000" stroke-width="0.420" d="M917.060 717.560L917.060 722.360" />
<path fill="#ffffff" stroke="none" d="M918.020 719.960C918.020 720.215 917.919 720.459 917.739 720.639C917.559 720.819 917.315 720.920 917.060 720.920C916.805 720.920 916.561 720.819 916.381 720.639C916.201 720.459 916.100 720.215 916.100 719.960C916.100 719.705 916.201 719.461 916.381 719.281C916.561 719.101 916.805 719.000 917.060 719.000C917.315 719.000 917.559 719.101 917.739 719.281C917.919 719.461 918.020 719.705 918.020 719.960Z" />
<path fill="none" stroke="#000000" stroke-width="0.600" d="M917.060 719.960h0.001" />
<path fill="none" stroke="#000000" stroke-width="0.420" d="M908.140 845.820L912.940 845.820" />
<path fill="none" stroke="#000000" stroke-width="0.420" d="M910.540 843.420L910.540 848.220" />
<path fill="#ffffff" stroke="none" d="M911.500 845.820C911.500 846.075 911.399 846.319 911.219 846.499C911.039 846.679 910.795 846.780 910.540 846.780C910.285 846.780 910.041 846.679 909.861 846.499C909.681 846.319 909.580 846.075 909.580 845.820C909.580 845.565 909.681 845.321 909.861 845.141C910.041 844.961 910.285 844.860 910.540 844.860C910.795 844.860 911.039 844.961 911.219 845.141C911.399 845.321 911.500 845.565 911.500 845.820Z" />
<path fill="none" stroke="#000000" stroke-width="0.600" d="M910.540 845.820h0.001" />
<path fill="none" stroke="#000000" stroke-width="0.420" d="M765.700 865.800L770.500 865.800" />
<path fill="none" stroke="#000000" stroke-width="0.420" d="M768.100 863.400L768.100 868.200" />
<path fill="#ffffff" stroke="none" d="M769.060 865.800C769.060 866.055 768.959 866.299 768.779 866.479C768.599 866.659 768.355 866.760 768.100 866.760C767.845 866.760 767.601 866.659 767.421 866.479C767.241 866.299 767.140 866.055 767.140 865.800C767.140 865.545 767.241 865.301 767.421 865.121C767.601 864.941 767.845 864.840 768.100 864.840C768.355 864.840 768.599 864.941 768.779 865.121C768.959 865.301 769.060 865.545 769.060 865.800Z" />
<path fill="none" stroke="#000000" stroke-width="0.600" d="M768.100 865.800h0.001" />
<path fill="none" stroke="#000000" stroke-width="0.420" d="M1108.980 971.250L1113.780 971.250" />
<path fill="none" stroke="#000000" stroke-width="0.420" d="M1111.380 968.850L1111.380 973.650" />
<path fill="#ffffff" stroke="none" d="M1112.340 971.250C1112.340 971.505 1112.239 971.749 1112.059 971.929C1111.879 972.109 1111.635 972.210 1111.380 972.210C1111.125 972.210 1110.881 972.109 1110.701 971.929C1110.521 971.749 1110.420 971.505 1110.420 971.250C1110.420 970.995 1110.521 970.751 1110.701 970.571C1110.881 970.391 1111.125 970.290 1111.380 970.290C1111.635 970.290 1111.879 970.391 1112.059 970.571C1112.239 970.751 1112.340 970.995 1112.340 971.250Z" />
<path fill="none" stroke="#000000" stroke-width="0.600" d="M1111.380 971.250h0.001" />
<path fill="none" stroke="#000000" stroke-width="0.420" d="M1240.080 962.040L1244.880 962.040" />
<path fill="none" stroke="#000000" stroke-width="0.420" d="M1242.480 959.640L1242.480 964.440" />
<path fill="#ffffff" stroke="none" d="M1243.440 962.040C1243.440 962.295 1243.339 962.539 1243.159 962.719C1242.979 962.899 1242.735 963.000 1242.480 963.000C1242.225 963.000 1241.981 962.899 1241.801 962.719C1241.621 962.539 1241.520 962.295 1241.520 962.040C1241.520 961.785 1241.621 961.541 1241.801 961.361C1241.981 961.181 1242.225 961.080 1242.480 961.080C1242.735 961.080 1242.979 961.181 1243.159 961.361C1243.339 961.541 1243.440 961.785 1243.440 962.040Z" />
<path fill="none" stroke="#000000" stroke-width="0.600" d="M1242.480 962.040h0.001" />
<path fill="none" stroke="#000000" stroke-width="0.420" d="M1379.690 1002.150L1384.490 1002.150" />
<path fill="none" stroke="#000000" stroke-width="0.420" d="M1382.090 999.750L1382.090 1004.550" />
<path fill="#ffffff" stroke="none" d="M1383.050 1002.150C1383.050 1002.405 1382.949 1002.649 1382.769 1002.829C1382.589 1003.009 1382.345 1003.110 1382.090 1003.110C1381.835 1003.110 1381.591 1003.009 1381.411 1002.829C1381.231 1002.649 1381.130 1002.405 1381.130 1002.150C1381.130 1001.895 1381.231 1001.651 1381.411 1001.471C1381.591 1001.291 1381.835 1001.190 1382.090 1001.190C1382.345 1001.190 1382.589 1001.291 1382.769 1001.471C1382.949 1001.651 1383.050 1001.895 1383.050 1002.150Z" />
<path fill="none" stroke="#000000" stroke-width="0.600" d="M1382.090 1002.150h0.001" />
<path fill="none" stroke="#000000" stroke-width="0.420" d="M1632.250 966.570L1637.050 966.570" />
<path fill="none" stroke="#000000" stroke-width="0.420" d="M1634.650 964.170L1634.650 968.970" />
<path fill="#ffffff" stroke="none" d="M1635.610 966.570C1635.610 966.825 1635.509 967.069 1635.329 967.249C1635.149 967.429 1634.905 967.530 1634.650 967.530C1634.395 967.530 1634.151 967.429 1633.971 967.249C1633.791 967.069 1633.690 966.825 1633.690 966.570C1633.690 966.315 1633.791 966.071 1633.971 965.891C1634.151 965.711 1634.395 965.610 1634.650 965.610C1634.905 965.610 1635.149 965.711 1635.329 965.891C1635.509 966.071 1635.610 966.315 1635.610 966.570Z" />
<path fill="none" stroke="#000000" stroke-width="0.600" d="M1634.650 966.570h0.001" />
<path fill="none" stroke="#000000" stroke-width="0.420" d="M1819.480 871.190L1824.280 871.190" />
<path fill="none" stroke="#000000" stroke-width="0.420" d="M1821.880 868.790L1821.880 873.590" />
<path fill="#ffffff" stroke="none" d="M1822.840 871.190C1822.840 871.445 1822.739 871.689 1822.559 871.869C1822.379 872.049 1822.135 872.150 1821.880 872.150C1821.625 872.150 1821.381 872.049 1821.201 871.869C1821.021 871.689 1820.920 871.445 1820.920 871.190C1820.920 870.935 1821.021 870.691 1821.201 870.511C1821.381 870.331 1821.625 870.230 1821.880 870.230C1822.135 870.230 1822.379 870.331 1822.559 870.511C1822.739 870.691 1822.840 870.935 1822.840 871.190Z" />
<path fill="none" stroke="#000000" stroke-width="0.600" d="M1821.880 871.190h0.001" />
<path fill="none" stroke="#000000" stroke-width="0.420" d="M1870.220 651.080L1875.020 651.080" />
<path fill="none" stroke="#000000" stroke-width="0.420" d="M1872.620 648.680L1872.620 653.480" />
<path fill="#ffffff" stroke="none" d="M1873.580 651.080C1873.580 651.335 1873.479 651.579 1873.299 651.759C1873.119 651.939 1872.875 652.040 1872.620 652.040C1872.365 652.040 1872.121 651.939 1871.941 651.759C1871.761 651.579 1871.660 651.335 1871.660 651.080C1871.660 650.825 1871.761 650.581 1871.941 650.401C1872.121 650.221 1872.365 650.120 1872.620 650.120C1872.875 650.120 1873.119 650.221 1873.299 650.401C1873.479 650.581 1873.580 650.825 1873.580 651.080Z" />
<path fill="none" stroke="#000000" stroke-width="0.600" d="M1872.620 651.080h0.001" />
<path fill="none" stroke="#000000" stroke-width="0.420" d="M1892.470 226.450L1897.270 226.450" />
<path fill="none" stroke="#000000" stroke-width="0.420" d="M1894.870 224.050L1894.870 228.850" />
<path fill="#ffffff" stroke="none" d="M1895.830 226.450C1895.830 226.705 1895.729 226.949 1895.549 227.129C1895.369 227.309 1895.125 227.410 1894.870 227.410C1894.615 227.410 1894.371 227.309 1894.191 227.129C1894.011 226.949 1893.910 226.705 1893.910 226.450C1893.910 226.195 1894.011 225.951 1894.191 225.771C1894.371 225.591 1894.615 225.490 1894.870 225.490C1895.125 225.490 1895.369 225.591 1895.549 225.771C1895.729 225.951 1895.830 226.195 1895.830 226.450Z" />
<path fill="none" stroke="#000000" stroke-width="0.600" d="M1894.870 226.450h0.001" />
<path fill="none" stroke="#000000" stroke-width="0.420" d="M1898.850 106.540L1903.650 106.540" />
<path fill="none" stroke="#000000" stroke-width="0.420" d="M1901.250 104.140L1901.250 108.940" />
<path fill="#ffffff" stroke="none" d="M1902.210 106.540C1902.210 106.795 1902.109 107.039 1901.929 107.219C1901.749 107.399 1901.505 107.500 1901.250 107.500C1900.995 107.500 1900.751 107.399 1900.571 107.219C1900.391 107.039 1900.290 106.795 1900.290 106.540C1900.290 106.285 1900.391 106.041 1900.571 105.861C1900.751 105.681 1900.995 105.580 1901.250 105.580C1901.505 105.580 1901.749 105.681 1901.929 105.861C1902.109 106.041 1902.210 106.285 1902.210 106.540Z" />
<path fill="none" stroke="#000000" stroke-width="0.600" d="M1901.250 106.540h0.001" />
<path fill="none" stroke="#000000" stroke-width="0.420" d="M1802.190 3.080L1806.990 3.080" />
<path fill="none" stroke="#000000" stroke-width="0.420" d="M1804.590 0.680L1804.590 5.480" />
<path fill="#ffffff" stroke="none" d="M1805.550 3.080C1805.550 3.335 1805.449 3.579 1805.269 3.759C1805.089 3.939 1804.845 4.040 1804.590 4.040C1804.335 4.040 1804.091 3.939 1803.911 3.759C1803.731 3.579 1803.630 3.335 1803.630 3.080C1803.630 2.825 1803.731 2.581 1803.911 2.401C1804.091 2.221 1804.335 2.120 1804.590 2.120C1804.845 2.120 1805.089 2.221 1805.269 2.401C1805.449 2.581 1805.550 2.825 1805.550 3.080Z" />
<path fill="none" stroke="#000000" stroke-width="0.600" d="M1804.590 3.080h0.001" />
</g>
<g id="X_aaaaaaa_alexandra_palace.svg">
</g>
<clipPath id="clip_viewBox">
<path d="M-31.094 -1131.268L1929.598 -1131.268L1929.598 31.425L-31.094 31.425z" />
</clipPath>
</defs>
<g transform="scale(1,-1)" fill="#000000" stroke="#000000" stroke-linecap="round" stroke-linejoin="round" stroke-miterlimit="10" fill-rule="evenodd" clip-rule="evenodd" clip-path="url(#clip_viewBox)">
<use x="-2.748" y="-1102.921" xlink:href="#E_aaaaaaa_alexandra_palace.svg" />
</g>
</svg>
